<svg xmlns="http://www.w3.org/2000/svg" width="421.075" height="483.128" viewBox="0 0 421.075 483.128"><defs><style>.a{fill:#151a21;}.a,.b{stroke:#fff;stroke-miterlimit:10;}.b{fill:#29366d;}</style></defs><g transform="translate(-105.667 -202.363)"><path class="a" d="M189.267,237.253s1.8-.272,2.217-.364,1.134-.544,1.134-.682.052-1.274.052-1.274l1.237-1.317,1.7-1.637,3.249-.409,4.02-.956,4.022.409,1.908.638s2.834.318,3.764.409a11.712,11.712,0,0,1,3.453,1.317c.669.409,2.938,1.319,3.4,1.546a17.466,17.466,0,0,0,2.681.5,10.778,10.778,0,0,1,1.752,0,15.451,15.451,0,0,1,2.373,1.454l3.144,2.547,2.629,1.546,3.557.409,2.423,1s.052.956.052,1.228.1,1.047.1,1.047l3.3.636,2.888,1.091.154,1.274s-.774.5-1.5.91a7.369,7.369,0,0,0-1.649,1.272c-.515.5-1.649.091-2.888,0s-2.784-.272-4.124-.5a23.871,23.871,0,0,0-3.2-.411,5.364,5.364,0,0,0-1.856.683l-1.856.819-1.752-.864a2.493,2.493,0,0,1,.411-1.228c.413-.636.619-.455.619-.455l1.649-1.228.567-.409-.567-1.635-.515-.183-4.537.046-2.112-.546-.413-1.454-.1-1.5-1.341-.228-2.834-.453-1.6-1.411a15.663,15.663,0,0,1-1.03-1.182,34.1,34.1,0,0,0-3.3-.954l-1.752.59a32.659,32.659,0,0,1-4.176-.227,1.022,1.022,0,0,1-.876-1.091s-.052-1.411-.413-1.546a5.149,5.149,0,0,0-1.651.181l-1.752.864s-1.547.59-1.856.636-1.443,0-1.443,0l-1.6.364-.361.956s-.774.908-1.082,1-1.084.274-1.754.5a3.907,3.907,0,0,1-1.7,0l-1.082-.5C188.6,238.209,189.267,237.253,189.267,237.253Z" transform="translate(71.086 25.078)"/><path class="a" d="M207.256,246.352a15.87,15.87,0,0,1,1.958.773,13.384,13.384,0,0,0,1.443,1.456,10.39,10.39,0,0,0,2.114.227,5.469,5.469,0,0,0,1.96-.409,12.239,12.239,0,0,1,2.423-.5l2.577.592.98-.318s1.341-1.093,1.7-1.456-.206-1.591-.206-1.591l-1.908-.046-2.681,1-2.112.046-2.733-1.091-2.062-.137a3.2,3.2,0,0,0-1.341.272,10.86,10.86,0,0,1-1.237.638Z" transform="translate(86.866 37.985)"/><path class="a" d="M217.791,249.728l2.629,1.045s3.505.318,3.97.318,1.341-.227,2.577-.227,4.279.409,4.279.409l.311,1a12.914,12.914,0,0,0,1.134,1.319,3.082,3.082,0,0,0,2.269-.137,16.843,16.843,0,0,0,2.267-1.363L238.515,251h2.527a9.043,9.043,0,0,0,2.164-.908,4.105,4.105,0,0,1,1.96-.274,9.526,9.526,0,0,1,2.938.91,1.682,1.682,0,0,0,.826-.544c.052-.137.154-.409.309-.864a3.834,3.834,0,0,0-1.237-2.5,20.687,20.687,0,0,0-2.629-.819c-.928-.227-1.7.183-1.237-.59s.824-1.182,1.03-1.5-.258-1.591-.258-1.591-1.5-.137-2.525-.183-2.888-.364-2.888-.364l-4.227-1.045a3.561,3.561,0,0,0-1.754-.183,31.649,31.649,0,0,0-4.072,1.319l-1.393-.272-1.5-.683-2.475-.364-1.906.773s-.826.683-.774,1.365.257,1.137,0,1.363a7.89,7.89,0,0,1-1.649.592,1.145,1.145,0,0,0-.156.908c.156.455-.154.638.774,1.138a7.091,7.091,0,0,0,2.217.636l1.291-.272a5.6,5.6,0,0,1,2.629-.546,14.064,14.064,0,0,1,1.752.5c1.289.409,1.6-.546,1.754.59s-.154,1.365-.154,1.365l-1.186.227a6.05,6.05,0,0,1-1.649.228h-2.269l-1.032-.046-1.5-.137s-.154-.046-.978-.409a8.594,8.594,0,0,0-1.445-.5H218.41a3.081,3.081,0,0,0-.465.546Z" transform="translate(95.921 34.019)"/><path class="a" d="M239.614,247.184l.894.577,2.062.152,2.269-.213,1.581-.727-.24-1a8.561,8.561,0,0,0-1.17-.335h-1.958l-1.2-.453s-1.547.029-1.96.089a8.092,8.092,0,0,0-1.443.577Z" transform="translate(113.674 38.245)"/><path class="a" d="M124.367,220.007l.011.12Z" transform="translate(15.622 15.492)"/><path class="a" d="M124.364,219.971c0-.034,0-.027,0,0Z" transform="translate(15.617 15.439)"/><path class="a" d="M124.37,220.046l-.007-.082Z" transform="translate(15.618 15.453)"/><path class="a" d="M202.9,202.863h0Z" transform="translate(83.124)"/><path class="a" d="M124.373,220.07l.009.1Z" transform="translate(15.627 15.549)"/><path class="a" d="M124.388,220.235l-.007-.082Z" transform="translate(15.634 15.624)"/><path class="a" d="M176.423,247.623l.482,1.091.688,8.972,1.034.314a6.715,6.715,0,0,1,.993-.98c.928-.727,1.651-1.365,1.651-1.365l.2-3.364-.411-5.547.411-2.545a2.582,2.582,0,0,1,.177-.539l-5.4,3.963Z" transform="translate(60.214 36.866)"/><path class="a" d="M246.846,268.573A5.764,5.764,0,0,0,248.6,267.3l-.206-3.272a3.485,3.485,0,0,0-2.373-1c-1.443,0-5.361.455-5.361.455l-2.681,1.637-4.433.727s-1.032.272-1.032.727a5.247,5.247,0,0,0,0,1.274,9.118,9.118,0,0,1,.206,1.274l-1.443,4.182v2l-.722,1.546-1.443.636-1.032.364.309,2-.1,1.091a7.874,7.874,0,0,1-2.062.819c-1.547.455-3.092.727-3.092.727l-.206-.819-.722-1.091-2.166-.089-1.443.453-5.363,1.093a2.5,2.5,0,0,1-1.752.181,13.824,13.824,0,0,1-1.547-.546l-.826-.272-3.3-1-3.3-2a4.627,4.627,0,0,1-1.341-1.546c-.722-1.182-1.96-2.273-1.96-3.547s.928-1,0-2.184a8.988,8.988,0,0,0-2.577-2.09l-1.237-.727a8.778,8.778,0,0,1,1.237-2.184,3.65,3.65,0,0,0,.826-1.273l-.206-1.635-.723-2.184-1.132-2.545s-1.341-3.638-1.134-4.274,1.03-2.183,1.03-2.456a24.378,24.378,0,0,0-1.237-2.637l-.413-2.547.413-2.273,1.341.636s1.339.638,1.649.366a5.315,5.315,0,0,0,.721-1s.928-1.091.928-1.637a4.071,4.071,0,0,0-.175-.935l-.169-.065-2.613-2.184L191.75,237.9l-2.062-4.729-7.01-11.641-1.925-2.545-4.675-.607-2.337.729-1.787,2.06-1.925,1.335-1.787.242-2.613-.849-1.649-2.787-2.337-4.123-6.324-6.3-6.737.122-1.925,1.7-12.648-.607-17.046-5.7-.413-1.093H106.192c.011.232.013.489.013.821v3.272l.617,4s.517,5.82,1.547,6.638,2.99,1.818,3.2,2.09,3.2,2.184,3.712,3.274a28.081,28.081,0,0,1,1.238,2.547,25.181,25.181,0,0,1-.1,3s.515.091-.515,0-2.166-.272-2.166-.272l-2.473.089s-1.134.091-.619.91a5.921,5.921,0,0,0,1.649,1.909,27.722,27.722,0,0,1,2.269,1.729s1.649,1.454,2.269,1.454,1.856-.091,1.856-.091.1-.908,1.237-.272a14.226,14.226,0,0,1,1.754,1.274c.826.544,1.856,1.091,2.269,1.454a2.921,2.921,0,0,1,1.237,1.909c.1,1,.206,2.819.206,2.819s-.928-.455-.928,2.09-.206,2.638,1.96,4,5.567,5.639,6.187,6.274,1.134,2.183,2.062,1.729a11.215,11.215,0,0,0,2.371-2.184s-1.649-2.545-1.856-2.817-3.505-2.819-3.505-2.819a.933.933,0,0,1-.928-1v-2.09s-.206-.91-.413-1.637-.721-2.183-.721-2.183-.1-1.272-.206-3.092a12.356,12.356,0,0,0-.826-3.547l-2.681-1.546s-.722-.453-1.545-2.545-1.341-2.364-1.445-3.183.1-2-.411-2.909a24.349,24.349,0,0,0-2.062-2.638c-1.341-1.727-2.062-2.817-2.99-4s-1.754-.183-1.754-2.456-.1-2.092,0-3.638a18.4,18.4,0,0,1,1.341-4.365,4.873,4.873,0,0,0,1.547,1.365,9.649,9.649,0,0,0,2.99.364,1.82,1.82,0,0,1,1.545,1.363,19.159,19.159,0,0,1,.311,2.183s-1.651-1.546-.1,1.454,2.577,5.092,2.577,5.092,1.754,5.456,2.888,6.274a30.667,30.667,0,0,1,2.99,2.456c1.547,1.363,3.3,1.182,1.96,1.909s-1.134.181-1.341.727a2.839,2.839,0,0,0,1.03,2.273,23.8,23.8,0,0,0,2.579.819c1.134.364.721-.091,1.134.364s-.413,1,1.237,1.454l1.649.455c.1,1.091.515.727-.1,1.456s-1.856,1.635-2.062,2a7.675,7.675,0,0,0-.1,2.092,3.765,3.765,0,0,0,1.856.272c1.134-.089,3.094-.272,3.609.364a22.308,22.308,0,0,1,2.164,2.819,10.344,10.344,0,0,0,1.238,3c.515.636,1.856,1.454,1.958,1.727s1.238,2.728,1.547,3.183a35.376,35.376,0,0,0,2.371,3.547c.517.455,4.229,3.272,4.331,3.727a7.7,7.7,0,0,1,0,3.457,18.26,18.26,0,0,1-1.545,3.455,22.271,22.271,0,0,0-1.651,2.182s.413,2.637.413,2.909a4.649,4.649,0,0,0,.826,2.275c.515.455,5.774,4.637,5.774,4.637s2.371,0,2.784.544,1.754,2.364,1.754,2.364l3.609,1.637,2.784.455,4.535,2.364s5.672,1.818,5.672,2.092-.721,1.546,3.4,3.092,7.94,2.819,8.455,3.364-1.649,1.454,2.269,1.546,4.846.819,6.8.364,2.888-.272,4.022-1.182a7.861,7.861,0,0,1,2.784-1.546c.515-.089,6.806,1.637,6.806,1.637l4.124,3.819s.236.729.539,1.578l.457-.063.824-1.635,2.337-2.728.894-1.152a32.036,32.036,0,0,0,3.712-.244,9.887,9.887,0,0,0,1.925-1.152L231,292.761l-1.305-1.7-2.131-1.576-.619-.424-1.305-.908-.069-.727s.069-.364.893-.485.963-.424.963-.424l-.069-1.091.413-1.032,3.574-.12h5.117l5.4-3.963c.115-.244.294-.461.547-.371.515.181,1.341.364,1.341.364l1.649-.183.928-1.454.824-3L245.5,274.3s-.515.274-.206-.364a3.437,3.437,0,0,1,.928-1.091,7.522,7.522,0,0,0,.1-2.092C246.226,269.573,245.5,269.3,246.846,268.573Z" transform="translate(0 0.215)"/><path class="a" d="M183.3,266.777v-1.94l1.993-.546-.138-1.274.206-1.635,3.024-1.334,3.016-3.463-.3-.265-2.062,1-2.68.455-1.134-.91a7.038,7.038,0,0,1,.552-.746l-1.034-.314-.688-8.972-.482-1.091h-5.292l-3.574.12-.413,1.032.069,1.091s-.138.3-.963.425-.893.485-.893.485l.069.727,1.305.908.619.424,2.131,1.576,1.305,1.7.138,1.152a9.89,9.89,0,0,1-1.925,1.152,32.03,32.03,0,0,1-3.712.244l-.894,1.152-2.337,2.728-.824,1.635-.457.063a16.431,16.431,0,0,0,1.008,2.423,7.587,7.587,0,0,0,2.784,3.183c2.062,1.454,3.607,2.182,4.331,2a5.239,5.239,0,0,1,2.784-.363c.084.019.173.046.266.074l.833-1.015Z" transform="translate(53.062 38.748)"/><path class="a" d="M187.623,258.965l-1.307-.971-1.649.183-.755.364-1.582-.91-.136-1.03-4.056.074v.289l-3.369,1.879-.833,1.015a22.237,22.237,0,0,1,3.033,1.38l1.547,1.546,5.361.546s.928-.274,2.269-.638a6.039,6.039,0,0,1,1.257-.187l-.123-1.845Z" transform="translate(58.226 48.561)"/><path class="a" d="M189.736,268.3l.482-2,.069-1.454,1.305-.788,3.849-.183s1.032-.242,1.787-.423a7.083,7.083,0,0,0,1.445-.546l1.581-1.515,1.443-1.7,3.849-.727,2.96-2.454-.279-.76-2.166-.544-1.237-1.365-2.475-1.454-2.784-.183-2.371.091-2.269-1-1.856.636-3.3.091h-4.948l-.524-.463-3.016,3.463-3.024,1.334L178.051,258l.138,1.274-1.993.546v1.65l4.056-.074.136,1.03,1.582.91.755-.364,1.649-.183,1.307.971-.344,1.7.123,1.845c1.023-.053,1.969.112,2.044.369.065.234.344,1.066.534,1.728l.325-.063Z" transform="translate(60.169 43.77)"/><path class="a" d="M191.875,278.331a2.732,2.732,0,0,0,1.7.819,8.652,8.652,0,0,0,2.062-.183,3.723,3.723,0,0,0,.98-1l1.8-.046,2.347.978c-.056-.506-.078-.887-.078-.887l1.547-1.729a2.244,2.244,0,0,0,0-2.182,37.792,37.792,0,0,0-2.475-3.819l.721-.364a4.489,4.489,0,0,0,1.856-.091c.413-.272.515.091.722-.455a7.237,7.237,0,0,0,.1-2l-.826-1.637-.928-1.909a2.136,2.136,0,0,1,.619-2.454,10.726,10.726,0,0,0,1.958-1.637l.1-2.819-1.062-2.878-2.96,2.454-3.849.727-1.443,1.7-1.581,1.515a7.087,7.087,0,0,1-1.445.546c-.755.181-1.787.423-1.787.423l-3.849.183-1.305.788-.069,1.454-.482,2-1.374,1.03-.325.063a4.326,4.326,0,0,1,.188.817c0,.364.515,3.183.515,3.183l1.856,2s1.237,1.546,2.475,3.364a15.132,15.132,0,0,1,1.32,2.429l.9-.474A10.884,10.884,0,0,1,191.875,278.331Z" transform="translate(65.642 46.245)"/><path class="a" d="M202.915,281.134l.413-2.046-.258-1.317-.463-1.911.772-.364,2.179-.3c-.534-.619-.993-.944-1.406-1.428-.617-.727-2.267-1.274-3.607-2.184s-1.96-1.182-2.269-2.182a10.817,10.817,0,0,1-.335-1.841l-2.347-.978-1.8.046a3.725,3.725,0,0,1-.98,1,8.661,8.661,0,0,1-2.062.183,2.732,2.732,0,0,1-1.7-.819,10.891,10.891,0,0,0-2.062-.091l-.9.474c.355.813.536,1.392.536,1.392l-.413,1.635s-.928.546.206,1.637a20.979,20.979,0,0,0,2.681,2.092l1.545-.091s.826-1.363,1.134-1.454a8.583,8.583,0,0,1,1.858.272s.617,1.454.722,1.818,1.443,1.365,1.443,1.365l1.856,1.546.206,2.819.619.91s.824-.183,1.03-.546.413-.638.619-.364a4.889,4.889,0,0,1,.928,1.363c.1.455-1.134,1.456.413,1.456h1.357l.188-.773Z" transform="translate(68.47 57.582)"/><path class="a" d="M222.289,283.411l.361-1.182a1.334,1.334,0,0,1,1.186-.32,11.645,11.645,0,0,0,1.547.274s.05-.455.1-.91a10.083,10.083,0,0,0,.052-1.182,9.652,9.652,0,0,0-.1-1l-.361-1.411.431-.78c-.392-.44-.907-.95-1.462-1.493a35.6,35.6,0,0,1-2.475-2.819,3.716,3.716,0,0,0-1.753-.908L216.1,271.5l-2.164.091-1.134.727s-1.754.636-3.505,1.365-2.681,1.182-3.507,1.182h-3.505l-3.2-.183s.515-.819-.413-2.364a8.469,8.469,0,0,0-.863-1.209l-2.179.3-.772.364.463,1.911.258,1.317-.413,2.046.1,1.319-.188.773h2.561c1.03,0,4.948.636,4.948.636a1.06,1.06,0,0,0,.619.819,6.809,6.809,0,0,0,2.165.455l1.032,1.818s2.269,1.454,2.784,1.182.826-.544.826-1.091a3.441,3.441,0,0,0-.311-1.909c-.411-.819-1.339-1.456-.721-1.909a2.978,2.978,0,0,1,1.547-.729c.826-.181,1.341-.272,1.443-.544a6.659,6.659,0,0,0,0-1.454s-.515-.455.31-.91a11.261,11.261,0,0,1,2.886-1c.619-.09,2.062.91,2.577,1.093a3.065,3.065,0,0,1,1.445,1c.309.455.824.819.928,1.274a4.313,4.313,0,0,1-.1,1.363s-.411,1.546.1,2a13.782,13.782,0,0,1,1.395,3.236l.357-.053Z" transform="translate(76.214 61.67)"/><path class="a" d="M230.284,267.227l-1.5.681-1.856,1.137-.413.864-.309,1.909-1.5,3.364s-.721,1.683-.928,2.229a16.147,16.147,0,0,0-.413,2.046,8.484,8.484,0,0,1-.567,1.091l.052,1,2.114,1.136,2.319,1.909.258,2.364-.413,2.456.465,2.545,1.5.864s3.351.729,3.505.729,4.331.272,4.331.272l2.784.409a17.613,17.613,0,0,1,1.237,1.273c.052.135,1.134,1.727,1.291,2a13.345,13.345,0,0,0,2.473,1.136,13.53,13.53,0,0,0,2.012.32,31.98,31.98,0,0,0,4.124-.455c.617-.183,1.752-.363,1.752-.363h.206l.413,2.454-1.754,3.546-1.134,4,.206,1.273,1.649,2.545.413,1.182-.515,1.365-1.649,1.274-.515,2.09,1.856.364.928.183,2.577,1.909.1,1.454.826,4.456,1.958,2.637,2.373,1.091,2.886-.908a17,17,0,0,0,4.331-1.728c1.96-1.182,4.435-2.728,4.435-2.728a7.025,7.025,0,0,1,1.958-2.182,16.459,16.459,0,0,0,1.649-.819,1.314,1.314,0,0,0,.517-.729l-.413-1.091-1.649.091-1.96-.091-.619-.908-.309-2.273s.413.364,0-2,.1-2-.413-2.364-2.164-2-2.164-2a12.523,12.523,0,0,1,3.3-.455l2.371,1.091h1.651l2.062-.181,2.165-1.637a11.044,11.044,0,0,1,2.784-.638,33.317,33.317,0,0,0,5.052-1.363l1.547-1,.413-1.091-.1-1.454-.722-1.729-1.237-1.635-1.443-2.184.1-1.546,2.99-3.183.206-1.363-.206-1.909.826-1.909,2.577-1.093.389-.988c-.456.143-.8.261-.8.261l-2.371-.272-.928-1.909.617-2-2.99-2.911-2.577-1.635-2.784.089-1.856-.455-1.856-2.273a6.188,6.188,0,0,1,.824-.544c.619-.364.93-.364,1.238-.546a5.527,5.527,0,0,0,.824-.727l-1.545-1.274s-1.341-.091-2.373-.091-2.784.091-2.784.091l-2.062,1.091-3.4-.453a.4.4,0,0,0-.515.089,7.408,7.408,0,0,1-1.237,1.365c-.413.272-1.649.91-1.649.91l-2.888-.091s-1.649-1.456-1.856-1.728a3.3,3.3,0,0,0-1.134-.544l-4.744-.183-1.649.636-2.784.364s-1.134.91-1.547-.453-.721-2.819-.721-2.819l-1.649-1.82-3.918-.364-1.547-1.454a10.015,10.015,0,0,0-.619-1.546,8.428,8.428,0,0,0-1.649-.91s-1.03.091-1.134.546a12.489,12.489,0,0,0-.206,2.183c0,.727-1.237,2.09-1.237,2.09l-2.577,1-.1,1.274s-.413,2.092-.413,2.638a2.685,2.685,0,0,0,.517,2.182,13.736,13.736,0,0,1,1.132,1.454s.311.183,0,1a6.538,6.538,0,0,1-.617,1.454c-.206.272-2.166,1.274-2.577,1.091s-2.579-1.727-2.579-1.727l-.1-2.638s.722-.908,1.134-1.363.309-3,.206-3.274-1.134-1.909-1.134-1.909-.721-1.454.619-2c.859-.35,1.5-.55,1.967-.72l-.472-.053Z" transform="translate(100.234 55.121)"/><path class="b" d="M211.282,330.776a12.99,12.99,0,0,0,1.718.91,23.621,23.621,0,0,1,1.649,1.879l1.925.607,2.337.423h.688l1.168-.605.482-.122,2.337.244,3.849,2.182,2.544.425a11.014,11.014,0,0,1,1.374,1.393c.138.3.757,2,.757,2l1.374,1.213c.55.485,2.544,1.879,2.544,1.879l.482,1.152-.069,1.7.138,1.576,1.718.666s.206-.061.893-.181,2.475-.183,2.475-.183l1.718-.605a20.823,20.823,0,0,1,2.475.424c.482.181,3.712.666,3.712.666l1.856.727.963.546-.757,1.818-2.2,5.092,2.131.666,2.613,2.3,1.581-7.7,1.032-9.153s0-1.032.069-1.637a14.419,14.419,0,0,0-.482-2.728s-.413-1.213-.55-1.456a7.893,7.893,0,0,0-1.374-.969l-.619-1.4V332.96a4.608,4.608,0,0,1,1.17-.849c.411-.122,2.336-.3,2.336-.3l.757-.485.069-1.576-.275-.849-2.131-.666h-.893l-.482-1.152a13.333,13.333,0,0,1,1.168-2.183c.206-.061,3.505-.3,3.78-.3s2.475-.061,2.475-.061,1.307-.727,1.581-.91,1.238.546,1.238.546l1.1-.181.826-.607.755-.3s.482,1.393.688,1.818a4.349,4.349,0,0,1,.482,2.062c-.138.485-.413,1.576-.413,1.576s1.993.544,2.2.544a6.867,6.867,0,0,0,1.184-.744l-.978-1.315-.826-4.457-.1-1.454-2.577-1.909-.928-.183-1.856-.364.515-2.09,1.649-1.274.515-1.365-.413-1.182L264.8,310.2l-.206-1.274,1.134-4,1.754-3.546-.413-2.454h-.206s-1.134.181-1.752.364a31.987,31.987,0,0,1-4.124.455,13.532,13.532,0,0,1-2.012-.32,13.348,13.348,0,0,1-2.473-1.136c-.156-.272-1.238-1.864-1.291-2a17.64,17.64,0,0,0-1.237-1.273l-2.784-.409s-4.176-.272-4.331-.272-3.505-.729-3.505-.729l-1.5-.864-.465-2.545.413-2.456-.258-2.364-2.319-1.909-2.114-1.136-.052-1a8.489,8.489,0,0,0,.567-1.091,16.138,16.138,0,0,1,.413-2.046c.206-.546.928-2.229.928-2.229l1.5-3.364.309-1.909.413-.864,1.856-1.136,1.5-.682.723-.137.472.053a3.246,3.246,0,0,0,.61-.28,6.759,6.759,0,0,0,.928-.819l-.206-1.365L244.69,263l-2.373.908-1.134.727-.515,1.456-1.03,1.546a14.561,14.561,0,0,1-3.094,2,23.957,23.957,0,0,1-2.99,1.182,7.73,7.73,0,0,0-1.649-.091,7.457,7.457,0,0,0-1.341.636l-.928.638-1.341-1.182v-.91l-1.443.091-.928,1-1.238,1.909-1.134,2.456.413,3.092-1.03,1.091-1.856.91-.517,1.818-.824,1.182-1.238.455-.1,1.091s.413,1.729.515,2-.619,1.091-.619,1.091l-1.03-.089-.826-1.546a2.471,2.471,0,0,0-.1-1.456,5,5,0,0,0-.6-.781l-.431.781.361,1.411a9.654,9.654,0,0,1,.1,1,10.093,10.093,0,0,1-.052,1.182c-.052.455-.1.91-.1.91a11.631,11.631,0,0,1-1.547-.274,1.334,1.334,0,0,0-1.186.32l-.361,1.182-.413,1-.357.053c.154.449.255.765.255.765s.619-.364.619.91,0,1.727.411,1.727a1.464,1.464,0,0,1,1.341.727,11.584,11.584,0,0,1,1.238,3.274c0,.546.1,4.182,0,4.729s.206,1.909-.515,3.091a6.428,6.428,0,0,0-1.032,2.092,13.472,13.472,0,0,0,1.032,2l1.237,1.18-1.341,1.365a1.714,1.714,0,0,0-1.96,1.182c-.411,1.454-.309,2.364-.721,2.547a22.381,22.381,0,0,1-2.269.544,2.584,2.584,0,0,0-2.164.546c-.721.819-1.341,1-1.134,1.909a4.23,4.23,0,0,0,1.032,1.727s.928,1,.617,1.365a6.62,6.62,0,0,1-1.237,1.091c-.413.272-.928,0-.928.91a8.715,8.715,0,0,0,.309,2.09l3.987,2.305A7.315,7.315,0,0,1,211.282,330.776Z" transform="translate(85.984 54.345)"/><path class="a" d="M204.625,323.651l-.824,1.879-.138,1.03,1.237,1.032,1.514.181,1.993.122,1.168,1.515,1.17.971,1.168-.788,2.269-3.88,1.512-4.365,3.78-.849,4.606-.727,3.574-1.879s3.232-3.213,3.576-3.638,1.925-3.455,1.925-3.455l-.206-3.213-1.03-2.21-3.369-1.911-2.337-.244-.482.122-1.168.605h-.688l-2.337-.423-1.925-.607a23.614,23.614,0,0,0-1.649-1.879,12.983,12.983,0,0,1-1.718-.91,7.316,7.316,0,0,0-.757-.908l-3.987-2.305a3.433,3.433,0,0,1-.722,2,19.979,19.979,0,0,1-1.753,1.091s-.928.274-1.237-.089a3.275,3.275,0,0,0-.826-.638s-1.237-.089-1.649.546a4.961,4.961,0,0,0-.928,1.909c-.206.91-.413,2.545-.413,2.545l-1.134,2.73-1.856,2.364.1,5.545s-.721.364-.619,1.729a3.217,3.217,0,0,0,.515,1.818l1.96.183s1.341-.727,1.856-.91,1.547-.364,1.753,0,.824,2.273.824,2.273a18.217,18.217,0,0,1-2.886,1.729l-.121.049.121.405Z" transform="translate(81.023 84.992)"/><path class="a" d="M257.929,402.747l.826-1.454.413-2.456,1.237-2.273,3.609-1.818,1.134-1.182-1.753-3.274-1.856-2.273-.1-2.182,1.545-2,1.134-2.728-.1-2.819L263.5,375.2l1.547-2.819.928-2.182L263.6,366.01l-1.134-1.909-1.753-1.546-2.886-1.091a1.4,1.4,0,0,1-.413-1c0-.636.1-2.182.1-2.182a11.762,11.762,0,0,0,.206-2.273c-.1-.455-1.237-1-1.237-1s-2.475-.089-2.99.455-1.547,1.82-1.547,1.82-.617.727-1.03.181-2.062-2.182-2.062-2.182l-1.754-1.82-2.371-.453-.206-.638-.311-1.818-1.649-3.183s-1.958-3.455-2.269-4.274a21.464,21.464,0,0,1-.928-3.183c-.1-.727,1.238-2.273,1.238-2.273l1.856-.819,1.134-1.637.411-2.819,1.651-5.092,2.886-1.363,3.3-.636,3.092-1.637,1.547.453,2.681,1.456.6-1.382L258,322.6l-2.131-.666,2.2-5.092.757-1.818-.963-.546L256,313.755s-3.23-.485-3.712-.666a20.818,20.818,0,0,0-2.475-.424l-1.718.605s-1.787.061-2.475.183-.893.181-.893.181l-1.718-.666-.138-1.576.069-1.7-.482-1.152s-1.993-1.393-2.544-1.879l-1.374-1.213s-.619-1.7-.757-2a11.01,11.01,0,0,0-1.374-1.393l-2.544-.425-.48-.27,1.03,2.21.206,3.213s-1.582,3.031-1.925,3.455-3.576,3.638-3.576,3.638l-3.574,1.879-4.606.727-3.78.849-1.512,4.365-2.269,3.88-1.168.788-1.17-.971-1.168-1.515-1.993-.122-1.514-.181-1.237-1.032.138-1.03.824-1.879-.136-1.454-.121-.406a22.251,22.251,0,0,0-4.52,2.406c-.617.636-2.577,1.182-2.577,3.272s.515,3.638.826,3.729a2.066,2.066,0,0,1,1.237.908,8.649,8.649,0,0,1,1.134,2.184c.1.544.309,1.727,0,1.818s-1.341.091-1.649.636-.826.274-.619,1.182,3.609,2.638,3.609,2.638l2.475,1.182,2.784,3.092s1.443,3.455,1.856,4.182a6.978,6.978,0,0,0,1.649,1.637,23.169,23.169,0,0,1,2.166,3c.1.274,3.4,11.275,3.4,11.275s.413,3.547.721,3.821,1.753,2.09,1.96,2.364a11.219,11.219,0,0,1,1.134,2.726c0,.455-.515,1.637.1,2a39.05,39.05,0,0,1,3.092,2.819s1.341,2.273,1.134,2.819-.413,1-.826,1.182-.928,1.728-.928,1.728,1.445,2,1.547,2.273,4.95,5.456,4.95,5.456l4.64,3.092,5.98,2.273,5.259,4.365,3.4,3.91,4.02,3.364s-.008.2-.019.506l1.566-.506Z" transform="translate(79.55 89.007)"/><path class="a" d="M279.644,307.18s-.619-2.545-.755-2.909a15.468,15.468,0,0,0-1.583-1.881L275.451,301,274.9,299.6l.069-2.364.688-1.334,1.307-.666,1.237-1.213.275-1.94.069-2.242.132-.723a2.108,2.108,0,0,1-.407-.52,16.438,16.438,0,0,0-2.373-2.728l-2.577-.455s-1.443-.364-1.649-.91-.826-3-1.03-4A8.394,8.394,0,0,0,269.3,277.6a8.852,8.852,0,0,0-3.2-2.364,7.944,7.944,0,0,0-2.086.466l-.389.988-2.577,1.093-.826,1.909.206,1.909-.206,1.363-2.99,3.183-.1,1.546,1.443,2.184,1.237,1.635.721,1.728.021.286,1.837.078,1.925,1.576a10.414,10.414,0,0,1,.824,1.454,10.153,10.153,0,0,0,.894,1.456l.275,1.7-.963,3.152-.894,1.759.413,3.092a22.693,22.693,0,0,1,.275,2.484v3.092l1.925,1.7,2.75.788,2.544-.181,3.092-.91,2.269-1.152,2.475-.607,1.586-.055-1.311-2.914Z" transform="translate(129.736 65.392)"/><path class="a" d="M287.516,299.07l-.413-1.454.344-2.425v-1.454l-1.1-1.7-.688-2.182.688-1.94.619-1.82-.217-1.005a13.41,13.41,0,0,0-2.051-.721,19.71,19.71,0,0,0-2.888-.183l-2.681.638-5.052-.183-1.237-1.363L271.707,283a1.755,1.755,0,0,1-1.242-.48l-.132.723-.069,2.242-.275,1.94-1.237,1.213-1.307.666-.688,1.335-.069,2.364.551,1.394,1.856,1.393a15.464,15.464,0,0,1,1.582,1.881c.136.364.755,2.909.755,2.909l.826,2.85,1.311,2.914,1.85-.065.344-.183.757-1.454.136-.849,2.613-.242,1.993.3,1.17-.183,2.906.457,1.973-3.244Z" transform="translate(137.949 71.987)"/><path class="a" d="M289.9,291.061l-1.341-1.363-2.475-3.364-2.99-.819a3.389,3.389,0,0,1-2.99-.546,11.52,11.52,0,0,0-1.969-1.1l.217,1.005-.619,1.82-.688,1.94.688,2.182,1.1,1.7v1.454l-.344,2.425.413,1.454-.206,1.82-1.973,3.244.186.029a4.067,4.067,0,0,0,1.718.971,34.548,34.548,0,0,0,3.851.727l1.924-.244,1.374-1.152s.619-1.152,1.168-2.06,1.993-3.941,1.993-3.941l1.514-1.576,1.668-4.049Z" transform="translate(146.569 73.205)"/><path class="b" d="M427.225,357.39c.413-.638.928-1.093.619-2.092a19.538,19.538,0,0,0-1.547-3l-.824-3.183-1.134-1.909-2.166-1.637-3.814-.274a6.132,6.132,0,0,1-2.269,0c-.515-.272-2.475-1.818-2.475-1.818a32.706,32.706,0,0,1-2.888-4.091,25.965,25.965,0,0,0-3.092-4.093H406.4l-2.475-1.091-1.445-.819h-8.453l-2.681-.727-2.784-.183-4.641-1.909-3.195,1.091L380,332.747h-1.752l-.826,1-.824,1.182s-2.062-.364-2.062-.636-.619-1.82-.311-2.183a10.788,10.788,0,0,1,2.269-1.091l.928-.819s-.515-1.454-.824-2.364-1.341-3.638-1.341-3.638h-1.753l-.928.819s-1.443-.727-1.443-1.272-.928-1.456-.928-1.456l-4.537-1.091-5.156-1-2.062.181a10.889,10.889,0,0,0-1.132,1.365,36.01,36.01,0,0,1-3.3,2.454l-1.03,1.274-1.856.638-7.219.908-5.567-1.635-.928-.819h-2.784l1.545-2.638,1.651-1.818,1.339-2.819a4.516,4.516,0,0,1,1.445-2.182c1.03-.727,2.371-1.637,2.371-1.637l3.609-2s0,.091.206-.636a7.18,7.18,0,0,1,.928-2.092,9.667,9.667,0,0,0,.722-2.182l-2.99-2.547-1.547-3a33.252,33.252,0,0,0-.928-3.729c-.309-.636-2.269-4.818-2.269-4.818l.309-1.546-.668-.169-1.668,4.049-1.514,1.576s-1.443,3.031-1.993,3.94-1.168,2.06-1.168,2.06l-1.374,1.152-1.925.244a34.535,34.535,0,0,1-3.851-.727,4.068,4.068,0,0,1-1.718-.971l-3.092-.485-1.17.183-1.993-.3-2.613.242-.136.849-.757,1.454-.344.183-3.436.12-2.475.607-2.269,1.152-3.092.91-2.544.181-2.75-.788-1.925-1.7v-3.092a22.691,22.691,0,0,0-.275-2.484l-.413-3.092.894-1.759.963-3.152-.275-1.7a10.154,10.154,0,0,1-.895-1.456,10.413,10.413,0,0,0-.824-1.454l-1.925-1.576-1.837-.078.084,1.169-.413,1.091-1.547,1a33.316,33.316,0,0,1-5.052,1.363,11.044,11.044,0,0,0-2.784.638l-2.165,1.637-2.062.181h-1.651L274,290.827a12.524,12.524,0,0,0-3.3.455s1.649,1.637,2.164,2,0,0,.413,2.364,0,2,0,2l.309,2.273.619.908,1.96.091,1.649-.091.413,1.091a1.314,1.314,0,0,1-.517.729,16.466,16.466,0,0,1-1.649.819,7.024,7.024,0,0,0-1.958,2.182s-2.475,1.546-4.435,2.728a17,17,0,0,1-4.331,1.729l-2.886.908-2.373-1.091-.98-1.321a6.86,6.86,0,0,1-1.185.744c-.206,0-2.2-.544-2.2-.544s.275-1.091.413-1.576a4.348,4.348,0,0,0-.482-2.062c-.206-.424-.688-1.818-.688-1.818l-.755.3-.826.607-1.1.181s-.963-.727-1.238-.546-1.581.91-1.581.91-2.2.061-2.475.061-3.574.242-3.78.3a13.336,13.336,0,0,0-1.168,2.183l.482,1.152h.893l2.131.666.275.849-.069,1.576-.757.485s-1.925.181-2.336.3a4.608,4.608,0,0,0-1.17.849V314.8l.619,1.4a7.889,7.889,0,0,1,1.374.969c.138.244.55,1.456.55,1.456a14.42,14.42,0,0,1,.482,2.728c-.069.605-.069,1.637-.069,1.637l-1.032,9.153-1.581,7.7-.844-.744-.6,1.382-2.681-1.456-1.547-.453-3.092,1.637-3.3.636-2.886,1.363-1.651,5.092-.411,2.819-1.134,1.637-1.856.819s-1.341,1.546-1.238,2.273a21.461,21.461,0,0,0,.928,3.183c.311.819,2.269,4.274,2.269,4.274l1.649,3.183.311,1.818.206.638,2.371.453,1.754,1.82s1.649,1.637,2.062,2.182,1.03-.181,1.03-.181,1.032-1.274,1.547-1.82,2.99-.455,2.99-.455,1.134.546,1.237,1a11.762,11.762,0,0,1-.206,2.273s-.1,1.546-.1,2.182a1.4,1.4,0,0,0,.413,1l2.886,1.091.712.628.422.008,1.856-.545h4.022l2.888-1.454a5.176,5.176,0,0,1,1.339-1.093c.517-.181,1.238-.364,1.238-.364l1.856-1.909,1.547-1.363,1.03-.727,2.371-.546,4.435-.091.1.91.311,1.546s.1,2.637,0,3.183-.1,4.729-.1,4.729l1.134,2.545,1.134,2,2.371,1.091,5.052.819,4.435,2.092,1.547,2.09.824,1.274,3.092.455,1.341.091.413.181,1.134,1.728.206,2.182,1.65,2.637s-1.237,3-1.237,3.274.515,4.093.515,4.093l.206,1.182,1.96.544,4.433.364,1.754.819s1.339,1.093,1.339,2.183.311,1.818.311,2.364a10.106,10.106,0,0,0,.824,2.273c.206.544.517,1.182.517,1.182l-.619,4.818-.721,3,1.03,2.09.206,1.093-1.649,1.454s.206,2.545.206,3v3.455l-.928,1.546s-.206,1.546-.206,2a4.039,4.039,0,0,0,.413,1.274l3.3.636,3.816.183h1.443s1.547,1.091,1.547,1.637.309.727.309,1.454v4l.206.819,2.062.727a2.855,2.855,0,0,1,1.754.091c.824.364,1.237,4.091,1.237,4.091a7.251,7.251,0,0,1-.309,2.364c-.311.364-1.341,1.365-1.341,1.365l1.134,2.09,1.237,1.365.413,3.183-1.237,3.606-2.337,1.576-3.713,1.456-1.512,2.06-3.024,2.305-2.475,1.574-.826,1.093-2.886,1.94-2.613,1.576-1.649,1.574.138.971,3.161,1.576,1.925,2.425,3.163,1.576,1.649.849s3.3,3.031,3.436,3.636c.117.516,4.018,4.458,5.177,5.62a13.767,13.767,0,0,1,1.662-1.5c3.4-2.637,3.92-3,5.052-3.91s2.475-2.273,3.816-3.366,2.475-4.455,3.816-5.728a46.991,46.991,0,0,1,5.155-3.638c1.96-1.363,7.734-6.728,7.734-6.728s1.753-2.819,1.753-4.82a35.323,35.323,0,0,0-.517-4.912s-3.918-1.091.311-4.182,4.433-2.819,5.259-3.727,3.3-3.729,4.227-4.182.413-.091,3.3-.546,2.681.364,4.228-.91,4.02-3.092,4.02-3.092l5.878-2.819s3.3.364,4.743.364,3.3,1.82,5.155-.272,2.577-3,3.507-3.547,1.649.638,2.473-2.092.515-3.181,2.166-4.727,2.269-1.548,2.99-2.728.515-2.364,1.134-3.366,2.577-2.364,3.092-3a4.014,4.014,0,0,0,1.445-3c0-1.727-.723-2.09.1-3.727a8.286,8.286,0,0,1,2.164-2.637,6.162,6.162,0,0,0,1.238-1.637,27.152,27.152,0,0,0,1.134-2.819l1.237-2.545s-.413-9-.1-9.549,2.371-5.273,2.371-5.273l.721-4.456s-.515-1.909.722-2.364,1.238-.545,1.651-.364.617.727,1.752.091a10.536,10.536,0,0,0,2.888-3.364c.309-.638,1.237-2.547,1.237-2.547l1.856-3.364s1.754-1.093,2.475-1.637,1.96-1.729,1.96-1.729l6.7-9.183s3.2-3.274,3.3-4.093a7.4,7.4,0,0,0-.413-2.637C426.916,359.3,426.814,358.026,427.225,357.39Z" transform="translate(98.325 74.077)"/><path class="b" d="M231.782,378.147l.826,2.819,1.547,1.454,1.03,1.546-.206,2.728-.617,2.728a13.723,13.723,0,0,0-.206,2.364c.1.364,1.134,2.364,1.134,2.364l1.03,2.909.826,5.092v1.637l1.649.819h1.856l1.649-1.273,2.888-2.454,1.341-2.456,1.237-.727.826.091v.727c0,.272,1.134,1.091,1.134,1.091l2.371.272,1.341.455.413.727.515,1.546,1.237.91.928-.455,1.96-1.637,1.341-1.272,4.535.089a5.7,5.7,0,0,0,1.856-1c.311-.455,1.341-1.546,1.341-1.546l.619-1.909.515-2.092.826-1.818,3.2-4,.928-.546,2.475-.089,4.639-1.637,2.577-.091,1.649.183,1.547.453,3.561,3.59,1.491-1.315-.206-1.093-1.03-2.09.721-3,.619-4.818s-.311-.638-.517-1.182a10.1,10.1,0,0,1-.824-2.273c0-.546-.311-1.274-.311-2.364s-1.339-2.183-1.339-2.183l-1.754-.819-4.433-.364-1.96-.545-.206-1.182s-.515-3.819-.515-4.093,1.237-3.274,1.237-3.274l-1.649-2.637-.206-2.182-1.134-1.729-.413-.181-1.341-.091-3.092-.455-.824-1.274-1.547-2.09-4.435-2.092-5.052-.819L259,344.5l-1.134-2-1.134-2.545s0-4.184.1-4.729,0-3.183,0-3.183l-.311-1.546-.1-.91-4.435.091-2.371.546-1.03.727-1.547,1.363-1.856,1.909s-.721.183-1.238.364a5.175,5.175,0,0,0-1.339,1.093l-2.888,1.454H235.7l-1.856.545-.422-.008,1.041.918L235.6,340.5l2.371,4.184-.928,2.182-1.547,2.819.517,3.091.1,2.819-1.134,2.728-1.545,2,.1,2.182,1.856,2.273,1.754,3.274-1.134,1.182-3.609,1.818-1.079,1.984.459.836Z" transform="translate(107.552 114.517)"/><path class="b" d="M252.706,380.517l4.124,3.183,5.465,2.182,5.155,2.547,3.094,1.818,2.165,2.273-.309,1.546-3.712,3.366-2.888,3.091-.515,1.546,1.856,1.363,4.64.546,4.022-.455s3.505-.091,3.712-.364,1.649-1.909,1.649-1.909l2.164-2.364,2.475-2.273,1.238-2.911,1.878-1.306-.229-.421s1.03-1,1.341-1.365a7.25,7.25,0,0,0,.309-2.364s-.413-3.727-1.237-4.091a2.855,2.855,0,0,0-1.753-.091l-2.062-.727-.206-.818v-4c0-.727-.309-.91-.309-1.454s-1.547-1.637-1.547-1.637h-1.443l-3.816-.183-3.3-.636a4.038,4.038,0,0,1-.413-1.274c0-.455.206-2,.206-2l.928-1.546v-3.455c0-.455-.206-3-.206-3l.158-.139-3.561-3.59-1.547-.453-1.649-.183-2.577.091-4.639,1.637-2.475.089-.928.546-3.2,4-.826,1.818-.515,2.092-.619,1.909s-1.03,1.091-1.341,1.546a5.7,5.7,0,0,1-1.856,1l-1.125-.023.61,1.116Z" transform="translate(122.305 141.064)"/><path class="a" d="M260.908,393.325l-1.1,3.274-.826,2.606v3.333l-.893,2.73-2.337,1.152-.826,1.879-.548,3.213.911,1.173a7.97,7.97,0,0,1,1.941.282c1.545.364,4.742,1,4.742,1a48.86,48.86,0,0,0,6.084,1.182c1.341,0,4.744,1,6.908-.636s2.062-.638,4.331-3.364c1.8-2.164,1.854-3.47,3.492-5.233-1.158-1.161-5.06-5.1-5.177-5.62-.138-.605-3.436-3.636-3.436-3.636l-1.649-.849-3.163-1.576-1.925-2.425-3.161-1.576-.022-.158-2.521.461Z" transform="translate(127.369 169.175)"/><path class="b" d="M323.31,389.646l-1.237-1.365-.906-1.67-1.878,1.306-1.238,2.911-2.475,2.273-2.165,2.364s-1.443,1.637-1.649,1.909-3.712.364-3.712.364l-4.022.455-4.639-.546-1.856-1.363.515-1.546,2.888-3.091,3.712-3.366.309-1.546-2.164-2.273-3.094-1.818-5.155-2.547-5.465-2.182-4.124-3.183L281.345,369l-.61-1.116-3.41-.067-1.341,1.272-1.96,1.637-.928.455-1.237-.91-.515-1.546-.413-.727-1.341-.455-2.371-.272s-1.134-.819-1.134-1.091v-.727l-.826-.091-1.237.727-1.341,2.456L259.795,371l-1.649,1.274h-.061l-.351,2.273-.413,2-4.535,2.728-1.856,2.183-.206,1.818.824,2.911-.824,3.819-1.238,2.182a24.785,24.785,0,0,1,.413,2.547v.545l-1.237,1.273-1.445.727-2.269,2.911-2.473,3.638-2.269,3.455-1.238,2.545s-1.649,1.454-.206,1.818a2.71,2.71,0,0,1,1.858,1.274v1.091s.206.546-.619.91.619-.91-.826.364A15.33,15.33,0,0,0,236.7,418.2l-.2,3.819.411,2.728s.619.181,1.238,2,0,5.273,0,5.273l-.206,1.637-.619,1.454-1.856,2.547-2.269,3.819-2.681,4.182-1.443,3.274-2.062,3.819v2.364l.619,1.091v2l-1.032,2.547-1.856,2.909a1.33,1.33,0,0,0-.824.91c-.206.727-.826.181-.619,2a10.723,10.723,0,0,1,0,2.909l-.309,3-.928,2.364-.723,1.546-.1.727-.721,1.091.721,1.454.1,1.82-.309,2-.515,1.454.619,1.909.515.545v1l-2.166,1.274a3.857,3.857,0,0,0-.309,1.454l.206,1.182a4.647,4.647,0,0,1-.413,1.454c-.309.546-.824.91-1.03,1.365a17.052,17.052,0,0,0-.206,3l.1,1.454-2.371,6.185-.928,1.727-1.238.91-1.752,1.454-.1,4.182-.411,1.182s-.311,2.819.515,4.184a5.322,5.322,0,0,1,.824,1.635l3.094,3.274,1.237.636,1.032,1.728,5.084-.87c.231-.32.2-.4,1.1-.767,1.341-.545,1.752-.181,1.752-1.182a8.541,8.541,0,0,0-.824-2.545c-.206-.727-.413-.91-.311-1.365s2.166-1.454,3.094-2.273a18.248,18.248,0,0,1,2.164-1.909,8.316,8.316,0,0,0,2.475-4.546s.826-.546,2.784-1.546,1.547,1,5.363-2.547,4.227-4.093,4.227-4.093l-2.886-1.727-3.713-4.911a2.6,2.6,0,0,1,.413-2.454c.928-.91,2.373-2.092,2.373-2.092L246.7,490.4l3.2-3.455.619-3.274,1.958-3a3.575,3.575,0,0,1,2.577-1.456c1.547,0,1.445.364,2.062-.272a8.014,8.014,0,0,0,1.032-2.819,2.619,2.619,0,0,0-1.237-.636c-.517,0-.517,0-1.341.455a6.923,6.923,0,0,1-1.856.636s-1.238-.91-1.134-1.454.617-.91.824-1.182.517-.272.311-1.454a14.158,14.158,0,0,1,.411-3.821l2.99.455a11.949,11.949,0,0,0,1.547.819c.517.183,3.609.546,3.609.546a16.533,16.533,0,0,0,1.649-1.091,18.716,18.716,0,0,0,1.96-1.82c.617-.727.824-1.091,1.649-2s2.165-1.727,2.062-2.454a18.931,18.931,0,0,0-1.134-2.911l.824-.819.723-.364,3.607.364a54.7,54.7,0,0,0,7.219-1.363c1.649-.638,5.052-.455,6.289-1.182a9.145,9.145,0,0,0,3.3-2.547c1.134-1.454,1.03-2.364,2.164-3.091s1.341-.636,2.062-1.182a24.79,24.79,0,0,0,1.96-1.818,1.534,1.534,0,0,0,.206-1.182,4.439,4.439,0,0,0-.826-1.182s-.928-1.182-.721-2a7.063,7.063,0,0,1,.619-1.546,6.306,6.306,0,0,0,.411-1.909,22.538,22.538,0,0,0-2.886-2.911l-2.062-2.09,1.134-.364a.809.809,0,0,1,.121-.01l-.911-1.173.548-3.213.826-1.879L295.4,427.6l.893-2.73v-3.333l.826-2.606,1.1-3.274.826-2.789,2.521-.461-.115-.813,1.649-1.574,2.613-1.576,2.886-1.94.826-1.093,2.475-1.574,3.024-2.305,1.512-2.06,3.713-1.456,2.337-1.576,1.237-3.606Z" transform="translate(90.057 146.848)"/><path class="a" d="M217.937,459.222l.407,1.013a7.3,7.3,0,0,1,1.965.078c1.341.364,5.567.908,6.5.636s1.443-.364,1.649-.819-.824-1.363-1.545-1.637-4.022-1.363-4.022-1.363-2.475-2.092-2.475-2.728.1-.455.311-1.546c.143-.763-1.071-1.748-1.817-2.271l-1.586,4.272Z" transform="translate(95.516 223.856)"/><path class="b" d="M260.458,383.983l-1.649-.819v-1.637l-.826-5.092-1.03-2.909s-1.032-2-1.134-2.364a13.72,13.72,0,0,1,.206-2.364l.617-2.728.206-2.728-1.03-1.546-1.547-1.454-.826-2.819v-4.274l-.459-.836-.158.289-.413,2.456-.826,1.454-2.577,2.364-1.566.506c-.024.763-.054,2.242.019,3.4.1,1.637.1,3.183.1,3.183l.309,3.819-1.443,4.911s-.1,3.547-.1,4.455a9.838,9.838,0,0,1-.824,3.821c-.515.817-1.649,2-1.341,3.092s.619,1.727.721,2.09a25.844,25.844,0,0,1-.413,3.366l-1.237,2.637.309,3.364-.206,1.82-1.443,1.635-.1,3.547-.617,3.638-2.577,1.909-.517,2.364-2.062,7.184a2.418,2.418,0,0,1,.928,1.818,14.113,14.113,0,0,1-1.339,3.274l-1.754,1.363a18.371,18.371,0,0,0-.311,4.911,55.809,55.809,0,0,0,.93,7.637,4.615,4.615,0,0,1-.311,3.455C233.236,443.908,232.1,446,232.1,446s-6.187,8-6.187,8.367a10.318,10.318,0,0,1-.1,1.818c-.1.274-2.269,2.819-2.269,2.819a5.506,5.506,0,0,1-.515,2.182c-.413.455-1.651.546-1.96,1s-.309.91-.515,2.909a40.409,40.409,0,0,0-.1,4.911c0,1.637,1.238,3.092,1.238,3.638a16.04,16.04,0,0,1-1.341,3l-2.888,4.911s.517,2.909.928,3.181a20.245,20.245,0,0,0,2.579.91l1.752,2-1.03,3.547-1.96,4.365-.617,4.091.617.727a8.818,8.818,0,0,0-1.649,1.274c-.206.364-.515,1.091-.515,1.091v1.818l-1.547,1.911-.206,3.455-.617.727s-1.858-.091-2.166-1.182-.928-2.819-.928-2.819l-2.269.364L209,508.105s-1.752,1-1.856,1.548.1,1,.723.908a10.739,10.739,0,0,0,1.958-.727,3.4,3.4,0,0,1,1.547.91,14.075,14.075,0,0,0,1.856,1.635l-2.577,2.456-.1,3s-1.958,2.182-1.958,2.817-1.238,1.093-1.238,1.093l-.928.453-.309,2.456,1.134.638,1.856-.091,1.237.272-1.443,2.182.413,1.546s.619-.272,1.649-.636,1.856-1.274,1.547.091-1.96,2.909-2.166,3.272a11.218,11.218,0,0,0,.1,2.728s1.134,1.365,2.165,1a17.547,17.547,0,0,0,2.062-.91s1.238.364.928,1-4.742,2.545-4.742,2.817a20.291,20.291,0,0,0,.617,2.092l2.888,1.454.826,1.728a1.178,1.178,0,0,0-.206,1.818,13.58,13.58,0,0,0,4.02,2.183c.309.091,4.95,1.546,4.95,1.546s2.205-.346,4.015-.442l-.407-1.013-.617-4.365,1.586-4.272c-.32-.225-.556-.367-.556-.367s-2.784.274-1.649-.726a4.1,4.1,0,0,0,.651-.689l-5.084.87-1.032-1.729-1.237-.636-3.094-3.274a5.321,5.321,0,0,0-.824-1.635c-.826-1.365-.515-4.184-.515-4.184l.411-1.182.1-4.182,1.752-1.454,1.238-.91.928-1.727L222,511.288l-.1-1.454a17.053,17.053,0,0,1,.206-3c.206-.455.721-.819,1.03-1.365a4.648,4.648,0,0,0,.413-1.454l-.206-1.182a3.857,3.857,0,0,1,.309-1.454l2.166-1.274v-1l-.515-.545-.619-1.909.515-1.454.309-2-.1-1.82-.721-1.454.721-1.091.1-.727.723-1.546.928-2.364.309-3a10.72,10.72,0,0,0,0-2.909c-.206-1.82.413-1.274.619-2a1.329,1.329,0,0,1,.824-.91l1.856-2.909,1.032-2.547v-2l-.619-1.091v-2.364l2.062-3.819,1.443-3.274,2.681-4.182,2.269-3.819,1.856-2.547.619-1.454.206-1.637s.617-3.455,0-5.273-1.238-2-1.238-2l-.411-2.728.2-3.819a15.328,15.328,0,0,1,2.475-2.911c1.445-1.274,0,0,.826-.364s.619-.91.619-.91V424.63a2.71,2.71,0,0,0-1.858-1.274c-1.443-.364.206-1.818.206-1.818l1.238-2.545,2.269-3.455,2.473-3.638,2.269-2.911,1.445-.727,1.237-1.274v-.544a24.788,24.788,0,0,0-.413-2.547l1.238-2.182.824-3.819-.824-2.911.206-1.818,1.856-2.184,4.535-2.728.413-2,.351-2.273Z" transform="translate(85.889 135.142)"/></g></svg>