<svg xmlns="http://www.w3.org/2000/svg" width="1272.033" height="616.325" viewBox="0 0 1272.033 616.325"><defs><style>.a,.n,.q{fill:#fff;}.b,.f,.g,.o,.t{fill:#29366d;}.b,.g,.n,.q,.t{font-size:11px;}.b,.c,.f,.n{font-family:Ubuntu-Bold, Ubuntu;}.b,.c,.f,.n,.t,.u{font-weight:700;}.b,.c,.n{letter-spacing:0.05em;}.b,.c,.f,.g,.n,.p,.q,.t,.u,.y,.z{isolation:isolate;}.c{fill:#00284a;}.c,.f{font-size:12px;}.d{fill:#0a4a83;}.e,.h,.r,.v{fill:none;stroke-miterlimit:10;}.e{stroke:#00e5ba;}.e,.r{stroke-width:2px;}.g,.y{font-family:IBMPlexSans, IBM Plex Sans;}.h{stroke:#e6eaed;}.i{fill:#e3e4e5;}.j{fill:#bdcad1;}.k{opacity:0.5;}.l{fill:#8097a4;}.m{fill:#009a9c;}.q,.z{font-family:IBMPlexSans-SemiBold, IBM Plex Sans;font-weight:600;}.r{stroke:#29366d;}.s{fill:#dce6ea;}.t,.u{font-family:IBMPlexSans-Bold, IBM Plex Sans;}.u{fill:#197e93;font-size:9px;}.v{stroke:#c7cfd1;}.w{fill:#eef3f5;}.x{fill:#006999;}.y,.z{fill:#435b69;font-size:14px;}</style></defs><g transform="translate(-46.965 -70.497)"><rect class="a" width="518.721" height="615.325" transform="translate(358.495 71.497)"/><rect class="a" width="420.743" height="615.325" transform="translate(898.255 71.497)"/><rect class="a" width="288.61" height="615.325" transform="translate(46.965 71.497)"/><text class="b" transform="translate(386.312 605.913)"><tspan x="0" y="0">TIPO DE VISUALIZACIÓN</tspan></text><text class="c" transform="translate(378.168 97.94)"><tspan x="0" y="0">VISUALIZACIÓN</tspan></text><text class="c" transform="translate(920.965 97.94)"><tspan x="0" y="0">DETALLE</tspan></text><path class="d" d="M316.8,91.41l-1.138-1.136-3.615,3.615-3.616-3.615-1.138,1.138,3.615,3.615-3.615,3.615,1.138,1.138,3.615-3.615,3.615,3.615,1.138-1.138-3.616-3.617Z"/><line class="e" x2="518.721" transform="translate(358.496 71.497)"/><line class="e" x2="420.743" transform="translate(898.255 71.497)"/><line class="e" x2="288.61" transform="translate(46.965 71.497)"/><text class="f" transform="translate(61.031 130.535)"><tspan x="0" y="0">VISUALIZAR</tspan></text><text class="f" transform="translate(61.031 202.685)"><tspan x="0" y="0">PREGUNTAS</tspan></text><text class="f" transform="translate(61.031 395.599)"><tspan x="0" y="0">FILTROS</tspan></text><text class="g" transform="translate(74.194 529.58)"><tspan x="0" y="0">Lorem ipsum dolor</tspan></text><text class="c" transform="translate(62.767 97.94)"><tspan x="0" y="0">PREGUNTAS</tspan></text><rect class="h" width="239.222" height="30.739" rx="4.158" transform="translate(62.767 511.299)"/><path class="i" d="M288.669,529.335,293.706,524H283.629Z"/><path class="j" d="M474.1,657.083H441.3V625.577a.636.636,0,1,0-1.272,0v32.142a.636.636,0,0,0,.636.636h33.433a.636.636,0,1,0,.008-1.272H474.1Z"/><path class="j" d="M445,653.133a.638.638,0,0,0,.856-.276l4.436-8.654,4.7,4.149a.637.637,0,0,0,.9-.056.646.646,0,0,0,.114-.186l3.619-9.067,5.422,6.589a.637.637,0,0,0,1.09-.187l3.919-10.813a.638.638,0,0,0-1.2-.434h0l-3.543,9.764-5.4-6.558a.636.636,0,0,0-1.082.169l-3.682,9.228-4.637-4.094a.636.636,0,0,0-.9.055.643.643,0,0,0-.089.131l-4.81,9.382a.637.637,0,0,0,.282.855Z"/><path class="j" d="M470.417,632.5a.766.766,0,1,0-.766-.766h0a.766.766,0,0,0,.764.766Z"/><g class="k"><path class="l" d="M502,654.121h2.994a1.533,1.533,0,0,0,1.532-1.532v-11.56a1.535,1.535,0,0,0-1.532-1.531H502a1.535,1.535,0,0,0-1.532,1.531v11.56A1.533,1.533,0,0,0,502,654.121Zm-.265-13.093a.265.265,0,0,1,.265-.264h2.994a.264.264,0,0,1,.264.264v11.56a.265.265,0,0,1-.264.265H502a.267.267,0,0,1-.265-.265Z"/><path class="l" d="M512.08,654.121h2.994a1.533,1.533,0,0,0,1.532-1.532V633.9a1.533,1.533,0,0,0-1.532-1.531H512.08a1.533,1.533,0,0,0-1.531,1.531v18.692A1.534,1.534,0,0,0,512.08,654.121Zm-.264-20.224a.264.264,0,0,1,.264-.264h2.994a.265.265,0,0,1,.265.264v18.692a.267.267,0,0,1-.265.265H512.08a.265.265,0,0,1-.264-.265Z"/><path class="l" d="M522.165,654.121h2.994a1.534,1.534,0,0,0,1.531-1.532V626.6a1.534,1.534,0,0,0-1.531-1.532h-2.994a1.533,1.533,0,0,0-1.532,1.532v25.985A1.534,1.534,0,0,0,522.165,654.121ZM521.9,626.6a.265.265,0,0,1,.265-.264h2.994a.264.264,0,0,1,.264.264v25.985a.265.265,0,0,1-.264.265h-2.994a.267.267,0,0,1-.265-.265Z"/><path class="l" d="M529.793,657.088h-32.67V625.705a.633.633,0,1,0-1.267,0v32.017a.634.634,0,0,0,.634.633h33.3a.634.634,0,1,0,0-1.268Z"/></g><g class="k"><path class="l" d="M573.355,625.9c-.01,0-.02-.01-.031-.014l-.024-.005a16.6,16.6,0,0,0-15.583,2.919.809.809,0,0,0-.078.052.554.554,0,0,0-.054.055A16.636,16.636,0,1,0,583.4,648.471c.007-.014.018-.024.025-.038s.011-.036.017-.053a16.628,16.628,0,0,0-8.558-21.9q-.747-.327-1.524-.58Zm10.212,15.818a15.294,15.294,0,0,1-1.069,5.62l-13.527-5.969,4.561-14.068a15.4,15.4,0,0,1,10.035,14.417Zm-11.241-14.806-4.379,13.508-9-10.975a15.331,15.331,0,0,1,13.382-2.533Zm-4.134,30.18a15.366,15.366,0,0,1-10.227-26.842l9.737,11.869.013.014a.6.6,0,0,0,.062.061l.036.032a.631.631,0,0,0,.07.043c.015.009.03.019.045.026h.006l14.051,6.2a15.391,15.391,0,0,1-13.792,8.6Z"/></g><g class="k"><path class="l" d="M618.116,657.816H604a.652.652,0,0,1-.652-.65V625.149A.652.652,0,0,1,604,624.5h14.12a.651.651,0,0,1,.651.652v32.016a.651.651,0,0,1-.651.651Zm-13.468-1.3h12.817V625.8H604.648Z"/><path class="l" d="M636.2,645.393H621.08a.651.651,0,0,1-.651-.651h0V625.149a.65.65,0,0,1,.65-.652H636.2a.651.651,0,0,1,.651.652v19.593A.653.653,0,0,1,636.2,645.393Zm-14.469-1.3h13.817V625.8H621.731Z"/><path class="l" d="M636.2,657.816H621.08a.651.651,0,0,1-.651-.651h0V647.8a.65.65,0,0,1,.65-.652H636.2a.651.651,0,0,1,.651.652v9.368A.653.653,0,0,1,636.2,657.816Zm-14.469-1.3h13.817V648.45H621.731Z"/></g><rect class="m" width="151.72" height="34.255" rx="6.965" transform="translate(708.105 82.812)"/><text class="n" transform="translate(745.167 102.949)"><tspan x="0" y="0">DESCARGA</tspan></text><path class="a" d="M841.619,102.663l-4.427-4.426a.722.722,0,0,1,1.02-1.021l3.917,3.917,3.917-3.917a.721.721,0,0,1,1.02,1.02l-4.427,4.426a.721.721,0,0,1-1.019,0Z"/><circle class="o" cx="5.763" cy="5.763" r="5.763" transform="translate(142.529 121.339)"/><path class="a" d="M149.089,124.358a.739.739,0,0,1-.239.581.856.856,0,0,1-1.127,0,.827.827,0,0,1,0-1.162.852.852,0,0,1,1.127,0A.734.734,0,0,1,149.089,124.358Zm-.127,6.108H147.62v-4.738h1.342Z"/><rect class="o" width="246.263" height="44.175" rx="8.497" transform="translate(61.031 215.127)"/><g class="p"><text class="q" transform="translate(68.404 232.214)"><tspan x="0" y="0">Lorem ipsum dolor sit amet, consectetuer </tspan></text><text class="q" transform="translate(68.404 245.214)"><tspan x="0" y="0">morem ipsum dolor sit amet</tspan></text></g><text class="g" transform="translate(69.404 287.214)"><tspan x="0" y="0">Lorem ipsum dolor sit amet, consectetuer </tspan></text><text class="g" transform="translate(69.404 300.214)"><tspan x="0" y="0">morem ipsum dolor sit amet</tspan></text><text class="g" transform="translate(69.404 334.214)"><tspan x="0" y="0">Lorem ipsum dolor sit amet, consectetuer </tspan></text><text class="g" transform="translate(69.404 347.214)"><tspan x="0" y="0">morem ipsum dolor sit amet</tspan></text><text class="g" transform="translate(77.204 148.737)"><tspan x="0" y="0">Lorem ipsum dolor</tspan></text><rect class="r" width="246.263" height="44.175" rx="8.497" transform="translate(61.031 266.499)"/><rect class="r" width="246.263" height="44.175" rx="8.497" transform="translate(61.031 318.905)"/><circle class="s" cx="5.919" cy="5.919" r="5.919" transform="translate(61.158 140.656)"/><text class="g" transform="translate(77.204 167.68)"><tspan x="0" y="0">Lorem ipsum dolor</tspan></text><circle class="s" cx="5.919" cy="5.919" r="5.919" transform="translate(61.158 159.599)"/><circle class="m" cx="2.922" cy="2.922" r="2.922" transform="translate(64.154 143.652)"/><text class="g" transform="translate(77.204 444.163)"><tspan x="0" y="0">Lorem ipsum dolor</tspan></text><text class="t" transform="translate(61.158 424.865)"><tspan x="0" y="0">Lorem ipsum dolor</tspan></text><text class="t" transform="translate(61.158 503.865)"><tspan x="0" y="0">Lorem ipsum dolor</tspan></text><text class="t" transform="translate(61.158 573.097)"><tspan x="0" y="0">Fechas</tspan></text><circle class="s" cx="5.919" cy="5.919" r="5.919" transform="translate(61.158 436.082)"/><text class="g" transform="translate(77.204 463.106)"><tspan x="0" y="0">Lorem ipsum dolor</tspan></text><circle class="s" cx="5.919" cy="5.919" r="5.919" transform="translate(61.158 455.025)"/><circle class="m" cx="2.922" cy="2.922" r="2.922" transform="translate(64.154 439.078)"/><g class="p"><text class="u" transform="translate(232.031 584.93)"><tspan x="0" y="0">2018</tspan></text></g><g class="p"><text class="u" transform="translate(142.725 584.93)"><tspan x="0" y="0">2016</tspan></text></g><text class="g" transform="translate(56.676 616.343)"><tspan x="0" y="0">2014</tspan></text><text class="g" transform="translate(279.943 616.343)"><tspan x="0" y="0">2019</tspan></text><line class="v" y1="4.814" transform="translate(68.239 600.95)"/><line class="v" y1="4.814" transform="translate(109.634 600.95)"/><line class="v" y1="4.814" transform="translate(154.288 600.95)"/><line class="v" y1="4.814" transform="translate(198.941 600.95)"/><line class="v" y1="4.814" transform="translate(243.595 600.95)"/><line class="v" y1="4.814" transform="translate(291.506 600.95)"/><rect class="w" width="239.222" height="9.043" rx="4.521" transform="translate(61.317 594.24)"/><rect class="m" width="89.307" height="9.043" rx="4.521" transform="translate(154.288 594.24)"/><circle class="m" cx="8.183" cy="8.183" r="8.183" transform="translate(235.412 590.579)"/><circle class="m" cx="8.183" cy="8.183" r="8.183" transform="translate(146.105 590.579)"/><path class="x" d="M406.835,619.571a1.68,1.68,0,0,0,.4.176.875.875,0,0,1,.666.473,1.5,1.5,0,0,1,.238.843.9.9,0,0,1-.139.424,5.673,5.673,0,0,1-.547.69.8.8,0,0,1-.337.192c-.289.094-.588.157-.877.255a.5.5,0,0,0-.254.2c-.174.3-.329.61-.486.918a.611.611,0,0,1-.547.351.336.336,0,0,0-.207.12.884.884,0,0,0-.148.271,5.217,5.217,0,0,1-.795,1.4.667.667,0,0,0-.074.243c-.008.033,0,.071-.009.1a1.124,1.124,0,0,0-.058.719.353.353,0,0,1-.045.218c-.09.2-.2.392-.284.592a.193.193,0,0,0,.022.173c.167.158.363.289.518.457a2.548,2.548,0,0,1,.28.443.286.286,0,0,1,.023.1,2.1,2.1,0,0,0,.689,1.331.582.582,0,0,1,.185.507c-.014.243-.01.486-.006.729a1.088,1.088,0,0,1-.127.553,2.09,2.09,0,0,0-.129.595,3.761,3.761,0,0,1,.443.12.548.548,0,0,1,.362.532c.012.286.049.3.32.278a4.506,4.506,0,0,1,.52,0c.41.008.823,0,1.23.036a1.71,1.71,0,0,0,.622-.1,1.575,1.575,0,0,1,1.214.168,1.156,1.156,0,0,0,.558.114.8.8,0,0,1,.706.352c.425.574.869,1.134,1.3,1.7.147.192.177.179.385.051a.823.823,0,0,1,.424-.12c.648.017,1.295.076,1.942.081a2.073,2.073,0,0,0,1.1-.22.077.077,0,0,1,.038-.017c.5.014,1.017-.086,1.423.323l.014.015a1.226,1.226,0,0,1,.033,1.39.749.749,0,0,0-.222.708.7.7,0,0,1-.364.719.355.355,0,0,0-.168.433.986.986,0,0,1,.009.287c-.042.258-.109.511-.141.77a1.1,1.1,0,0,0,.058.351c.04.181.085.36.13.539.02.078.042.157.068.233.062.175.119.352.194.521a.452.452,0,0,0,.167.2.679.679,0,0,1,.337.4,2.521,2.521,0,0,0,.28.568.973.973,0,0,1-.283,1.345c-.022.014-.044.028-.067.04a.318.318,0,0,0-.07.044c-.076.071-.149.143-.228.218a3.472,3.472,0,0,0,.779.907.9.9,0,0,1,.321.65c0,.034-.011.082.007.1a1.2,1.2,0,0,1,.226.737,2.005,2.005,0,0,1,.062.4,3.462,3.462,0,0,0,.272,1.159,4.106,4.106,0,0,1,.108.731.468.468,0,0,1-.388.453,6.178,6.178,0,0,1-.633.119.539.539,0,0,1-.608-.46.6.6,0,0,1-.005-.074,2.8,2.8,0,0,0-.231-1.191c-.047-.106.014-.259.029-.429-.069.067-.126.118-.176.173a1.061,1.061,0,0,1-1.058.432.119.119,0,0,0-.081.005c-.33.252-.71.134-1.067.129-.909-.012-1.816-.046-2.724-.071H411.7v.517c.167,0,.331.009.494,0a1.114,1.114,0,0,1,.808.271,1.36,1.36,0,0,1,.37.9,1.022,1.022,0,0,0,.016.183.72.72,0,0,1-.43.923.712.712,0,0,1-.282.043c-.229.016-.462-.057-.694-.06a6.873,6.873,0,0,0-.759.051c-.022,0-.052.078-.053.12,0,.312-.006.624,0,.937,0,.206.171.274.325.333a1.259,1.259,0,0,1,.895,1.274.671.671,0,0,0,.134.335,1.586,1.586,0,0,1,.284,1.049,33.928,33.928,0,0,1-.579,3.6c-.222,1.36-.5,2.712-.732,4.069-.065.378-.349.476-.637.57a.491.491,0,0,1-.538-.231c-.179-.218-.349-.444-.537-.656a.267.267,0,0,0-.2-.043,1.157,1.157,0,0,1-1-.289.575.575,0,0,1-.1-.772c.385-.651.774-1.3,1.156-1.949.052-.088.122-.262.1-.281a.6.6,0,0,0-.377-.166.7.7,0,0,1-.768-.4.335.335,0,0,0-.462-.106l-.009.006a1.877,1.877,0,0,1-1.14.079c-.216-.032-.406-.243-.622-.381a.691.691,0,0,1-.574.324.052.052,0,0,0-.038.013c-.264.356-.666.192-1,.263a.309.309,0,0,1-.2-.034,1.982,1.982,0,0,0-1.191-.094.608.608,0,0,1-.552-.212.444.444,0,0,0-.167-.14.843.843,0,0,1-.489-1.087l.016-.039c.022-.049.042-.1.061-.145-.254-.112-.5-.216-.738-.328a.523.523,0,0,1-.328-.588.649.649,0,0,0-.1-.594,1,1,0,0,1-.661-.3.666.666,0,0,0-.358-.122c-.553-.1-.719-.325-.876-.836a3.092,3.092,0,0,0-.172-.6.578.578,0,0,0-.378-.217.659.659,0,0,1-.476-.209.21.21,0,0,0-.086-.054c-.094-.042-.218-.055-.281-.125-.28-.3-.669-.136-.99-.247a1.349,1.349,0,0,1-.258-.071,1.966,1.966,0,0,0-.752-.274.6.6,0,0,1-.3-.166c-.213-.2-.413-.408-.613-.619-.091-.1-.153-.093-.256,0a1.473,1.473,0,0,1-.969.332c-.122,0-.245-.025-.368-.029a1.618,1.618,0,0,1-.733-.194,2.918,2.918,0,0,0-1-.181.486.486,0,0,1-.4-.257c-.082-.144-.143-.3-.236-.438a.552.552,0,0,0-.453-.3,1.028,1.028,0,0,1-.666-.248c-.255-.208-.533-.39-.8-.585a.615.615,0,0,1-.11-.1.78.78,0,0,0-.387-.241,1.38,1.38,0,0,1-.463-.333c-.291-.263-.565-.547-.856-.81a.619.619,0,0,1-.117-.867l.017-.022c.2-.249.357-.555.7-.663a.112.112,0,0,0,.061-.072c.041-.229.06-.463.118-.687a1.428,1.428,0,0,1,.481-.867,1.451,1.451,0,0,1,.712-.335c.186-.024.375-.2.592-.176a.472.472,0,0,0,.432-.135.876.876,0,0,0,.148-.288,1.45,1.45,0,0,1,.12-.38c.2-.26.437-.49.647-.741.145-.173.269-.363.38-.516-.171-.3-.319-.572-.487-.836a.95.95,0,0,1,.211-1.229.539.539,0,0,0,.151-.32.947.947,0,0,0-.012-.449,3.563,3.563,0,0,1-.084-1.132.4.4,0,0,0-.12-.328.8.8,0,0,1-.177-.339,1.392,1.392,0,0,1-.068-.4.4.4,0,0,1,.292-.365c.215-.1.234-.158.119-.367a1.271,1.271,0,0,1-.255-.774c.023-.178.078-.353.119-.53-.075-.129-.157-.285-.253-.432a.621.621,0,0,0-.164-.151.644.644,0,0,1-.288-.505.3.3,0,0,0-.082-.2c-.7-.561-.484-1.138-.122-1.728a.47.47,0,0,0,.081-.159.606.606,0,0,1,.64-.57.59.59,0,0,1,.126.021.193.193,0,0,0,.238-.089c.081-.117.247-.208.263-.326.012-.093-.172-.2-.224-.317-.122-.274-.219-.56-.321-.843a.184.184,0,0,1,0-.142,4.288,4.288,0,0,1,.482-.732.494.494,0,0,1,.664.063c.089.078.173.159.222.2.415-.231.823-.423,1.191-.673a1.318,1.318,0,0,0,.69-.794.977.977,0,0,1,.727-.674c.185-.063.371-.123.547-.18a5.641,5.641,0,0,0,.17-.551.386.386,0,0,0-.067-.262.641.641,0,0,1-.017-.791,1.7,1.7,0,0,0,.132-.336c.1-.265.18-.535.294-.792a.986.986,0,0,1,.242-.253c.153-.147.308-.292.463-.435a.334.334,0,0,1,.135-.1,1.832,1.832,0,0,0,.836-.587.7.7,0,0,1,.743-.184l.692.24c.083-.2.151-.408.251-.6a.593.593,0,0,1,.254-.261,1.241,1.241,0,0,1,1.024-.031,2.935,2.935,0,0,0,1.127.081c.045,0,.1-.049.14-.082a5.864,5.864,0,0,1,.8-.622,3.693,3.693,0,0,1,1.476-.585.24.24,0,0,0,.2-.272l-.006-.028a.644.644,0,0,1,.494-.764.623.623,0,0,1,.106-.013,1.9,1.9,0,0,0,.608-.326c.18-.114.346-.251.518-.377Zm-6.437,4.044a1.438,1.438,0,0,1-.02.147.84.84,0,0,1-.647.626,2.173,2.173,0,0,1-1.179-.146.2.2,0,0,0-.185.006c-.3.233-.594.471-.88.718a1.2,1.2,0,0,0-.365.853c-.018.214.018.433-.012.642a2.984,2.984,0,0,1-.167.476.43.43,0,0,0-.038.247,1.063,1.063,0,0,1-.151,1.023.862.862,0,0,1-.912.431c-.271-.037-.477.023-.53.335-.007.044-.049.082-.074.124a3.075,3.075,0,0,1-1.1,1.065c-.164.1-.314.214-.215.447a.323.323,0,0,1,0,.124c-.012.311-.032.622-.034.932a.545.545,0,0,1-.385.594,3.875,3.875,0,0,1-.768.053.367.367,0,0,0-.147.015,1.379,1.379,0,0,0-.6.581.731.731,0,0,1-.681.5c.112.213.218.427.338.633a.821.821,0,0,0,.21.258,1.176,1.176,0,0,1,.575,1.058,5.469,5.469,0,0,1-.1.547.84.84,0,0,0,0,.308,4.61,4.61,0,0,1,.233,1.306.641.641,0,0,1-.18.461.488.488,0,0,0-.125.282c-.015.318.005.637-.01.955a1.154,1.154,0,0,0,.137.57,1.277,1.277,0,0,1,.04.5c0,.066-.031.133-.036.2-.019.217-.033.435-.049.671a1.048,1.048,0,0,1,.179.154,1.163,1.163,0,0,0,.423.339.465.465,0,0,1,.27.556,4.046,4.046,0,0,1-.409.94c-.148.241-.446.374-.519.69-.023.1-.134.182-.21.267a2.312,2.312,0,0,1-.352.361.258.258,0,0,0-.136.224.774.774,0,0,1-.091.352,5.055,5.055,0,0,1-.463.609.744.744,0,0,1-.28.159,2.662,2.662,0,0,0-.423.15.862.862,0,0,1-.626.22.159.159,0,0,0-.072.03c-.138.086-.276.174-.443.28a2.237,2.237,0,0,0-.012.327c.021.26.071.518.081.776a.613.613,0,0,1-.522.629c-.09.017-.181.031-.272.046l-.026.069c.243.142.5.273.728.431a10.68,10.68,0,0,1,.879.652.667.667,0,0,0,.692.169.584.584,0,0,1,.776.284.6.6,0,0,1,.046.149.17.17,0,0,0,.063.1.941.941,0,0,1,.409.607,2.017,2.017,0,0,1,.884.165.807.807,0,0,0,.976-.1.649.649,0,0,1,.186-.088,1.117,1.117,0,0,1,.983.02c.286.131.612.227.764.563a.345.345,0,0,0,.418.224.3.3,0,0,1,.236.045.757.757,0,0,0,.8.21c.206-.036.454.161.681.256.075.032.15.11.217.1.33-.042.509.16.688.382a.985.985,0,0,0,.178.144,3.976,3.976,0,0,1,.632.526,3.292,3.292,0,0,1,.247.606,1.547,1.547,0,0,0,.3.4,2.325,2.325,0,0,0,.344.21c.163.11.313.239.479.345.19.121.45.181.573.348a4.537,4.537,0,0,1,.392.842c.027.06.059.147.108.164a1.187,1.187,0,0,1,.85,1.053,2.147,2.147,0,0,0,.081.464c.016.052.122.1.191.1a4.622,4.622,0,0,0,.6.012c.338-.015.7.092.982-.212.016-.018.053-.016.076-.031a1.048,1.048,0,0,0,.236-.167.933.933,0,0,1,.832-.318c.29.109.568.245.858.354.075.027.213.031.253-.014a.743.743,0,0,1,.833-.22,4.354,4.354,0,0,1,.993.48,1.534,1.534,0,0,0,.515.187.755.755,0,0,1,.5.248,4.436,4.436,0,0,0,.591.521,3.333,3.333,0,0,0,.5.258c0-.008.02-.067.031-.128.1-.518.2-1.034.282-1.553a8.237,8.237,0,0,0,.222-1.87.524.524,0,0,0-.031-.2c-.107-.2-.233-.4-.337-.6a.458.458,0,0,1-.051-.279c.044-.194-.05-.28-.2-.35a1.159,1.159,0,0,1-.2-.106,1.367,1.367,0,0,1-.68-1.081c-.018-.423.021-.848-.011-1.269a.831.831,0,0,1,.476-.937,2.609,2.609,0,0,1,.366-.12c.074-.018.149-.032.224-.043a.731.731,0,0,1-.543-.665c-.013-.562-.007-1.125,0-1.687a.507.507,0,0,1,.337-.5,1.976,1.976,0,0,1,.584-.118c.434-.014.871,0,1.306,0h1.79a.623.623,0,0,1,.6-.582,1.046,1.046,0,0,1,.828.458,2.012,2.012,0,0,1,.981-.9c-.116-.071-.188-.113-.259-.158a.968.968,0,0,1-.269-.184.333.333,0,0,0-.325-.177.431.431,0,0,1-.416-.323.638.638,0,0,1,.183-.7c.273-.276.558-.54.846-.8a.259.259,0,0,0,.082-.3.579.579,0,0,0-.251-.358.874.874,0,0,1-.309-.421,3.118,3.118,0,0,0-.32-1.1c-.048-.067-.014-.189-.031-.284a1.017,1.017,0,0,0-.078-.268,1.082,1.082,0,0,1-.133-.713,7.757,7.757,0,0,0,.146-1.368,1.062,1.062,0,0,1,.452-.944.35.35,0,0,0,.158-.289c.039-.385,0-.8.34-1.1.021-.018.018-.062.036-.13a.624.624,0,0,0-.186.034.921.921,0,0,1-.768.127.481.481,0,0,0-.2-.009,6.343,6.343,0,0,1-.866.15,8,8,0,0,1-.926-.094c-.162-.015-.364-.07-.481,0a1.275,1.275,0,0,1-.6.182.983.983,0,0,1-.856-.254c-.555-.555-1.122-1.1-1.68-1.646a.458.458,0,0,0-.371-.176,1.159,1.159,0,0,1-.363-.077,1.788,1.788,0,0,0-1.114-.09,4.461,4.461,0,0,1-1.245.128c-.511.016-1.024,0-1.537-.014a1.2,1.2,0,0,1-.407-.112c-.354-.145-.475-.483-.639-.786-.034-.062-.1-.14-.166-.148a.894.894,0,0,1-.717-.929c-.015-.29.009-.583-.02-.871a.7.7,0,0,1,.128-.506.638.638,0,0,0,.1-.256c.056-.343-.238-.482-.412-.694a1.675,1.675,0,0,1-.25-.392,2.7,2.7,0,0,1-.124-.461c-.034-.138-.037-.282-.234-.315-.142-.024-.271-.128-.413-.152a3.133,3.133,0,0,0-.494,0,.493.493,0,0,1-.471-.284.537.537,0,0,1,.04-.571c.045-.07.1-.134.139-.2.2-.339.4-.676.581-1.022a1.412,1.412,0,0,0,.135-.426c.057-.358.093-.72.145-1.08a.39.39,0,0,1,.079-.167,6.443,6.443,0,0,0,.852-1.579,2.134,2.134,0,0,1,.266-.537c.182-.227.367-.482.719-.462a.165.165,0,0,0,.129-.042c.148-.243.287-.49.453-.779a5.2,5.2,0,0,1-.534.224c-.274.079-.573.087-.767.352-.048.065-.153.089-.231.134-.233.137-.47.268-.7.415a1.278,1.278,0,0,1-.824.333c-.365-.028-.733-.007-1.1-.007Zm9.482,37.827.63.085.293-1.6-.048-.019ZM406.971,621c-.126-.042-.23-.07-.329-.11-.146-.062-.232-.051-.255.135a.335.335,0,0,1-.137.22,5.564,5.564,0,0,1-.537.245c-.065.031-.126.072-.189.109l.04.079c.465-.2,1.06-.1,1.407-.679Z"/><g class="p"><text class="y" transform="translate(463.569 183.861)"><tspan x="0" y="0">LOREM IPSUM DOLOR SIT AMET, CONSECTETUER </tspan></text></g><g class="p"><text class="z" transform="translate(929.965 330.908)"><tspan x="0" y="0">A.</tspan></text><text class="y" transform="translate(943.825 330.908)"><tspan x="0" y="0" xml:space="preserve"> En esta sección podrás acceder a diferentes tipos de </tspan></text><text class="y" transform="translate(929.965 347.708)"><tspan x="0" y="0">visualización por medio de una búsqueda básica con </tspan></text><text class="y" transform="translate(929.965 364.508)"><tspan x="0" y="0">preguntas que permite el cruce de una o más variables </tspan></text><text class="y" transform="translate(929.965 381.308)"><tspan x="0" y="0">de tu interés.</tspan></text><text class="z" transform="translate(929.965 398.108)"><tspan x="0" y="0">B.</tspan></text><text class="y" transform="translate(943.223 398.108)"><tspan x="0" y="0" xml:space="preserve"> Puedes descargar las gráficas que desees haciendo </tspan></text><text class="y" transform="translate(929.965 414.908)"><tspan x="0" y="0">click en el botón de descarga</tspan></text><text class="z" transform="translate(929.965 431.708)"><tspan x="0" y="0">C.</tspan></text><text class="y" transform="translate(943.139 431.708)"><tspan x="0" y="0" xml:space="preserve"> Al hacer click en los datos de la visualización de tu </tspan></text><text class="y" transform="translate(929.965 448.508)"><tspan x="0" y="0">interés también podrás acceder a los datos asociados a </tspan></text><text class="y" transform="translate(929.965 465.308)"><tspan x="0" y="0">la variable. Puedes acceder a todo el contenido de la </tspan></text><text class="y" transform="translate(929.965 482.108)"><tspan x="0" y="0">ficha del hecho haciendo click en &quot;ver más&quot;.</tspan></text></g><circle class="m" cx="24" cy="24" r="24" transform="translate(1082.965 259.179)"/><path class="a" d="M1120.762,285.962a.617.617,0,0,0-.03-1.119l-18.691-6.988a.32.32,0,0,0-.412.187.323.323,0,0,0,0,.225l6.983,18.671a.617.617,0,0,0,1.122.023l2.541-4.58a.318.318,0,0,1,.433-.126.3.3,0,0,1,.073.055l2.162,2.161a.88.88,0,0,0,1.243,0l0,0,1.936-1.936a.866.866,0,0,0,0-1.225l0,0-2.155-2.153a.322.322,0,0,1,0-.456.357.357,0,0,1,.066-.05Z"/><rect class="a" width="1.893" height="6.058" rx="0.5" transform="matrix(0.707, -0.707, 0.707, 0.707, 1095.132, 272.689)"/><rect class="a" width="6.058" height="1.893" rx="0.5" transform="translate(1092.077 278.947)"/><rect class="a" width="1.893" height="6.058" rx="0.5" transform="translate(1102.727 268.297)"/><path class="o" d="M778.626,654.66h-.017c-.067,0-.135.017-.218.017-.371,0-.658-.2-.658-1.011v-2.291c0-2.308.016-5.038.032-6.453v-.068a1.225,1.225,0,0,0-1.029-1.394,1.208,1.208,0,0,0-.318-.006c-.151,0-.388.017-.556.017a.5.5,0,0,0-.522.477v.03a.434.434,0,0,0,.427.439l.044,0h.033a2.046,2.046,0,0,1,.27-.017c.674,0,.674.287.674,1.433,0,.978-.017,2.173-.017,3.033,0,.219-.017.3-.05.3s-.084-.084-.169-.2a3.385,3.385,0,0,0-2.663-1.213,3.772,3.772,0,0,0-3.829,3.714c0,.093,0,.187.006.28a3.754,3.754,0,0,0,3.469,4.017c.119.008.238.012.357.009a3.507,3.507,0,0,0,2.813-1.415c.034-.034.05-.051.068-.051.05,0,.067.067.084.169a1.38,1.38,0,0,0,1.533,1.2c.219,0,.674-.05.674-.522a.449.449,0,0,0-.4-.49Zm-4.7.187a2.81,2.81,0,0,1-2.879-2.739,2.906,2.906,0,0,1,.014-.361,2.808,2.808,0,0,1,2.478-3.1,2.753,2.753,0,0,1,.386-.016,2.875,2.875,0,0,1,2.858,2.892c0,.075,0,.149-.01.224a2.88,2.88,0,0,1-2.65,3.092c-.066.006-.132.008-.2.009Z"/><path class="o" d="M787.353,654.726c-.674-.236-.792-.64-.792-1.871,0-.64.033-1.516.084-2.072a4.37,4.37,0,0,0,.017-.471,2.307,2.307,0,0,0-1.989-2.585,2.334,2.334,0,0,0-.641.007c-1.448,0-2.864.725-2.864,1.365a.457.457,0,0,0,.459.455h.013a.471.471,0,0,0,.354-.169,2.656,2.656,0,0,1,1.972-.809c1.365,0,1.752.724,1.752,1.651,0,.084-.017.185-.017.269,0,.117-.067.169-.269.2a26.98,26.98,0,0,0-3.116.691,2.252,2.252,0,0,0-1.8,2.09,2.509,2.509,0,0,0,2.677,2.329l.053,0a3.118,3.118,0,0,0,2.561-1.3.088.088,0,0,1,.067-.05c.034,0,.05.034.068.084a1.433,1.433,0,0,0,1.247,1.077.455.455,0,0,0,.455-.455v-.016A.427.427,0,0,0,787.353,654.726Zm-1.669-2.763c0,2.594-1.6,2.948-2.459,2.949a1.611,1.611,0,0,1-1.8-1.4l0-.016c0-1.18,1.4-1.516,4.043-1.938h.051c.117,0,.168.05.168.186Z"/><path class="o" d="M793.114,654.841h-.068a4.643,4.643,0,0,1-.471.034c-1.314,0-1.348-.893-1.348-2.206,0-1.247.05-2.982.05-3.623,0-.2,0-.236.27-.236h1.483a.438.438,0,0,0,.471-.4.471.471,0,0,0,0-.053.433.433,0,0,0-.427-.439l-.045,0h-1.5c-.218,0-.252,0-.253-.185,0,0,.034-1.348.034-1.837a.478.478,0,0,0-.432-.52.364.364,0,0,0-.057,0,.477.477,0,0,0-.489.465v.445c0,.589-.017,1.4-.017,1.466,0,.151-.032.168-.184.168h-.977a.433.433,0,0,0-.47.394.336.336,0,0,0,0,.045.437.437,0,0,0,.417.456.5.5,0,0,0,.055,0h.994c.118,0,.169.017.169.185v.269c0,.826-.032,2.881-.032,3.959,0,.742,0,2.578,2.157,2.578.674,0,1.078-.086,1.078-.523a.418.418,0,0,0-.4-.439Z"/><path class="o" d="M801.976,654.722c-.674-.236-.792-.64-.792-1.87,0-.641.033-1.516.084-2.072a4.657,4.657,0,0,0,.017-.472,2.307,2.307,0,0,0-1.989-2.585,2.332,2.332,0,0,0-.641.007c-1.448,0-2.864.725-2.864,1.366a.457.457,0,0,0,.459.455h.013a.47.47,0,0,0,.354-.169,2.66,2.66,0,0,1,1.972-.809c1.365,0,1.752.725,1.752,1.651,0,.084-.016.186-.016.27,0,.117-.068.169-.269.2a26.759,26.759,0,0,0-3.117.691,2.25,2.25,0,0,0-1.8,2.089,2.509,2.509,0,0,0,2.677,2.329l.053,0a3.113,3.113,0,0,0,2.561-1.3.088.088,0,0,1,.068-.05c.033,0,.05.034.067.084a1.434,1.434,0,0,0,1.247,1.078.456.456,0,0,0,.455-.457v-.015A.428.428,0,0,0,801.976,654.722Zm-1.668-2.763c0,2.6-1.6,2.949-2.46,2.949a1.611,1.611,0,0,1-1.8-1.4l0-.016c0-1.18,1.4-1.517,4.043-1.939h.051c.117,0,.169.051.169.186Z"/><path class="o" d="M807.669,651.553c-.522-.269-1.331-.606-1.8-.825a1.3,1.3,0,0,1-.826-1.111c0-.556.489-1.079,1.365-1.079.1,0,1.6,0,1.6,1.347a.433.433,0,0,0,.426.44l.046,0a.415.415,0,0,0,.422-.4v-.036c-.017-.387-.017-.641-.017-.876,0-.253,0-.489.017-.842v-.017a.394.394,0,0,0-.387-.4h-.035a.379.379,0,0,0-.387.269c-.017.05,0,.2-.084.2a.126.126,0,0,1-.1-.033,2.706,2.706,0,0,0-1.482-.455,2.052,2.052,0,0,0-2.279,1.8c-.006.047-.01.093-.012.14a2.038,2.038,0,0,0,1.366,1.871c1.954.808,2.7,1.212,2.7,2.106,0,.808-.827,1.3-1.685,1.3-.961,0-1.8-.556-1.8-1.111,0-.118.034-.2.034-.321a.433.433,0,0,0-.41-.455H804.3a.441.441,0,0,0-.47.412v.061c.017.4.033.656.033.909s-.017.505-.033.876v.034a.406.406,0,0,0,.411.4h.027c.2,0,.4-.05.4-.471,0-.05.017-.084.05-.084a.212.212,0,0,1,.118.068,2.65,2.65,0,0,0,1.685.555c1.92,0,2.661-1.247,2.661-2.173A2.414,2.414,0,0,0,807.669,651.553Z"/><path class="o" d="M818.368,654.668c-.1,0-.184.017-.252.017a.623.623,0,0,1-.489-.2c-3.05-2.8-3.488-3.2-3.488-3.318,0-.051.034-.1.135-.169.825-.54,2.123-1.416,3.116-2.09a.792.792,0,0,1,.421-.152c.236,0,.1.017.337.017h.017a.443.443,0,0,0,.471-.415v-.023a.41.41,0,0,0-.372-.445.417.417,0,0,0-.117.007c-.438.017-.842.017-1.213.017-.388,0-.759,0-1.18-.017h-.034a.428.428,0,0,0-.454.4c0,.013,0,.025,0,.038,0,.4.4.4.707.4.085,0,.119.017.119.05,0,.017-.017.05-.068.084-2.662,1.838-2.729,1.854-2.914,1.854a.253.253,0,0,1-.285-.216.238.238,0,0,1,0-.053s.032-3.572.032-5.746c0-.37-.118-1.263-1.5-1.262-.589,0-.892.05-.892.489a.459.459,0,0,0,.447.471h.411c.422.017.556.2.556.674,0,.91.017,2.039.018,3.219,0,2.055-.016,4.329-.049,6.1a.265.265,0,0,1-.242.286h-.044c-.27,0-.3-.017-.506-.017h-.017a.463.463,0,0,0-.488.438c0,.011,0,.023,0,.034a.436.436,0,0,0,.428.443.414.414,0,0,0,.078-.005c.387-.017.792-.034,1.213-.034.438,0,.876.016,1.314.033h.017a.452.452,0,0,0,.487-.413c0-.014,0-.028,0-.042a.451.451,0,0,0-.445-.457l-.043,0h-.014a4.363,4.363,0,0,1-.472.017.257.257,0,0,1-.286-.224.319.319,0,0,1,0-.062c-.017-.808-.017-1.348-.017-1.752,0-.876.017-1.027.269-1.027a.6.6,0,0,1,.505.2c.522.539,1.9,1.819,2.8,2.694a.132.132,0,0,1,.033.068c0,.017,0,.118-.438.118a.4.4,0,0,0-.452.34.365.365,0,0,0,0,.1.429.429,0,0,0,.418.438h.071c.388-.017.758-.033,1.128-.033s.775.016,1.213.032h.017a.45.45,0,0,0,.472-.427.346.346,0,0,0,0-.045.417.417,0,0,0-.4-.438A.425.425,0,0,0,818.368,654.668Z"/><path class="o" d="M826.726,653.638a.48.48,0,0,0-.337.151,3.015,3.015,0,0,1-2.443,1.113,2.751,2.751,0,0,1-2.831-2.964c0-.236.034-.3.2-.3.37,0,1.8.017,3.066.017.623,0,1.2,0,1.584-.017.86-.034,1.23-.506,1.23-1.129a3.14,3.14,0,0,0-3.32-2.763,3.854,3.854,0,0,0-3.762,3.942c0,.046,0,.091.006.137a3.765,3.765,0,0,0,3.549,3.969c.086.005.173.007.26.006,2.123,0,3.3-1.282,3.3-1.669A.515.515,0,0,0,826.726,653.638Zm-2.832-5.055a2.116,2.116,0,0,1,2.309,1.752c0,.269-.151.455-.556.473-.472.017-1.415.017-2.291.017-1.954,0-2.106,0-2.106-.168A2.727,2.727,0,0,1,823.894,648.583Z"/><path class="o" d="M832.925,654.833h-.068a4.72,4.72,0,0,1-.471.033c-1.314,0-1.348-.893-1.349-2.207,0-1.247.05-2.982.05-3.622,0-.2,0-.236.269-.236h1.482a.439.439,0,0,0,.472-.4.483.483,0,0,0,0-.054.434.434,0,0,0-.428-.44l-.045,0h-1.5c-.219,0-.253,0-.254-.185,0,0,.034-1.347.034-1.837a.477.477,0,0,0-.431-.519.376.376,0,0,0-.058,0,.477.477,0,0,0-.489.465v.445c0,.589-.017,1.4-.017,1.466,0,.151-.033.168-.184.168h-.975a.433.433,0,0,0-.47.394.322.322,0,0,0,0,.044.438.438,0,0,0,.419.456.465.465,0,0,0,.053,0h.994c.118,0,.169.017.169.185v.269c0,.826-.033,2.882-.033,3.96,0,.741,0,2.578,2.157,2.578.674,0,1.079-.084,1.079-.522a.418.418,0,0,0-.394-.439Z"/><path class="o" d="M841.434,653.635a.528.528,0,0,0-.438.252,2.65,2.65,0,0,1-2.157.978A2.953,2.953,0,0,1,835.9,651.9c0-.055,0-.111.006-.166a2.978,2.978,0,0,1,2.764-3.178c.055,0,.111-.006.167-.007a2.217,2.217,0,0,1,1.719.69c.2.236.151.438.168.792a.447.447,0,0,0,.473.4.434.434,0,0,0,.485-.377.338.338,0,0,0,0-.045v-.034c-.017-.387-.017-.656-.017-.909,0-.269,0-.522.017-.876v-.034a.435.435,0,0,0-.445-.424.322.322,0,0,0-.044,0c-.185,0-.386.084-.4.287-.017.084-.034.184-.084.184-.034,0-.05-.017-.084-.033a3.806,3.806,0,0,0-5.7,3.5c0,.042,0,.085.005.127a3.829,3.829,0,0,0,3.68,3.974c.094,0,.187,0,.281,0,1.819,0,3.083-1.129,3.083-1.618A.539.539,0,0,0,841.434,653.635Z"/><path class="o" d="M851.627,654.661h-.017c-.236,0-.219.017-.472.017a.262.262,0,0,1-.286-.3c0-1.331-.018-3.269-.035-3.976a2.668,2.668,0,0,0-2.631-2.7c-.062,0-.124,0-.186,0a3.157,3.157,0,0,0-2.493,1.146c-.034.034-.05.05-.067.05s-.034-.034-.034-.084c0-.236.016-1.752.016-3.116v-.961a1.176,1.176,0,0,0-1.064-1.277c-.027,0-.054,0-.081,0a3.716,3.716,0,0,0-.422-.033c-.724,0-.859.219-.859.506a.46.46,0,0,0,.449.471h.039a3.252,3.252,0,0,1,.37-.017c.438.017.573.253.573.69,0,1.011.017,2.376.018,3.808,0,2.021-.016,4.144-.032,5.51a.253.253,0,0,1-.218.285.229.229,0,0,1-.052,0c-.27,0-.32-.017-.539-.017h-.017a.462.462,0,0,0-.487.437c0,.012,0,.024,0,.036a.435.435,0,0,0,.427.442.414.414,0,0,0,.078-.005c.388-.017.809-.034,1.23-.035s.876.017,1.314.034h.017a.461.461,0,0,0,.488-.432v-.023a.457.457,0,0,0-.456-.458.4.4,0,0,0-.05,0,4.37,4.37,0,0,1-.471.017.258.258,0,0,1-.287-.225.319.319,0,0,1,0-.062c0-.791-.017-1.533-.017-2.156,0-.607.017-1.113.017-1.433a2.461,2.461,0,0,1,2.51-2.2,1.89,1.89,0,0,1,1.94,1.839c0,.049,0,.1,0,.148.017.321.034,1.113.034,1.989,0,.623-.017,1.263-.017,1.819a.261.261,0,0,1-.235.285h-.035c-.27,0-.287-.016-.506-.016h-.017a.462.462,0,0,0-.487.437c0,.011,0,.023,0,.034a.435.435,0,0,0,.427.444.409.409,0,0,0,.078-.005c.388-.018.792-.035,1.213-.035.438,0,.876.017,1.314.034h.017a.454.454,0,0,0,.488-.416c0-.013,0-.026,0-.039a.451.451,0,0,0-.444-.46A.282.282,0,0,0,851.627,654.661Z"/><path class="o" d="M757.98,650.793V642.28a1.687,1.687,0,0,0-1.685-1.685H740.887a1.686,1.686,0,0,0-1.685,1.685v11.207a1.687,1.687,0,0,0,1.685,1.685h7.275l-2.741,2.758a.421.421,0,0,0,.6.59l2.579-2.6,2.578,2.6a.421.421,0,1,0,.6-.59l-2.743-2.761h7.274a1.687,1.687,0,0,0,1.685-1.685V651.8l4.859,3.3a.418.418,0,0,0,.469-.692Zm-.836-.568-2.857-1.939a.418.418,0,1,0-.47.691l3.327,2.258v2.251a.851.851,0,0,1-.848.849H740.887a.85.85,0,0,1-.849-.849V642.28a.851.851,0,0,1,.849-.849h15.4a.851.851,0,0,1,.848.849Z"/><path class="o" d="M804.693,632.485a2.283,2.283,0,0,0,.211-1.023,1.9,1.9,0,0,0-.788-1.683,4,4,0,0,0-2.265-.538c-.293,0-.615.012-.964.035a6.024,6.024,0,0,0-.955.132v6.684h1.233V633.7h.617a6.166,6.166,0,0,0,1.321-.127,2.845,2.845,0,0,0,.979-.4A1.767,1.767,0,0,0,804.693,632.485Zm-1.561-.088a3.038,3.038,0,0,1-1.37.249h-.6v-2.31c.2-.02.46-.029.773-.029a3.839,3.839,0,0,1,.66.054,1.688,1.688,0,0,1,.534.181.923.923,0,0,1,.352.352,1.116,1.116,0,0,1,.127.558.967.967,0,0,1-.476.945Z"/><path class="o" d="M809.738,631.58a2.2,2.2,0,0,0-.778-.544,2.544,2.544,0,0,0-.994-.19,2.5,2.5,0,0,0-.988.19,2.262,2.262,0,0,0-.778.544,2.47,2.47,0,0,0-.51.847,3.168,3.168,0,0,0-.181,1.1,3.229,3.229,0,0,0,.181,1.106,2.526,2.526,0,0,0,.5.852,2.264,2.264,0,0,0,.773.547,2.488,2.488,0,0,0,1,.2,2.525,2.525,0,0,0,1-.2,2.248,2.248,0,0,0,.778-.547,2.446,2.446,0,0,0,.5-.852,3.3,3.3,0,0,0,.176-1.106,3.166,3.166,0,0,0-.181-1.1A2.526,2.526,0,0,0,809.738,631.58Zm-.857,3.171a1.155,1.155,0,0,1-1.83,0,2.036,2.036,0,0,1-.327-1.223,2,2,0,0,1,.327-1.208,1.162,1.162,0,0,1,1.83,0,1.988,1.988,0,0,1,.33,1.212A2.032,2.032,0,0,1,808.881,634.751Z"/><path class="o" d="M811.784,633.831q.216.656.431,1.233t.416,1.026h.973q.254-.725.513-1.542t.484-1.678q.225.863.494,1.678t.523,1.542h.962q.205-.449.422-1.028t.431-1.233q.216-.655.431-1.38t.422-1.478h-1.223q-.088.411-.206.886t-.251.969q-.132.5-.27.964t-.266.86q-.147-.449-.288-.93c-.094-.321-.182-.64-.263-.959s-.159-.631-.23-.934-.138-.588-.2-.857h-.91c-.059.267-.125.552-.2.857s-.155.616-.24.934-.175.64-.27.959-.191.629-.29.93c-.091-.261-.183-.547-.276-.86s-.18-.635-.266-.964-.166-.653-.245-.969-.148-.612-.206-.886h-1.255q.205.753.422,1.478T811.784,633.831Z"/><path class="o" d="M821.518,636.219a4.742,4.742,0,0,0,.519-.029c.169-.02.327-.044.475-.074.132-.027.262-.06.391-.1a1.864,1.864,0,0,0,.27-.1l-.155-.97a3.249,3.249,0,0,1-.563.166,3.717,3.717,0,0,1-.787.078,1.656,1.656,0,0,1-1.121-.337,1.349,1.349,0,0,1-.435-.955h3.376c.006-.065.011-.138.015-.22s0-.155,0-.221a2.832,2.832,0,0,0-.592-1.956,2.1,2.1,0,0,0-1.649-.656,2.354,2.354,0,0,0-.881.172,2.207,2.207,0,0,0-.763.509,2.5,2.5,0,0,0-.534.846,3.226,3.226,0,0,0-.2,1.184,3.417,3.417,0,0,0,.157,1.062,2.288,2.288,0,0,0,.48.842,2.206,2.206,0,0,0,.822.558A3.16,3.16,0,0,0,821.518,636.219Zm-1.292-3.631a1.224,1.224,0,0,1,.22-.382,1.076,1.076,0,0,1,.348-.269,1.046,1.046,0,0,1,.48-.1,1,1,0,0,1,.455.093.952.952,0,0,1,.323.254,1.11,1.11,0,0,1,.2.382,1.563,1.563,0,0,1,.066.466h-2.2a2.109,2.109,0,0,1,.111-.444Z"/><path class="o" d="M827.344,630.919c-.1-.017-.209-.029-.313-.04a2.625,2.625,0,0,0-.274-.014,5.262,5.262,0,0,0-1.14.113,6.517,6.517,0,0,0-.857.239v4.873h1.184v-4.1a2.684,2.684,0,0,1,.308-.069,2.407,2.407,0,0,1,.416-.039,2.954,2.954,0,0,1,.6.054,3.827,3.827,0,0,1,.407.1l.206-1c-.059-.02-.137-.04-.235-.063S827.447,630.936,827.344,630.919Z"/><path class="o" d="M829.056,635.461a2.2,2.2,0,0,0,.822.558,3.158,3.158,0,0,0,1.174.2,4.742,4.742,0,0,0,.519-.029c.169-.02.327-.044.475-.074.132-.027.262-.06.391-.1a1.864,1.864,0,0,0,.27-.1l-.157-.969a3.237,3.237,0,0,1-.562.166,3.719,3.719,0,0,1-.788.078,1.656,1.656,0,0,1-1.121-.337,1.349,1.349,0,0,1-.435-.955h3.376c.006-.065.011-.138.014-.22s.005-.155.005-.221a2.832,2.832,0,0,0-.592-1.956,2.1,2.1,0,0,0-1.649-.656,2.355,2.355,0,0,0-.881.172,2.194,2.194,0,0,0-.763.509,2.5,2.5,0,0,0-.534.846,3.23,3.23,0,0,0-.2,1.184,3.417,3.417,0,0,0,.157,1.062A2.285,2.285,0,0,0,829.056,635.461Zm.7-2.873a1.225,1.225,0,0,1,.22-.382,1.076,1.076,0,0,1,.348-.269,1.047,1.047,0,0,1,.48-.1,1.034,1.034,0,0,1,.455.093.939.939,0,0,1,.322.254,1.11,1.11,0,0,1,.2.382,1.585,1.585,0,0,1,.069.464h-2.2a2.044,2.044,0,0,1,.111-.442Z"/><path class="o" d="M836.61,636.218a7.081,7.081,0,0,0,2.006-.288v-7.437l-1.184.2v2.456a2.97,2.97,0,0,0-.489-.2,2.206,2.206,0,0,0-.656-.088,2.307,2.307,0,0,0-.969.191,1.984,1.984,0,0,0-.714.543,2.424,2.424,0,0,0-.446.846,3.753,3.753,0,0,0-.151,1.1,3.232,3.232,0,0,0,.181,1.111,2.349,2.349,0,0,0,.519.842,2.268,2.268,0,0,0,.818.533A3,3,0,0,0,836.61,636.218Zm-1.092-3.9a1.061,1.061,0,0,1,.945-.44,1.631,1.631,0,0,1,.553.093,1.852,1.852,0,0,1,.416.2v2.936a3.054,3.054,0,0,1-.328.054,4.359,4.359,0,0,1-.484.024,1.269,1.269,0,0,1-1.028-.445,1.858,1.858,0,0,1-.372-1.229,2.1,2.1,0,0,1,.3-1.193Z"/><path class="o" d="M844.409,636.218a2.985,2.985,0,0,0,1.087-.186,2.239,2.239,0,0,0,.817-.538,2.4,2.4,0,0,0,.519-.846,3.232,3.232,0,0,0,.181-1.111,3.73,3.73,0,0,0-.151-1.092,2.512,2.512,0,0,0-.435-.846,1.894,1.894,0,0,0-.71-.543,2.527,2.527,0,0,0-1.625-.1,2.732,2.732,0,0,0-.5.2V628.5l-1.185.2v7.242a6.549,6.549,0,0,0,2,.275Zm-.821-4.051a1.682,1.682,0,0,1,.416-.2,1.7,1.7,0,0,1,.553-.089,1.059,1.059,0,0,1,.944.44,2.1,2.1,0,0,1,.3,1.194,1.853,1.853,0,0,1-.373,1.229,1.266,1.266,0,0,1-1.027.445,4.347,4.347,0,0,1-.485-.024q-.165-.02-.327-.054Z"/><path class="o" d="M848.278,636.923a1.929,1.929,0,0,1-.7-.137l-.215.949a1.8,1.8,0,0,0,.406.127,2.719,2.719,0,0,0,1.269-.034,1.661,1.661,0,0,0,.568-.3,2.261,2.261,0,0,0,.461-.519,5.328,5.328,0,0,0,.4-.754,37.239,37.239,0,0,0,1.837-5.284h-1.223q-.225.919-.5,1.9T850,634.726q-.186-.422-.373-.911t-.354-.983q-.167-.495-.309-.974t-.24-.891h-1.256a26,26,0,0,0,.918,2.7q.516,1.273,1.076,2.349a1.8,1.8,0,0,1-.457.681A1.085,1.085,0,0,1,848.278,636.923Z"/><g class="p"><text class="z" transform="translate(929.965 330.908)"><tspan x="0" y="0">A.</tspan></text><text class="y" transform="translate(943.825 330.908)"><tspan x="0" y="0" xml:space="preserve"> En esta sección podrás acceder a diferentes tipos de </tspan></text><text class="y" transform="translate(929.965 347.708)"><tspan x="0" y="0">visualización por medio de una búsqueda básica con </tspan></text><text class="y" transform="translate(929.965 364.508)"><tspan x="0" y="0">preguntas que permite el cruce de una o más variables </tspan></text><text class="y" transform="translate(929.965 381.308)"><tspan x="0" y="0">de tu interés.</tspan></text><text class="z" transform="translate(929.965 398.108)"><tspan x="0" y="0">B.</tspan></text><text class="y" transform="translate(943.223 398.108)"><tspan x="0" y="0" xml:space="preserve"> Puedes descargar las gráficas que desees haciendo </tspan></text><text class="y" transform="translate(929.965 414.908)"><tspan x="0" y="0">click en el botón de descarga</tspan></text><text class="z" transform="translate(929.965 431.708)"><tspan x="0" y="0">C.</tspan></text><text class="y" transform="translate(943.139 431.708)"><tspan x="0" y="0" xml:space="preserve"> Al hacer click en los datos de la visualización de tu </tspan></text><text class="y" transform="translate(929.965 448.508)"><tspan x="0" y="0">interés también podrás acceder a los datos asociados a </tspan></text><text class="y" transform="translate(929.965 465.308)"><tspan x="0" y="0">la variable. Puedes acceder a todo el contenido de la </tspan></text><text class="y" transform="translate(929.965 482.108)"><tspan x="0" y="0">ficha del hecho haciendo click en &quot;ver más&quot;.</tspan></text></g></g></svg>