<svg xmlns="http://www.w3.org/2000/svg" xmlns:xlink="http://www.w3.org/1999/xlink" width="25.462" height="20.812" viewBox="0 0 25.462 20.812"><defs><style>.a{fill:none;}.b{clip-path:url(#a);}.c{fill:#fff;}</style><clipPath id="a"><rect class="a" width="25.462" height="20.812"/></clipPath></defs><g transform="translate(-1162.619 -4594.716)"><g transform="translate(1162.619 4594.716)"><g class="b" transform="translate(0 0)"><path class="c" d="M24.75.558c-.93.334-1.836.657-2.739.99a.772.772,0,0,1-.873-.2,5.239,5.239,0,0,0-8.67,4.711,3.319,3.319,0,0,1,0,.409A15.127,15.127,0,0,1,1.658.956a5.411,5.411,0,0,0,1.559,7c-.025.033-.051.064-.075.1L.924,7.435A5.586,5.586,0,0,0,5,12.65H2.778a5.413,5.413,0,0,0,4.9,3.656A10.779,10.779,0,0,1,0,18.5c.2.134.278.187.358.234a14.613,14.613,0,0,0,6.734,2.053A14.24,14.24,0,0,0,15.25,19c5.062-2.967,7.5-7.493,7.656-13.3a.934.934,0,0,1,.39-.82,9.417,9.417,0,0,0,2.166-2.334c-.511.17-.945.335-1.39.455s-.912.2-1.368.294A6.07,6.07,0,0,0,24.75.558" transform="translate(0 0)"/></g></g></g></svg>