<svg xmlns="http://www.w3.org/2000/svg" width="160.77" height="40.247" viewBox="0 0 160.77 40.247"><defs><style>.a{fill:#fff;}</style></defs><g transform="translate(-86.53 18.722)"><g transform="translate(86.53 -4.177)"><path class="a" d="M171.2-45.482h-.025c-.1,0-.192.025-.311.025-.528,0-.937-.287-.937-1.44v-3.263c0-3.286.022-7.173.045-9.188v-.1a1.745,1.745,0,0,0-1.919-1.99c-.215,0-.552.024-.792.024a.712.712,0,0,0-.743.721.616.616,0,0,0,.671.623h.047a2.963,2.963,0,0,1,.385-.025c.959,0,.959.408.96,2.04,0,1.392-.024,3.094-.024,4.319,0,.312-.024.432-.072.432s-.12-.12-.24-.288a4.823,4.823,0,0,0-3.791-1.727,5.372,5.372,0,0,0-5.444,5.687c0,3.479,2.328,5.733,5.447,5.732a4.994,4.994,0,0,0,4.006-2.015c.048-.048.072-.073.1-.073.072,0,.1.1.12.24a1.965,1.965,0,0,0,2.183,1.7c.312,0,.959-.071.959-.743A.637.637,0,0,0,171.2-45.482Zm-6.694.266c-2.4,0-4.078-1.679-4.08-4.413,0-2.76,1.655-4.439,4.078-4.44,2.279,0,4.054,1.75,4.055,4.437A4.1,4.1,0,0,1,164.508-45.216Z" transform="translate(-115.073 65.508)"/><path class="a" d="M182.631-45.8c-.959-.335-1.128-.911-1.128-2.664,0-.911.047-2.159.119-2.951a6.342,6.342,0,0,0,.025-.671c0-2.687-1.513-3.67-3.745-3.67-2.062,0-4.077,1.032-4.077,1.943a.65.65,0,0,0,.672.648.67.67,0,0,0,.5-.24,3.781,3.781,0,0,1,2.807-1.152c1.943,0,2.494,1.031,2.494,2.351,0,.12-.024.264-.024.384,0,.167-.1.24-.384.288a38.476,38.476,0,0,0-4.438.984,3.206,3.206,0,0,0-2.567,2.975c0,1.656,1.465,3.311,3.888,3.311a4.436,4.436,0,0,0,3.646-1.849.127.127,0,0,1,.1-.072c.048,0,.072.048.1.12a2.04,2.04,0,0,0,1.776,1.534.648.648,0,0,0,.647-.671A.609.609,0,0,0,182.631-45.8Zm-2.376-3.934c0,3.694-2.278,4.2-3.5,4.2-1.607,0-2.567-1.008-2.567-2.015,0-1.68,1.992-2.159,5.757-2.76h.073c.167,0,.239.072.239.265Z" transform="translate(-114.076 65.916)"/><path class="a" d="M190.055-45.405h-.1a6.587,6.587,0,0,1-.671.048c-1.871,0-1.92-1.271-1.92-3.142,0-1.776.071-4.247.071-5.159,0-.287,0-.335.384-.335h2.112a.624.624,0,0,0,.672-.648.617.617,0,0,0-.672-.623H187.8c-.311,0-.359,0-.36-.264,0,0,.048-1.92.048-2.615a.68.68,0,0,0-.7-.744.68.68,0,0,0-.7.7v.6c0,.839-.025,1.992-.025,2.088,0,.215-.046.239-.263.239h-1.391a.618.618,0,0,0-.672.625.622.622,0,0,0,.672.647h1.415c.168,0,.24.024.24.264v.384c0,1.176-.046,4.1-.046,5.637,0,1.057,0,3.671,3.072,3.671.959,0,1.535-.122,1.535-.745A.6.6,0,0,0,190.055-45.405Z" transform="translate(-113.296 65.691)"/><path class="a" d="M202.057-45.8c-.959-.335-1.128-.911-1.128-2.662,0-.912.047-2.159.12-2.951a6.63,6.63,0,0,0,.024-.672c0-2.686-1.512-3.67-3.745-3.67-2.062,0-4.077,1.032-4.077,1.944a.65.65,0,0,0,.672.647.665.665,0,0,0,.5-.24,3.785,3.785,0,0,1,2.807-1.152c1.943,0,2.494,1.032,2.494,2.351,0,.12-.022.265-.022.385,0,.167-.1.24-.384.288a38.309,38.309,0,0,0-4.439.984,3.2,3.2,0,0,0-2.566,2.974c0,1.656,1.465,3.311,3.887,3.311a4.433,4.433,0,0,0,3.646-1.849.13.13,0,0,1,.1-.072c.047,0,.071.048.1.12a2.041,2.041,0,0,0,1.776,1.535.649.649,0,0,0,.647-.672A.609.609,0,0,0,202.057-45.8Zm-2.375-3.934c0,3.695-2.279,4.2-3.5,4.2-1.607,0-2.567-1.008-2.567-2.015,0-1.68,1.992-2.16,5.757-2.761h.073c.167,0,.24.073.24.265Z" transform="translate(-112.68 65.916)"/><path class="a" d="M209.336-50.313c-.744-.384-1.9-.863-2.567-1.175a1.846,1.846,0,0,1-1.176-1.582c0-.792.7-1.537,1.943-1.537.144,0,2.279,0,2.279,1.919a.616.616,0,0,0,.672.624.591.591,0,0,0,.6-.576v-.048c-.025-.551-.025-.912-.025-1.248,0-.36,0-.7.025-1.2v-.024a.561.561,0,0,0-.6-.576.539.539,0,0,0-.551.384c-.024.072,0,.287-.12.287a.18.18,0,0,1-.145-.047,3.858,3.858,0,0,0-2.11-.647c-2.136,0-3.263,1.369-3.263,2.759a2.9,2.9,0,0,0,1.944,2.664c2.783,1.151,3.839,1.726,3.839,3,0,1.151-1.177,1.847-2.4,1.847-1.369,0-2.568-.791-2.568-1.582,0-.168.048-.287.048-.457a.616.616,0,0,0-.647-.647.63.63,0,0,0-.671.625v.048c.024.575.047.935.047,1.295s-.024.719-.047,1.248v.048a.578.578,0,0,0,.624.575c.287,0,.576-.072.576-.671,0-.072.024-.12.072-.12a.3.3,0,0,1,.168.1,3.768,3.768,0,0,0,2.4.79c2.734,0,3.789-1.776,3.789-3.094A3.436,3.436,0,0,0,209.336-50.313Z" transform="translate(-111.851 65.916)"/><path class="a" d="M223.934-45.47c-.144,0-.263.025-.359.025a.888.888,0,0,1-.7-.287c-4.343-3.981-4.967-4.558-4.967-4.725,0-.073.048-.145.192-.24,1.175-.769,3.023-2.016,4.438-2.975a1.144,1.144,0,0,1,.6-.217c.337,0,.145.024.48.024h.024a.632.632,0,0,0,.672-.624.584.584,0,0,0-.7-.624c-.624.024-1.2.025-1.727.025-.552,0-1.08,0-1.68-.024h-.048a.61.61,0,0,0-.647.624c0,.576.576.576,1.006.576.121,0,.169.024.169.072,0,.024-.025.072-.1.12-3.79,2.616-3.886,2.64-4.149,2.64a.36.36,0,0,1-.408-.384s.046-5.086.046-8.181c0-.527-.168-1.8-2.136-1.8-.839,0-1.27.072-1.27.7a.654.654,0,0,0,.671.671h.551c.6.025.792.288.792.959,0,1.3.025,2.9.026,4.583,0,2.926-.023,6.164-.07,8.684a.378.378,0,0,1-.407.407c-.385,0-.433-.024-.72-.024H213.5a.66.66,0,0,0-.7.672.621.621,0,0,0,.72.624c.551-.025,1.128-.048,1.727-.048.624,0,1.248.023,1.871.047h.024a.643.643,0,0,0,.695-.648.642.642,0,0,0-.695-.647h-.025a6.168,6.168,0,0,1-.672.024.366.366,0,0,1-.407-.407c-.025-1.151-.025-1.92-.025-2.5,0-1.248.024-1.462.384-1.462a.856.856,0,0,1,.719.287c.744.767,2.712,2.59,3.984,3.836a.188.188,0,0,1,.047.1c0,.025,0,.168-.624.168a.562.562,0,0,0-.646.625.61.61,0,0,0,.647.623h.048c.552-.024,1.079-.047,1.607-.047s1.1.023,1.728.046h.024a.641.641,0,0,0,.672-.672A.594.594,0,0,0,223.934-45.47Z" transform="translate(-111.216 65.507)"/><path class="a" d="M234.912-47.345a.685.685,0,0,0-.48.215,4.292,4.292,0,0,1-3.478,1.584,3.918,3.918,0,0,1-4.031-4.221c0-.335.048-.431.288-.432.527,0,2.566.024,4.366.024.887,0,1.7,0,2.255-.025,1.224-.048,1.751-.72,1.751-1.608a4.471,4.471,0,0,0-4.728-3.934,5.486,5.486,0,0,0-5.349,5.807,5.361,5.361,0,0,0,5.424,5.66c3.023,0,4.7-1.825,4.7-2.376A.734.734,0,0,0,234.912-47.345Zm-4.032-7.2a3.012,3.012,0,0,1,3.287,2.494c0,.384-.215.648-.791.673-.672.024-2.015.024-3.263.024-2.783,0-3,0-3-.239A3.884,3.884,0,0,1,230.879-54.542Z" transform="translate(-110.295 65.917)"/><path class="a" d="M242.94-45.416h-.1c-.239.024-.456.047-.671.047-1.872,0-1.92-1.271-1.921-3.143,0-1.775.072-4.246.072-5.158,0-.287,0-.335.384-.335h2.11a.624.624,0,0,0,.673-.648.618.618,0,0,0-.673-.624h-2.134c-.312,0-.36,0-.361-.264,0,0,.048-1.919.048-2.615a.679.679,0,0,0-.7-.742.679.679,0,0,0-.7.695v.6c0,.839-.024,1.99-.024,2.087,0,.215-.047.239-.263.239H237.3a.619.619,0,0,0-.672.624A.623.623,0,0,0,237.3-54h1.415c.168,0,.24.024.24.264v.384c0,1.176-.047,4.1-.047,5.638,0,1.056,0,3.671,3.072,3.67.96,0,1.536-.12,1.536-.744A.594.594,0,0,0,242.94-45.416Z" transform="translate(-109.495 65.69)"/><path class="a" d="M254.441-47.343a.755.755,0,0,0-.624.359,3.775,3.775,0,0,1-3.071,1.392,4.2,4.2,0,0,1-4.175-4.461,4.241,4.241,0,0,1,4.174-4.535,3.152,3.152,0,0,1,2.447.983c.287.335.215.624.239,1.128a.636.636,0,0,0,.673.576.618.618,0,0,0,.695-.6v-.048c-.024-.551-.024-.935-.024-1.295,0-.384,0-.743.024-1.248v-.048a.62.62,0,0,0-.7-.6c-.264,0-.55.119-.575.408-.024.119-.048.263-.12.263-.048,0-.072-.024-.12-.047a5.527,5.527,0,0,0-2.712-.719,5.559,5.559,0,0,0-5.4,5.879,5.454,5.454,0,0,0,5.64,5.66c2.591,0,4.389-1.608,4.389-2.3A.768.768,0,0,0,254.441-47.343Z" transform="translate(-108.881 65.91)"/><path class="a" d="M268.185-45.477h-.025c-.337,0-.312.024-.672.024-.288,0-.407-.168-.407-.432,0-1.9-.026-4.654-.049-5.662a3.8,3.8,0,0,0-4.008-3.837,4.493,4.493,0,0,0-3.55,1.632c-.048.048-.072.072-.1.072s-.048-.048-.048-.12c0-.335.023-2.5.023-4.437q0-.72,0-1.368a1.674,1.674,0,0,0-1.63-1.824,5.411,5.411,0,0,0-.6-.047c-1.031,0-1.223.312-1.223.72a.654.654,0,0,0,.671.671h.025a4.74,4.74,0,0,1,.527-.024c.624.024.816.36.816.983,0,1.44.025,3.383.026,5.423,0,2.878-.023,5.9-.046,7.845a.361.361,0,0,1-.385.408c-.384,0-.456-.025-.767-.025h-.024a.66.66,0,0,0-.695.673.619.619,0,0,0,.719.623c.552-.024,1.151-.048,1.751-.049s1.248.025,1.872.048h.024a.656.656,0,0,0,.7-.647.651.651,0,0,0-.72-.648,5.893,5.893,0,0,1-.671.025.367.367,0,0,1-.408-.408c0-1.127-.024-2.182-.025-3.07,0-.864.025-1.584.025-2.04a3.5,3.5,0,0,1,3.573-3.143,2.691,2.691,0,0,1,2.76,2.829c.024.457.048,1.584.048,2.832,0,.888-.024,1.8-.024,2.591a.372.372,0,0,1-.384.407c-.384,0-.408-.023-.72-.023h-.024a.66.66,0,0,0-.695.671.621.621,0,0,0,.719.625c.553-.026,1.128-.049,1.728-.049.624,0,1.248.024,1.871.048h.024a.645.645,0,0,0,.7-.648A.643.643,0,0,0,268.185-45.477Z" transform="translate(-108.111 65.505)"/><path class="a" d="M144.751-50.715V-62.836a2.4,2.4,0,0,0-2.4-2.4H120.418a2.4,2.4,0,0,0-2.4,2.4v15.957a2.4,2.4,0,0,0,2.4,2.4h10.359l-3.908,3.933a.6.6,0,0,0,0,.842.6.6,0,0,0,.42.173.6.6,0,0,0,.422-.176l3.672-3.7,3.671,3.7a.6.6,0,0,0,.422.176.6.6,0,0,0,.42-.173.6.6,0,0,0,0-.842L132-44.48h10.357a2.4,2.4,0,0,0,2.4-2.4v-2.4l6.919,4.694a.587.587,0,0,0,.333.1.6.6,0,0,0,.493-.26.6.6,0,0,0-.159-.827Zm-1.191-.808-4.069-2.761a.6.6,0,0,0-.827.159.6.6,0,0,0,.159.826l4.738,3.214v3.2a1.21,1.21,0,0,1-1.208,1.209H120.418a1.21,1.21,0,0,1-1.209-1.209V-62.836a1.211,1.211,0,0,1,1.209-1.209h21.935a1.211,1.211,0,0,1,1.208,1.209Z" transform="translate(-118.019 65.235)"/></g><g transform="translate(166.464 -18.722)"><path class="a" d="M206.036-75.311a3.522,3.522,0,0,0,.325-1.579,2.925,2.925,0,0,0-1.216-2.6,6.18,6.18,0,0,0-3.5-.831q-.68,0-1.487.053a9.355,9.355,0,0,0-1.473.2v10.316h1.9v-3.685h.952a9.5,9.5,0,0,0,2.039-.2,4.38,4.38,0,0,0,1.51-.611A2.724,2.724,0,0,0,206.036-75.311Zm-2.409-.136a4.679,4.679,0,0,1-2.115.385h-.921v-3.564c.311-.03.71-.045,1.193-.045a5.883,5.883,0,0,1,1.019.084,2.6,2.6,0,0,1,.824.279,1.421,1.421,0,0,1,.544.544,1.728,1.728,0,0,1,.2.861A1.492,1.492,0,0,1,203.628-75.446Z" transform="translate(-198.689 81.466)"/><path class="a" d="M212.624-77.053a3.418,3.418,0,0,0-1.2-.839,3.934,3.934,0,0,0-1.534-.294,3.865,3.865,0,0,0-1.525.294,3.494,3.494,0,0,0-1.2.839,3.833,3.833,0,0,0-.787,1.307,4.92,4.92,0,0,0-.279,1.7,4.981,4.981,0,0,0,.279,1.707,3.9,3.9,0,0,0,.778,1.315,3.484,3.484,0,0,0,1.193.845,3.829,3.829,0,0,0,1.541.3,3.88,3.88,0,0,0,1.548-.3,3.462,3.462,0,0,0,1.2-.845,3.794,3.794,0,0,0,.77-1.315,5.1,5.1,0,0,0,.272-1.707,4.892,4.892,0,0,0-.28-1.7A3.887,3.887,0,0,0,212.624-77.053ZM211.3-72.16a1.645,1.645,0,0,1-1.412.695,1.649,1.649,0,0,1-1.413-.695,3.146,3.146,0,0,1-.505-1.888,3.082,3.082,0,0,1,.505-1.865,1.654,1.654,0,0,1,1.413-.688,1.651,1.651,0,0,1,1.412.688,3.075,3.075,0,0,1,.507,1.865A3.138,3.138,0,0,1,211.3-72.16Z" transform="translate(-197.49 81.811)"/><path class="a" d="M214.616-73.607q.333,1.013.666,1.9t.636,1.586h1.5q.39-1.117.791-2.379t.747-2.59q.347,1.33.762,2.59t.808,2.379h1.485q.317-.694.651-1.586t.666-1.9q.333-1.011.666-2.13t.651-2.281h-1.888q-.138.634-.318,1.367t-.388,1.5q-.2.763-.417,1.488c-.142.483-.279.925-.41,1.328q-.227-.694-.444-1.435t-.407-1.48q-.19-.741-.354-1.442t-.3-1.322h-1.4q-.136.62-.31,1.322t-.371,1.442q-.2.741-.416,1.48t-.447,1.435c-.141-.4-.282-.845-.425-1.328s-.278-.979-.41-1.488-.257-1.007-.379-1.5-.228-.945-.318-1.367H213.3q.317,1.162.651,2.281T214.616-73.607Z" transform="translate(-196.324 81.838)"/><path class="a" d="M227.933-69.894a6.987,6.987,0,0,0,.8-.045c.261-.03.505-.067.733-.114a6.1,6.1,0,0,0,.6-.15,2.88,2.88,0,0,0,.416-.159l-.242-1.5a4.964,4.964,0,0,1-.869.257,5.632,5.632,0,0,1-1.215.121,2.557,2.557,0,0,1-1.73-.52,2.085,2.085,0,0,1-.672-1.473h5.211c.009-.1.017-.213.023-.339s.007-.239.007-.34a4.372,4.372,0,0,0-.914-3.02,3.248,3.248,0,0,0-2.544-1.013,3.638,3.638,0,0,0-1.359.265,3.4,3.4,0,0,0-1.178.785,3.844,3.844,0,0,0-.824,1.306A4.957,4.957,0,0,0,223.87-74a5.3,5.3,0,0,0,.242,1.639,3.523,3.523,0,0,0,.74,1.3,3.383,3.383,0,0,0,1.269.861A4.86,4.86,0,0,0,227.933-69.894Zm-1.994-5.6a1.885,1.885,0,0,1,.339-.589,1.681,1.681,0,0,1,.537-.415,1.634,1.634,0,0,1,.74-.159,1.572,1.572,0,0,1,.7.144,1.459,1.459,0,0,1,.5.393,1.716,1.716,0,0,1,.31.589,2.427,2.427,0,0,1,.106.717h-3.4A3.222,3.222,0,0,1,225.939-75.5Z" transform="translate(-194.614 81.811)"/><path class="a" d="M235.657-78.076c-.162-.026-.323-.045-.483-.062s-.3-.022-.423-.022a8.2,8.2,0,0,0-1.759.174,10.048,10.048,0,0,0-1.322.369v7.522H233.5v-6.328a4.16,4.16,0,0,1,.475-.106,3.751,3.751,0,0,1,.643-.06,4.579,4.579,0,0,1,.928.084,6.032,6.032,0,0,1,.627.158l.317-1.541c-.091-.03-.212-.062-.362-.1S235.818-78.051,235.657-78.076Z" transform="translate(-193.352 81.815)"/><path class="a" d="M237.514-71.064a3.383,3.383,0,0,0,1.269.861,4.859,4.859,0,0,0,1.812.309,6.985,6.985,0,0,0,.8-.045c.261-.03.505-.067.733-.114a6.1,6.1,0,0,0,.6-.15,2.879,2.879,0,0,0,.416-.159l-.242-1.5a5.006,5.006,0,0,1-.868.257,5.65,5.65,0,0,1-1.216.121,2.557,2.557,0,0,1-1.73-.52,2.084,2.084,0,0,1-.672-1.473h5.211c.009-.1.017-.213.022-.339s.008-.239.008-.34a4.372,4.372,0,0,0-.914-3.02,3.248,3.248,0,0,0-2.544-1.013,3.638,3.638,0,0,0-1.359.265,3.392,3.392,0,0,0-1.178.785,3.845,3.845,0,0,0-.824,1.306A4.982,4.982,0,0,0,236.532-74a5.3,5.3,0,0,0,.242,1.639A3.523,3.523,0,0,0,237.514-71.064ZM238.6-75.5a1.886,1.886,0,0,1,.339-.589,1.68,1.68,0,0,1,.537-.415,1.634,1.634,0,0,1,.74-.159,1.585,1.585,0,0,1,.7.144,1.455,1.455,0,0,1,.5.393,1.716,1.716,0,0,1,.31.589,2.426,2.426,0,0,1,.106.717h-3.4A3.156,3.156,0,0,1,238.6-75.5Z" transform="translate(-192.565 81.811)"/><path class="a" d="M247.973-69.389a10.6,10.6,0,0,0,1.729-.136,10.679,10.679,0,0,0,1.367-.3V-81.306l-1.828.3v3.791a4.573,4.573,0,0,0-.755-.3,3.419,3.419,0,0,0-1.012-.136,3.581,3.581,0,0,0-1.5.3,3.058,3.058,0,0,0-1.1.838,3.734,3.734,0,0,0-.688,1.306,5.8,5.8,0,0,0-.234,1.7,4.972,4.972,0,0,0,.279,1.715,3.629,3.629,0,0,0,.8,1.3,3.487,3.487,0,0,0,1.262.823A4.6,4.6,0,0,0,247.973-69.389ZM246.288-75.4a1.637,1.637,0,0,1,1.458-.68,2.513,2.513,0,0,1,.853.143,2.887,2.887,0,0,1,.642.31V-71.1c-.131.03-.3.058-.507.084a6.47,6.47,0,0,1-.747.037,1.954,1.954,0,0,1-1.586-.687,2.865,2.865,0,0,1-.574-1.9A3.245,3.245,0,0,1,246.288-75.4Z" transform="translate(-191.364 81.306)"/><path class="a" d="M258.2-69.389a4.606,4.606,0,0,0,1.678-.287,3.441,3.441,0,0,0,1.261-.831,3.689,3.689,0,0,0,.8-1.306,4.966,4.966,0,0,0,.279-1.715,5.738,5.738,0,0,0-.233-1.685,3.869,3.869,0,0,0-.672-1.306,2.92,2.92,0,0,0-1.1-.838,3.6,3.6,0,0,0-1.487-.3,3.594,3.594,0,0,0-1.02.136,4.292,4.292,0,0,0-.777.3v-4.093l-1.829.3v11.177a10.724,10.724,0,0,0,1.367.3A10.6,10.6,0,0,0,258.2-69.389Zm-1.267-6.253a2.589,2.589,0,0,1,.641-.3,2.606,2.606,0,0,1,.854-.137,1.635,1.635,0,0,1,1.457.68,3.244,3.244,0,0,1,.461,1.843,2.865,2.865,0,0,1-.575,1.9,1.954,1.954,0,0,1-1.585.687,6.477,6.477,0,0,1-.748-.037,5.043,5.043,0,0,1-.505-.084Z" transform="translate(-189.559 81.306)"/><path class="a" d="M263.109-68.834a2.984,2.984,0,0,1-1.078-.211L261.7-67.58a2.777,2.777,0,0,0,.627.2,3.929,3.929,0,0,0,.839.091,3.964,3.964,0,0,0,1.119-.143,2.544,2.544,0,0,0,.877-.461,3.5,3.5,0,0,0,.711-.8,8.2,8.2,0,0,0,.619-1.163,57.631,57.631,0,0,0,2.835-8.156h-1.888q-.347,1.42-.768,2.938t-.9,2.863q-.288-.65-.576-1.406t-.546-1.517q-.256-.763-.478-1.5t-.371-1.374h-1.948a39.891,39.891,0,0,0,1.417,4.169q.8,1.964,1.661,3.625a2.783,2.783,0,0,1-.705,1.05A1.677,1.677,0,0,1,263.109-68.834Z" transform="translate(-188.492 81.838)"/></g></g></svg>