<svg xmlns="http://www.w3.org/2000/svg" width="259.882" height="64.076" viewBox="0 0 259.882 64.076"><defs><style>.a{fill:#fff;}</style></defs><path class="a" d="M127.629,77.093q3.867-.058,7.715,0c.692,0,.893-.193.889-.889q-.031-19.12,0-38.236c0-.715-.22-.878-.9-.87-3.33.031-6.656.05-9.985,0-.909,0-1.11.236-1.1,1.125.043,6.137.023,12.275.023,18.725-.387-.433-.568-.654-.754-.882L108.877,37.894a1.587,1.587,0,0,0-1.369-.8q-3.968.075-7.939,0c-.746,0-.859.267-.859.92q.031,19.062,0,38.124c0,.754.2.963.947.955,3.326-.035,6.656-.05,9.981,0,.913,0,1.125-.248,1.118-1.129-.043-5.843-.023-11.691,0-17.534,0-.3-.17-.661.174-.963.155.182.306.348.441.518q7.379,9.177,14.746,18.362A1.705,1.705,0,0,0,127.629,77.093Z" transform="translate(-67.152 -32.545)"/><path class="a" d="M208.957,57.042v19c0,.7.046,1.075.936,1.071q15.991-.046,31.982,0c.773,0,.951-.228.936-.967-.046-2.6-.077-5.205,0-7.8.035-1.079-.309-1.292-1.319-1.284-6.54.046-13.079,0-19.619.039-.727,0-1.006-.147-.955-.917a19.6,19.6,0,0,0,0-3.051c-.077-.9.271-1.033,1.083-1.025,5.178.039,10.357,0,15.535.035.773,0,1.029-.189,1.013-1-.054-2.6-.07-5.2,0-7.8.027-.982-.2-1.268-1.226-1.257-5.1.058-10.206,0-15.31.05-.913,0-1.16-.251-1.1-1.125a15.11,15.11,0,0,0,0-2.707c-.093-.971.278-1.16,1.2-1.16,6.54.039,13.083,0,19.622.039.855,0,1.083-.22,1.064-1.071q-.085-3.956,0-7.916c0-.82-.159-1.087-1.044-1.083q-15.879.05-31.754,0c-.839,0-1.075.189-1.071,1.052C208.976,44.454,208.957,50.746,208.957,57.042Z" transform="translate(-134.747 -32.558)"/><path class="a" d="M22.213,76.194A18.565,18.565,0,0,1,25.6,75.3a75.335,75.335,0,0,1,13.988-.855c.723,0,.986-.159.967-.928-.054-2.181-.035-4.362,0-6.547,0-.561-.124-.808-.75-.8a97.646,97.646,0,0,0-9.974.321,13.849,13.849,0,0,0-3.631.433h0a2.038,2.038,0,0,0-1.16.209,1.47,1.47,0,0,0-.909.209h0a1.35,1.35,0,0,0-.874.232.859.859,0,0,0-.681.217h0a1.957,1.957,0,0,0-1.16.437,6.1,6.1,0,0,0-3.867,3.887h0c-.251.178-.2.441-.189.692a3.063,3.063,0,0,0-.193,1.357h0v.228h0v.452a9.6,9.6,0,0,0,.085,2.707.642.642,0,0,0,.077.244A9.119,9.119,0,0,0,18.1,80.6C18.465,77.965,20.221,76.959,22.213,76.194Z" transform="translate(-17.106 -50.379)"/><path class="a" d="M443.91,25.339c-.967,0-.63.669-.63,1.1v47.6c-.031.425.151.572.584.623.828.1.99-.248.986-1.013-.027-7.878,0-15.755,0-23.633V26.275C444.823,25.54,444.641,25.328,443.91,25.339Z" transform="translate(-278.433 -25.339)"/><path class="a" d="M577.559,65.989c-.333,1.342-.82,2.645-1.33,4.254-.576-1.667-1.075-3.036-1.516-4.424-.17-.538-.387-.808-1.009-.8s-.773.317-.913.773c-.464,1.4-.951,2.784-1.512,4.424-.514-1.57-1-2.87-1.353-4.208-.247-.944-.7-1.2-1.6-.835.677,2.123,1.373,4.192,1.988,6.284.2.688.611.731,1.16.719s.611-.476.743-.843c.491-1.377.963-2.757,1.547-4.385.588,1.725,1.079,3.148,1.547,4.575a.773.773,0,0,0,.886.657c.452-.023.773-.058.932-.584.657-2.154,1.357-4.293,2.046-6.447C578.282,64.867,577.795,65.041,577.559,65.989Z" transform="translate(-355.151 -49.668)"/><path class="a" d="M527.747,126.364l1.856-2.6v3.813c0,.429-.139.9.615.917s.7-.476.7-.963v-5.19c0-.352.271-.874-.36-1.017-.53-.116-.824.2-1.1.6-.773,1.121-1.59,2.224-2.448,3.423-.936-1.3-1.779-2.452-2.595-3.624a.921.921,0,0,0-.975-.387c-.534.07-.356.5-.36.773v5.53c0,.51.027.862.7.843s.638-.348.63-.8v-3.914c.773,1.06,1.311,1.818,1.852,2.587C526.742,127.068,527.241,127.068,527.747,126.364Z" transform="translate(-327.391 -84.188)"/><path class="a" d="M607.442,65.6c-.634.932-1.338,1.821-1.965,2.765-.36.541-.572.677-.99.031-.654-1.013-1.412-1.957-2.092-2.955a.909.909,0,0,0-1.083-.387c-.418.1-.259.491-.259.773v5.542c0,.433-.039.8.607.816s.742-.282.727-.824c-.031-1.16,0-2.359,0-3.867.708.986,1.2,1.678,1.705,2.367.746,1.021,1.071,1.013,1.833-.039.5-.692.99-1.388,1.485-2.081l.2.1v3.616c0,.5.085.75.669.746s.665-.294.661-.773V66.116c0-.356.282-.886-.325-1.048A1,1,0,0,0,607.442,65.6Z" transform="translate(-375.207 -49.664)"/><path class="a" d="M577.919,43.453c0,.522.035.847.708.831s.619-.387.615-.816v-4.1l.561.619c1.11,1.288,2.228,2.568,3.322,3.867a.944.944,0,0,0,1.1.387c.445-.159.232-.588.232-.893.019-1.81,0-3.62.023-5.414,0-.568-.131-.808-.773-.8s-.611.387-.607.812V41.72c-.387.062-.452-.217-.588-.387-1.094-1.249-2.185-2.5-3.256-3.771a.959.959,0,0,0-1.087-.387c-.464.151-.248.576-.251.878C577.919,39.833,577.954,41.643,577.919,43.453Z" transform="translate(-361.007 -32.57)"/><path class="a" d="M478.842,43.375c0,.514,0,.866.7.851.6,0,.646-.309.634-.773-.027-1.276,0-2.552,0-4.138.306.348.422.476.534.607,1.056,1.226,2.123,2.444,3.167,3.682.333.387.669.773,1.226.6s.271-.715.278-1.083c.027-1.767,0-3.535.019-5.3,0-.5-.089-.773-.673-.773s-.692.232-.681.739c.027,1.3,0,2.591,0,3.867-.387,0-.464-.255-.6-.414-1.091-1.249-2.185-2.494-3.252-3.759a.99.99,0,0,0-1.083-.387c-.425.116-.247.5-.247.773C478.846,39.689,478.865,41.534,478.842,43.375Z" transform="translate(-300.266 -32.515)"/><path class="a" d="M649.673,71.31c0,.441-.116.9.63.9s.7-.364.692-.862V67.284l1.972,2.282c.619.712,1.249,1.415,1.849,2.142a1.017,1.017,0,0,0,1.071.464c.565-.135.325-.611.329-.936.019-1.736,0-3.481,0-5.205,0-.452.186-.982-.65-1s-.7.445-.7.94v3.666a.932.932,0,0,1-.607-.41c-1.06-1.226-2.135-2.444-3.183-3.682a1.037,1.037,0,0,0-1.064-.48c-.584.128-.325.607-.329.928C649.657,67.763,649.673,69.534,649.673,71.31Z" transform="translate(-405.017 -49.679)"/><path class="a" d="M500.242,71.46c0,.514.116.746.688.75s.654-.309.646-.773c-.019-1.28,0-2.564,0-3.9.422.046.514.333.677.518.994,1.137,1.976,2.282,2.958,3.43.344.41.685.9,1.3.685s.267-.773.279-1.183c.039-1.7,0-3.4,0-5.089,0-.483.031-.862-.677-.855s-.688.387-.681.866v4c-.306-.344-.429-.476-.545-.611-1.11-1.284-2.231-2.564-3.33-3.867a.947.947,0,0,0-1-.356c-.491.112-.306.538-.306.843C500.245,67.766,500.265,69.611,500.242,71.46Z" transform="translate(-313.382 -49.686)"/><path class="a" d="M506.832,128.205c.538,0,.611-.263.615-.7s-.174-.58-.607-.568c-.944.023-1.887,0-2.831,0-.63,0-1.029,0-1.036-.862s.464-.855,1.06-.835c.53,0,1.06.031,1.586,0,.452-.031,1.114.306,1.1-.65,0-.874-.626-.565-1.044-.592a11.31,11.31,0,0,0-1.81,0c-.731.073-.862-.236-.878-.9,0-.739.267-.893.928-.862.94.05,1.887,0,2.831,0,.433,0,.712-.046.708-.592s-.19-.661-.669-.634-1.06,0-1.586,0c-1.125.043-2.6-.476-3.283.178-.746.719-.112,2.212-.232,3.167v3.129c0,.468.116.692.63.684C503.812,128.186,505.324,128.182,506.832,128.205Z" transform="translate(-314.199 -83.913)"/><path class="a" d="M601.374,176.524c-.2.773-.472,1.508-.739,2.251-.081.224-.074.584-.449.553-.267-.027-.3-.3-.387-.51-.294-.812-.6-1.624-.874-2.448-.128-.387-.286-.642-.773-.65a.793.793,0,0,0-.882.657c-.387,1.122-.793,2.228-1.288,3.6-.445-1.323-.843-2.371-1.141-3.442-.213-.773-.615-.967-1.392-.673.568,1.675,1.16,3.334,1.694,5.008.147.441.309.7.847.708s.688-.333.835-.739c.387-1.094.773-2.185,1.272-3.527.495,1.357.909,2.483,1.307,3.608.135.387.286.661.773.654a.746.746,0,0,0,.828-.576c.561-1.713,1.16-3.419,1.725-5.136C601.981,175.554,601.571,175.759,601.374,176.524Z" transform="translate(-370.563 -117.56)"/><path class="a" d="M484.168,70.887c-1.021.023-2.042-.031-3.059.019-.723.035-.665-.387-.665-.866s-.054-.913.665-.874c.773.043,1.586,0,2.375,0,.464,0,.677-.1.681-.627s-.236-.626-.688-.615c-.754.023-1.512-.039-2.262,0s-.773-.321-.773-.886.035-.936.773-.889c.978.062,1.965,0,2.947,0,.456,0,.8,0,.773-.638-.019-.561-.325-.576-.735-.572-1.435,0-2.87.023-4.3,0-.572,0-.82.143-.773.773.05.9,0,1.806,0,2.707s.035,1.883,0,2.823c-.031.607.1.889.793.866,1.431-.043,2.866,0,4.3,0,.421,0,.715-.035.727-.588S484.655,70.876,484.168,70.887Z" transform="translate(-300.445 -49.625)"/><path class="a" d="M634.275,71.514c0-.514-.2-.638-.673-.627-.982.023-1.965-.023-2.947.019-.626.027-.862-.147-.855-.816s.116-.99.862-.928,1.435,0,2.15,0c.422,0,.712-.027.727-.584s-.282-.669-.773-.654c-.715.023-1.435-.035-2.15,0s-.812-.244-.82-.855.12-.971.866-.92c.94.062,1.887,0,2.831,0,.456,0,.8,0,.773-.626,0-.553-.3-.588-.719-.584-1.435,0-2.87.031-4.3,0-.615,0-.773.2-.773.773.043.9,0,1.806,0,2.707,0,.978.023,1.961,0,2.939,0,.518.124.743.688.731,1.47-.031,2.943-.027,4.416,0C634.089,72.148,634.275,72.024,634.275,71.514Z" transform="translate(-392.04 -49.625)"/><path class="a" d="M481.335,94.615c.866.043,1.733,0,2.6,0,.5,0,.746-.093.739-.673s-.251-.681-.754-.673c-1.431.023-2.866.035-4.3,0-.611,0-.773.213-.754.773.039.9,0,1.806,0,2.707,0,1.017.019,2.03,0,3.047,0,.5.19.65.665.646s.731-.089.7-.615c-.027-.452.031-.909,0-1.354-.058-.607.186-.8.773-.773.677.046,1.357,0,2.034,0,.468,0,.889.058.878-.661s-.507-.592-.928-.6h-1.582c-.638,0-1.218.147-1.21-.9C480.19,94.623,480.612,94.58,481.335,94.615Z" transform="translate(-300.291 -66.999)"/><path class="a" d="M390.752,175.771c-.429-.124-.7.139-.936.468-.669.9-1.353,1.8-2.1,2.781-.773-1.009-1.466-1.934-2.158-2.866a.839.839,0,0,0-.87-.387c-.522.1-.329.526-.333.824-.019,1.392,0,2.788,0,4.181,0,.425-.066.839.6.824s.561-.46.561-.862v-2.916c.638.831,1.087,1.384,1.5,1.957.487.677.909.654,1.423,0A6.885,6.885,0,0,1,389.948,178v2.827c0,.387,0,.75.565.773s.53-.387.53-.773v-4.184C391.027,176.335,391.228,175.91,390.752,175.771Z" transform="translate(-242.313 -117.575)"/><path class="a" d="M641.04,128.393a3.252,3.252,0,0,0,1.934-.51c.251-.17.851-.267.387-.8-.274-.321-.453-.7-1.079-.356a2.34,2.34,0,0,1-3.129-.6,2.425,2.425,0,0,1-.027-2.939,2.286,2.286,0,0,1,3.117-.673c.692.387.9-.043,1.16-.387.387-.538-.228-.615-.487-.773a3.757,3.757,0,1,0-1.876,7.038Z" transform="translate(-397.474 -83.935)"/><path class="a" d="M577.582,126.688a1.953,1.953,0,0,1-1.62.3,2.421,2.421,0,0,1-1.934-1.837,2.274,2.274,0,0,1,.808-2.433,2.123,2.123,0,0,1,2.626-.305c.669.414,1.005.1,1.257-.36.387-.7-.406-.684-.7-.835a3.647,3.647,0,0,0-4.2.619,3.755,3.755,0,0,0,2.521,6.5,3.222,3.222,0,0,0,1.934-.522c.232-.155.773-.228.464-.692C578.483,126.789,578.24,126.228,577.582,126.688Z" transform="translate(-357.796 -83.892)"/><path class="a" d="M494.155,176.492c0-.387.062-.75-.538-.773s-.623.364-.619.8v3.187l-1.729-1.9c-.507-.561-1.025-1.11-1.524-1.678a.866.866,0,0,0-.986-.36c-.336.116-.228.437-.232.685v4.409c0,.452.093.708.619.708s.58-.3.569-.731c-.023-1,0-2,0-2.978.348-.027.418.174.538.3.893.975,1.787,1.934,2.668,2.931.263.29.534.572.963.445s.278-.565.282-.866C494.167,179.28,494.155,177.884,494.155,176.492Z" transform="translate(-306.209 -117.562)"/><path class="a" d="M254.374,178.121c-.53.031-1.477-.507-1.547.491s1,.193,1.439.669a1.885,1.885,0,0,1-2.73.9,1.968,1.968,0,0,1-.9-2.514,2.119,2.119,0,0,1,2.784-1.009c.236.108.437.294.669.418.387.22.654-.1.878-.309s-.046-.387-.2-.538a3.422,3.422,0,0,0-3.8-.437,3,3,0,0,0-1.582,3.218,3.063,3.063,0,0,0,2.541,2.4c1.756.193,2.873-.363,3.442-1.717C255.925,178.415,255.724,178.044,254.374,178.121Z" transform="translate(-159.528 -117.378)"/><path class="a" d="M236.754,176.424c0-.449-.062-.7-.6-.7s-.584.317-.58.727v3.245c-1.214-1.342-2.224-2.444-3.225-3.562-.271-.3-.58-.518-.986-.348s-.209.526-.209.8v4.065c0,.425-.162.951.6.924s.534-.584.545-.982c.027-.9,0-1.791,0-2.924.294.279.406.387.5.476.944,1.029,1.887,2.057,2.819,3.094a.773.773,0,0,0,.9.282c.333-.128.209-.441.209-.692C236.746,179.359,236.731,177.889,236.754,176.424Z" transform="translate(-148.347 -117.563)"/><path class="a" d="M333.739,180.477h-2.494c-.483,0-.773-.062-.773-.661s.244-.773.8-.739,1.133,0,1.7,0c.364,0,.685,0,.665-.518s-.36-.487-.708-.487c-.6,0-1.21-.019-1.814,0-.487,0-.646-.174-.646-.665s.1-.773.677-.754c.866.031,1.736,0,2.607,0,.352,0,.568-.081.576-.495s-.182-.526-.549-.518h-1.934c-.569,0-1.137.043-1.7,0-.677-.058-.832.236-.816.851.035,1.392.027,2.788,0,4.181,0,.541.089.843.735.82,1.207-.039,2.417,0,3.624,0,.387,0,.65-.081.63-.561S334.068,180.477,333.739,180.477Z" transform="translate(-208.589 -117.509)"/><path class="a" d="M574.255,180.487c-.793,0-1.586-.023-2.375,0-.542.023-.719-.17-.723-.712s.22-.715.739-.688c.6.035,1.211,0,1.814,0,.317,0,.6,0,.615-.449s-.244-.565-.642-.557h-1.81c-.53.023-.719-.162-.719-.715s.2-.723.731-.7c.828.027,1.659,0,2.49,0,.387,0,.65-.073.638-.545s-.259-.472-.592-.468h-1.586c-2.8,0-2.8,0-2.8,2.8v2.371c0,.487.174.673.661.665h3.624c.348,0,.685.031.7-.487C575.052,180.425,574.638,180.487,574.255,180.487Z" transform="translate(-356.206 -117.52)"/><path class="a" d="M316.257,180.523h-2.378c-.514,0-.773-.116-.75-.688s.186-.746.731-.712c.6.039,1.21,0,1.814,0,.321,0,.6,0,.619-.449s-.248-.565-.642-.557h-1.586c-.526,0-.948.043-.944-.731s.522-.669.99-.677h2.27c.348,0,.576-.093.58-.5s-.213-.51-.568-.5h-1.477c-2.908,0-2.908,0-2.908,2.931,0,.719.019,1.435,0,2.15-.019.507.12.773.692.754,1.207-.027,2.417,0,3.627,0,.387,0,.661-.058.646-.545S316.6,180.523,316.257,180.523Z" transform="translate(-197.96 -117.556)"/><path class="a" d="M555.594,175.737c-.862-.023-.65.619-.592,1.021.17,1.16-.259,1.485-1.412,1.419-1.806-.1-1.825-.027-1.934-1.767-.027-.449-.1-.7-.634-.681s-.538.278-.534.657v4.4c0,.449,0,.816.634.793s.514-.387.53-.773c.07-1.651.073-1.651,1.674-1.651s1.632,0,1.655,1.57c0,.387-.151.847.541.859s.619-.48.619-.92v-3.945C556.128,176.324,556.379,175.756,555.594,175.737Z" transform="translate(-344.216 -117.569)"/><path class="a" d="M678.021,65.057c-.87.027-1.737,0-2.6,0h-2.707c-.429,0-.6.143-.592.588s.089.65.553.623c.34,0,.685.031,1.021,0,.727-.093.994.155.963.924-.062,1.462,0,2.931-.027,4.4,0,.526.24.619.692.627s.677-.128.657-.638c-.035-1.013-.019-2.03,0-3.047,0-.708-.189-1.578.151-2.077s1.261-.139,1.934-.174c.387,0,.623-.077.627-.561S678.513,65.034,678.021,65.057Z" transform="translate(-418.809 -49.696)"/><path class="a" d="M522.538,38.3c.3,0,.611.027.9,0,.681-.089.932.135.905.859-.058,1.466,0,2.935-.027,4.4,0,.445.07.7.6.7s.773-.12.739-.692c-.039-1.052,0-2.108,0-3.16,0-1.934,0-1.961,1.895-2.1.476-.031.665-.155.654-.657s-.224-.568-.627-.565H522.6c-.464,0-.773,0-.773.642S522.132,38.308,522.538,38.3Z" transform="translate(-326.64 -32.545)"/><path class="a" d="M662.356,122.19a22.055,22.055,0,0,1-1.373,2.054c-1.354-.851-1.214-3.214-3.643-2.873.561.831,1.017,1.547,1.524,2.247.882,1.195,1.709,2.39,1.388,4.007-.093.456-.074.882.642.878s.7-.445.634-.893a4.653,4.653,0,0,1,1.2-3.724c.607-.75,1.094-1.593,1.678-2.456A1.535,1.535,0,0,0,662.356,122.19Z" transform="translate(-409.745 -84.197)"/><path class="a" d="M120.442,175.7c-.5,0-.661.189-.646.669.027.828.035,1.655,0,2.483a1.725,1.725,0,0,1-1.686,1.767,1.763,1.763,0,0,1-1.791-1.791c-.031-.773,0-1.582,0-2.371,0-.387.05-.75-.541-.773s-.607.282-.6.712c0,.862-.031,1.733,0,2.595a2.68,2.68,0,0,0,2.955,2.587,2.6,2.6,0,0,0,2.8-2.618v-1.241h0v-1.357C120.964,176.005,120.944,175.719,120.442,175.7Z" transform="translate(-77.243 -117.543)"/><path class="a" d="M101.751,178.211c-.565-.209-1.16-.387-1.713-.58-.282-.108-.565-.306-.507-.657s.364-.456.677-.5a3.21,3.21,0,0,1,1.984.267c.452.236.626-.043.773-.344.236-.449-.193-.5-.433-.592a4.443,4.443,0,0,0-2.989-.166,1.523,1.523,0,0,0-1.241,1.307,1.415,1.415,0,0,0,1,1.477c.692.294,1.419.5,2.123.773.321.116.669.278.646.685-.027.468-.429.58-.808.638a3.647,3.647,0,0,1-2.1-.309c-.452-.213-.63.07-.8.367-.255.468.2.48.433.588a3.867,3.867,0,0,0,1.88.29h.565c.971-.058,1.841-.317,2-1.427S102.59,178.529,101.751,178.211Z" transform="translate(-66.898 -117.402)"/><path class="a" d="M474.389,175.74c-.712,0-.507.507-.518.874-.023.715,0,1.431,0,2.146a1.787,1.787,0,0,1-1.686,1.9,1.807,1.807,0,0,1-1.833-1.876c-.031-.828,0-1.655,0-2.483,0-.367-.12-.553-.518-.557s-.642.1-.627.568c.023.975-.058,1.961.046,2.931.174,1.593,1.365,2.456,3.133,2.386A2.653,2.653,0,0,0,475,179.038c.027-.41,0-.828,0-1.241v-1.129C475,176.293,475.162,175.724,474.389,175.74Z" transform="translate(-294.362 -117.575)"/><path class="a" d="M624.075,44.193h3.848c.518,0,.626-.232.623-.692s-.189-.6-.611-.588c-.754,0-1.512-.039-2.262,0-.681.05-.932-.143-.9-.866.054-1.466,0-2.931.027-4.4,0-.5-.178-.65-.661-.646s-.7.1-.685.623c.031.978,0,1.957,0,2.935v2.931C623.433,43.98,623.572,44.2,624.075,44.193Z" transform="translate(-388.959 -32.49)"/><path class="a" d="M280.59,175.591a8.509,8.509,0,0,0-1.133,0c-.936.054-2.131-.387-2.734.178s-.1,1.791-.2,2.56c0,.913.019,1.667,0,2.421-.019.487.159.681.65.673s.5-.309.522-.681c.1-1.547.108-1.547,1.663-1.547h.909c.387,0,.557-.12.557-.514s-.189-.53-.557-.526c-.6,0-1.21-.027-1.814,0s-.773-.182-.773-.773c0-.65.29-.773.831-.727.677.031,1.361.023,2.042,0,.41,0,.975.2.959-.572C281.479,175.386,280.957,175.618,280.59,175.591Z" transform="translate(-176.137 -117.415)"/><path class="a" d="M31.277,102.532a3.415,3.415,0,0,0,1.238-.132.846.846,0,0,0,.189-.066l.077.031.077-.043A6.075,6.075,0,0,0,35,102.11h8.075c.518.193.754.073.746-.538q-.039-2.707,0-5.414c0-.576-.255-.681-.75-.673-1.5,0-3.009-.035-4.513,0a37.913,37.913,0,0,0-6.617.476h0a.2.2,0,0,0-.217,0,3.593,3.593,0,0,0-1.589.228,3.132,3.132,0,0,0-1.354.251,1.473,1.473,0,0,0-.909.217.831.831,0,0,0-.7.193,2.827,2.827,0,0,0-1.354.468,3.094,3.094,0,0,0-1.388.638,3.173,3.173,0,0,0-1.8,2.073h0a1.833,1.833,0,0,0-.077,1.651.387.387,0,0,0,.073.182l.209.5h0l.22.452h0l.244.418a2.835,2.835,0,0,0,.889,1.16,3.094,3.094,0,0,0,1.094,1.1l.329-.9.5-.441h0c.139-.143.275-.286.414-.425Z" transform="translate(-20.35 -68.348)"/><path class="a" d="M537.62,175.75h-4.413c-.387,0-.541.166-.538.541s.193.46.5.464a3.977,3.977,0,0,0,.569,0c.866-.128,1.214.17,1.133,1.1-.089,1.044,0,2.1-.027,3.156,0,.445.189.588.619.584s.5-.228.5-.576c0-.773-.023-1.5,0-2.258.023-.626-.255-1.357.147-1.849.317-.387,1-.1,1.52-.155.294-.027.507-.1.514-.452S538.011,175.746,537.62,175.75Z" transform="translate(-333.288 -117.582)"/><path class="a" d="M209.854,175.754h-3.972c-.329,0-.712-.073-.735.449-.027.584.387.607.773.545,1.23-.213,1.617.333,1.435,1.473a5.874,5.874,0,0,0,0,.9v1.81c0,.387.043.657.538.654s.588-.209.584-.623c0-.9.062-1.818-.019-2.707-.1-1.1.135-1.736,1.419-1.508.387.07.773.035.75-.545C210.566,175.677,210.179,175.758,209.854,175.754Z" transform="translate(-132.427 -117.582)"/><path class="a" d="M661.052,180.523a14.379,14.379,0,0,0-1.582,0c-.816.093-1.16-.135-1.091-1.029a18.537,18.537,0,0,0,0-2.707c0-.406.321-1.048-.545-1.079s-.576.6-.6,1.021c-.035.6,0,1.2,0,1.8V180.9c0,.387.077.654.545.646h3.283c.309,0,.491-.12.507-.46S661.442,180.523,661.052,180.523Z" transform="translate(-409.663 -117.556)"/><path class="a" d="M544.514,44.225c.483,0,.657-.159.638-.661-.039-.975,0-1.934,0-2.924s-.023-1.953,0-2.924c0-.476-.112-.685-.619-.677s-.773.054-.773.661q.05,2.924,0,5.847C543.756,44.148,544.031,44.221,544.514,44.225Z" transform="translate(-340.089 -32.515)"/><path class="a" d="M223.744,175.719c-.568,0-.568.34-.565.746v4.409c0,.452.1.7.619.7.588,0,.557-.356.557-.746v-4.409C224.359,175.986,224.293,175.708,223.744,175.719Z" transform="translate(-143.485 -117.563)"/><path class="a" d="M50.517,123.507c.313,0,.824.12.8-.364-.058-1.272.306-2.568-.151-3.817a.2.2,0,0,0-.043-.131h0a2.867,2.867,0,0,0-1.589-.174L48.619,119H46.793a14.049,14.049,0,0,0-3.689.189h-.019a24.129,24.129,0,0,0-5.143.673,9.4,9.4,0,0,0-2.672.9c-.623.344-.685.773-.182,1.249a7.734,7.734,0,0,0,.8.6h0a1.191,1.191,0,0,0,.657.46h0l.3.2.387.244a2.6,2.6,0,0,0,1.141.712c.1.213.282.2.468.189a13.63,13.63,0,0,0,2.583,1.133c-.151-1.183-.131-1.2,1.512-1.779a6.412,6.412,0,0,0,1.818-.217C46.677,123.538,48.6,123.531,50.517,123.507Zm-6.033-4.254Z" transform="translate(-27.927 -82.761)"/><path class="a" d="M54.321,36.915h0l-.309.058a.669.669,0,0,0-.53-.356,17.578,17.578,0,0,0-4.13.128,3.481,3.481,0,0,0-1.686.22h0l-.066-.031-.058.043a1.779,1.779,0,0,0-1.16.228l-.449.043-.456.213a5.662,5.662,0,0,0-2.491.909,2.982,2.982,0,0,0-1.57.712l-.456.209c-.2.093-.491.07-.549.387a1.071,1.071,0,0,0,1.021-.159h0a1.481,1.481,0,0,0,.9-.24h0a16.308,16.308,0,0,0,2.371-.356,1.744,1.744,0,0,0,.36-.089h.1l.089-.046a4.343,4.343,0,0,0,1.431-.12h0a.514.514,0,0,0,.209-.07l.619-.039h.228c2.131,0,4.254-.031,6.393,0,.82.019.727-.491.654-.944C54.769,37.379,55.28,36.6,54.321,36.915Zm-6.083,1.361a.426.426,0,0,0,.054.07h-.066a.418.418,0,0,1,.012-.07Z" transform="translate(-31.398 -32.22)"/><path class="a" d="M60.39,134.9h0l-.41.043a2.993,2.993,0,0,0-1.423.224.553.553,0,0,0-.425.681c.066.654.642.773,1.094.99.325.166.584.189.561-.3a12.344,12.344,0,0,1,4.753-.387c1.025.039,1.369-.267,1.137-1.241A13.085,13.085,0,0,0,60.39,134.9Z" transform="translate(-42.255 -92.361)"/><path class="a" d="M346.854,49.443v1.005l.073-.077a.12.12,0,0,1-.073.077c-1.029,9.506-7.854,14.916-16.273,15.744-2.939.286-5.9.05-8.844.124-.688,0-.692-.387-.692-.862V48.716c0-.568.128-.816.746-.8,2,.043,4.014-.058,6.01.066a8.406,8.406,0,0,1,8.241,8.427c0,.313-.143.665.116.955.085-.031.174-.035.217-.077,4.571-4.6,5.085-15.218-3.577-18.884a15.171,15.171,0,0,0-5.843-1.238c-5.669-.046-11.343-.019-17.016-.05-.692,0-.9.2-.9.889q.027,19.12,0,38.232c0,.723.251.882.92.874,3.326-.027,6.652,0,9.981-.019,3.4-.035,6.81.213,10.2-.151,15.523-1.659,21.03-15.744,17.128-26.909C347.233,49.775,347.241,49.5,346.854,49.443Z" transform="translate(-196.142 -32.558)"/><path class="a" d="M22.754,54.724h0l.464-.449h0l.893-.468h0l.924-.441h0a2.954,2.954,0,0,0,1.377-.445,1.348,1.348,0,0,0,.893-.236h0a1.419,1.419,0,0,0,.932-.217,1.985,1.985,0,0,0,1.141-.224h0a2.541,2.541,0,0,0,1.342-.213h0a5.624,5.624,0,0,0,2.061-.228h0a12.471,12.471,0,0,0,2.734-.217h0l.623-.039h7.031c.576.108.476-.313.476-.627,0-1-.07-2.011.023-3.009.1-1.141-.344-1.412-1.334-1.141a6.621,6.621,0,0,0-1.508-.139c-1.11-.027-2.216.085-3.326.159a8.953,8.953,0,0,0-2.707.217h0a2.58,2.58,0,0,0-1.365.2h0a4.184,4.184,0,0,0-1.582.29,4.869,4.869,0,0,0-2.05.65l-.677.259h0a2.846,2.846,0,0,0-1.16.623h0a.878.878,0,0,0-.681.429h0a2.2,2.2,0,0,0-1.16.9,6.644,6.644,0,0,0-2.27,2.506,2.641,2.641,0,0,0-.9,1.16l-.441.464c-.186.162-.468.387-.22.588C22.452,55.2,22.65,54.894,22.754,54.724ZM31.6,51.761h0v-.046a.066.066,0,0,0,.019.046Zm4.78-.476s.023,0,.031.031h-.046Z" transform="translate(-20.223 -38.396)"/><path class="a" d="M594.769,122.091c.039,1.883.027,3.767,0,5.646,0,.491.066.773.657.773s.681-.217.692-.739c.043-1.508.387-1.744,1.829-1.489.708.124.913.773,1.23,1.226a1.747,1.747,0,0,0,2.243.874c-.483-.638-.874-1.23-1.338-1.752-.363-.414-.313-.63.108-.978a2.208,2.208,0,0,0,.7-2.734,2.444,2.444,0,0,0-2.4-1.574c-.982,0-1.965.023-2.943,0C594.974,121.313,594.758,121.48,594.769,122.091Zm2.908.549h.773a1.135,1.135,0,0,1,1.269,1.129c.027.824-.51,1.195-1.288,1.241a9.763,9.763,0,0,0-1.009,0c-1.071.17-1.338-.24-1.373-1.319C596.018,122.242,596.954,122.71,597.678,122.64Z" transform="translate(-371.372 -84.214)"/><path class="a" d="M523.878,99.8c.05-1.493.387-1.744,1.825-1.485.7.128.909.773,1.226,1.23a1.755,1.755,0,0,0,2.243.878c-.476-.63-.87-1.214-1.33-1.744-.344-.387-.352-.619.089-.978a2.216,2.216,0,0,0,.715-2.734,2.448,2.448,0,0,0-2.39-1.589c-.978-.023-1.961.023-2.943,0-.592-.023-.773.166-.773.773.031,1.879,0,3.763,0,5.642,0,.468.031.773.65.773S523.851,100.3,523.878,99.8Zm0-4.792a.572.572,0,0,1,.159-.275,5.782,5.782,0,0,1,3.136.321,1.16,1.16,0,0,1-.6,1.934,3.608,3.608,0,0,1-.889.077c-1.752-.019-2.274-.746-1.806-2.069Z" transform="translate(-327.075 -67.062)"/><path class="a" d="M485.474,124.859a3.585,3.585,0,0,0-3.434-3.519c-.828-.043-1.659,0-2.487,0-.53-.023-.739.147-.716.7.039.975,0,1.934,0,2.928v.565c0,3.245,0,3.245,3.291,2.958A3.612,3.612,0,0,0,485.474,124.859Zm-3.349,2.32c-.387.046-.773-.023-1.125.031-.742.1-.913-.24-.851-.893.046-.483,0-.975,0-1.466,0-.073-.027-.162,0-.22.344-.634-.8-1.872.731-2,1.968-.166,3.063.557,3.225,1.984a2.32,2.32,0,0,1-1.968,2.572Z" transform="translate(-300.273 -84.202)"/><path class="a" d="M549.579,72.1a3.724,3.724,0,1,0-2.658-1.037,3.751,3.751,0,0,0,2.658,1.037Zm-.081-6.188a2.44,2.44,0,1,1-2.405,2.479A2.44,2.44,0,0,1,549.5,65.915Z" transform="translate(-341.326 -49.417)"/><path class="a" d="M501.147,100.406a3.763,3.763,0,1,0-3.747-3.867A3.829,3.829,0,0,0,501.147,100.406Zm.039-6.226a2.46,2.46,0,1,1-2.467,2.429A2.506,2.506,0,0,1,501.186,94.179Z" transform="translate(-311.658 -66.76)"/><path class="a" d="M552.464,120.859a3.76,3.76,0,1,0,3.693,3.825A3.76,3.76,0,0,0,552.464,120.859Zm-.1,6.226a2.541,2.541,0,0,1-2.436-2.5,2.51,2.51,0,0,1,2.506-2.413,2.475,2.475,0,0,1,2.425,2.483,2.514,2.514,0,0,1-2.494,2.444Z" transform="translate(-343.081 -83.918)"/><path class="a" d="M556.8,44.09a3.767,3.767,0,1,0-2.684-1.1A3.755,3.755,0,0,0,556.8,44.09Zm.023-6.188a2.483,2.483,0,0,1,2.432,2.475,2.529,2.529,0,0,1-2.5,2.429,2.494,2.494,0,0,1-2.421-2.494A2.456,2.456,0,0,1,556.819,37.9Z" transform="translate(-345.762 -32.233)"/><path class="a" d="M525.22,65.018c-.944-.1-1.4.128-1.261,1.195a17.842,17.842,0,0,1,.023,2.363V71.5c0,.364,0,.685.507.669a30.586,30.586,0,0,0,3.268-.1A3.481,3.481,0,0,0,530.6,68.4a3.554,3.554,0,0,0-3.233-3.345C526.667,65,525.928,65.091,525.22,65.018Zm3.976,2.943a2.32,2.32,0,0,1-1.276,2.73,5.21,5.21,0,0,1-2.235.209c-.541,0-.387-.449-.387-.773V68.545a.886.886,0,0,1,0-.336c.305-.615-.692-1.713.607-1.934,1.717-.248,2.935.425,3.291,1.686Z" transform="translate(-327.93 -49.66)"/><path class="a" d="M501.287,44.193c.507.035.859-.073,1.036-.623.116-.387.139-.947.63-.978a16.083,16.083,0,0,1,3.051.023c.53.062.48.773.7,1.2.29.549.8.437,1.183.309.476-.159.066-.5-.023-.731-.723-1.86-1.5-3.7-2.2-5.565-.24-.638-.568-.94-1.16-.8-.476,0-.882-.093-1.094.445q-1.214,3.094-2.487,6.188C500.711,44.1,500.9,44.17,501.287,44.193Zm2.707-4.819c.124-.3.139-.669.557-.955.387.951.727,1.852,1.079,2.738-.1.089-.143.17-.193.174C503.124,41.493,503.117,41.49,503.995,39.374Z" transform="translate(-313.766 -32.49)"/><path class="a" d="M599.7,44.137c.387.147.9.263,1.2-.259a4.811,4.811,0,0,0,.305-.727c.093-.244.159-.549.48-.553a21.587,21.587,0,0,1,3.044.031c.518.062.487.773.7,1.207.278.557.82.449,1.187.325.565-.189.042-.568-.047-.8-.708-1.86-1.477-3.7-2.185-5.553-.22-.58-.518-.9-1.16-.727-.685-.174-1.017.143-1.253.773-.715,1.876-1.47,3.693-2.189,5.55C599.7,43.626,599.266,43.978,599.7,44.137Zm3.48-5.89c.453,1.106.828,2.026,1.265,3.094h-2.5Z" transform="translate(-374.279 -32.507)"/><path class="a" d="M618.316,126.83a6.874,6.874,0,0,0,1.466,0c.615-.062,1.025.108,1.16.75.2.928.808,1.029,1.647.773-.878-2.185-1.756-4.331-2.591-6.493a.773.773,0,0,0-.951-.553c-.41.062-.928-.232-1.16.387-.886,2.216-1.779,4.428-2.707,6.791.716-.077,1.4.244,1.6-.65S617.489,126.729,618.316,126.83Zm.588-4.308,1.237,3.055h-2.49Z" transform="translate(-383.889 -84.177)"/><path class="a" d="M298.425,179.23a1.713,1.713,0,0,0,.611-2.112,2.023,2.023,0,0,0-1.91-1.357c-.9-.046-1.81,0-2.707-.023-.592-.023-.677.267-.669.773.019,1.427,0,2.854,0,4.285,0,.456,0,.812.63.8.553,0,.638-.329.568-.739-.17-.951.306-1.063,1.129-1.091.886-.023,1.16.6,1.547,1.118a1.36,1.36,0,0,0,1.814.568c-.387-.48-.7-.932-1.071-1.338C298.05,179.76,298,179.547,298.425,179.23Zm-1.524-.514h-.677c-1.35,0-1.388-.07-1.3-1.357.031-.468.22-.576.623-.565s.9,0,1.354,0c.646.027,1.121.321,1.094,1.013C297.968,178.449,297.489,178.689,296.9,178.716Z" transform="translate(-186.764 -117.574)"/><path class="a" d="M193.261,179.24a1.713,1.713,0,0,0,.6-2.115,2.081,2.081,0,0,0-2.03-1.357c-.828-.027-1.659.023-2.487,0-.588-.031-.773.162-.773.773.039,1.427.019,2.854,0,4.285,0,.449-.019.816.619.773.568,0,.615-.356.545-.754-.174-.99.387-1.044,1.16-1.071s1.125.522,1.473,1.025a1.417,1.417,0,0,0,1.887.665c-.387-.476-.712-.92-1.075-1.334C192.894,179.785,192.836,179.565,193.261,179.24Zm-1.218-.557a7.831,7.831,0,0,1-1.9.031c-.715-.089-.321-.712-.387-1.094-.046-.325-.174-.8.441-.816h.9v.031a5.291,5.291,0,0,1,.893,0,.928.928,0,0,1,.843.9.859.859,0,0,1-.785.944Z" transform="translate(-122.26 -117.587)"/><path class="a" d="M643.97,179.2a1.69,1.69,0,0,0,.6-2.019,2,2,0,0,0-1.868-1.408c-.936-.066-1.883,0-2.823-.035-.53,0-.623.244-.619.692v4.4c0,.387,0,.739.561.754s.673-.263.6-.7c-.178-1.021.344-1.133,1.21-1.129s1.11.561,1.454,1.06a1.481,1.481,0,0,0,1.872.657c-.387-.491-.685-.917-1.029-1.3S643.471,179.572,643.97,179.2Zm-1.613-.48h-.681c-1.292,0-1.442-.186-1.268-1.4.058-.387.213-.53.576-.522h1.361c.646,0,1.16.275,1.16.955S643,178.706,642.358,178.722Z" transform="translate(-398.657 -117.576)"/><path class="a" d="M436.736,179.253a1.705,1.705,0,0,0,.63-2.1,2.054,2.054,0,0,0-2-1.385c-.866-.039-1.736.019-2.6,0-.584-.027-.688.244-.681.746.023,1.466.019,2.931,0,4.4,0,.445.081.7.611.7s.623-.352.553-.746c-.166-.971.344-1.056,1.16-1.087s1.125.514,1.477,1.021a1.451,1.451,0,0,0,1.9.681c-.387-.468-.7-.9-1.06-1.326C436.449,179.825,436.26,179.609,436.736,179.253Zm-1.547-.522h-.8c-.828.178-1.272-.108-1.16-1.16.062-.592.232-.8.808-.754.387.031.754,0,1.133,0,.65,0,1.16.275,1.16.951S435.827,178.708,435.189,178.731Z" transform="translate(-271.598 -117.585)"/><path class="a" d="M346.985,175.769c-1.508.174-.387,1.582-.7,2.359a1.236,1.236,0,0,0,0,.449v2.255c0,.425.05.746.6.723a24.064,24.064,0,0,0,2.595-.089,2.862,2.862,0,0,0,2.475-3.229C351.684,176.346,350.048,175.429,346.985,175.769Zm3.341,4.1c-.7.773-1.632.63-2.525.611-.352,0-.363-.313-.363-.584v-1.234a1.087,1.087,0,0,1,0-.336c.17-.507-.441-1.265.422-1.547a2.44,2.44,0,0,1,2.707.909A1.709,1.709,0,0,1,350.327,179.872Z" transform="translate(-218.916 -117.551)"/><path class="a" d="M508.582,175.8c-2.011.085-.445,1.713-.932,2.483-.054.081,0,.224,0,.336,0,3.167,0,3.167,2.707,2.982a2.994,2.994,0,0,0,2.962-3.074C513.219,176.557,511.773,175.663,508.582,175.8Zm2.955,4.281a3.123,3.123,0,0,1-2.371.46c-.356,0-.36-.325-.36-.592V178.6a.724.724,0,0,1,0-.224c.182-.507-.453-1.276.41-1.547a2.392,2.392,0,0,1,2.765,1.009A1.744,1.744,0,0,1,511.537,180.08Z" transform="translate(-317.867 -117.604)"/><path class="a" d="M675.1,175.8a9.558,9.558,0,0,0-1.245,0v-.023c-.387,0-.773.019-1.133,0-.464-.027-.681.112-.673.63.027,1.547,0,3.094,0,4.641,0,.364.1.58.5.565a15.644,15.644,0,0,0,2.823-.093,2.877,2.877,0,0,0-.278-5.7Zm.507,4.505a3.8,3.8,0,0,1-1.992.232c-.352,0-.387-.271-.387-.557v-1.35a.728.728,0,0,1,0-.224c.19-.522-.483-1.361.48-1.578a2.284,2.284,0,0,1,2.819,1.28A1.779,1.779,0,0,1,675.608,180.3Z" transform="translate(-418.766 -117.595)"/><path class="a" d="M622.085,175.349a3.187,3.187,0,0,0-3.245,3.094,3.255,3.255,0,0,0,6.482.008A3.183,3.183,0,0,0,622.085,175.349Zm-.112,5.07a2.15,2.15,0,0,1-2.011-2.054,2.127,2.127,0,0,1,2.224-1.934,2.1,2.1,0,0,1,2.007,2.038A2.158,2.158,0,0,1,621.973,180.419Z" transform="translate(-386.134 -117.336)"/><path class="a" d="M171.805,175.357a3.163,3.163,0,0,0-3.276,3.036,3.007,3.007,0,0,0,3.229,3,3.038,3.038,0,0,0,3.233-3.016A3.187,3.187,0,0,0,171.805,175.357Zm-.116,5.07a2,2,0,1,1,.128-4,2.077,2.077,0,0,1,2.03,2,2.115,2.115,0,0,1-2.162,2Z" transform="translate(-109.97 -117.339)"/><path class="a" d="M452.135,175.347a3.163,3.163,0,0,0-3.175,3.028,3.241,3.241,0,0,0,6.466,0A3.194,3.194,0,0,0,452.135,175.347Zm.1,5.074a1.993,1.993,0,1,1,2.046-2.015A2.1,2.1,0,0,1,452.232,180.421Z" transform="translate(-281.951 -117.334)"/><path class="a" d="M367.157,175.357a3.163,3.163,0,0,0-3.167,3.036,3.248,3.248,0,0,0,6.478-.015A3.21,3.21,0,0,0,367.157,175.357Zm0,5.07a2.016,2.016,0,1,1,2.17-2.007,2.119,2.119,0,0,1-2.17,2.007Z" transform="translate(-229.841 -117.34)"/><path class="a" d="M155.072,175.739c-2.858-.058-2.858-.058-2.862,2.831v2.255c0,.387,0,.735.561.75s.657-.263.6-.7c-.1-.708.2-.959.886-.87a5.363,5.363,0,0,0,.773,0,2.323,2.323,0,0,0,2.564-2.127C157.6,176.659,156.572,175.77,155.072,175.739Zm1.3,2.518c-.344.773-1.056.723-1.617.7-1.3,0-1.779-.692-1.369-1.818.128-.344,1.783-.541,2.382-.24s.893.723.619,1.361Z" transform="translate(-99.962 -117.567)"/><path class="a" d="M137.771,175.73c-2.877-.073-2.877-.073-2.881,2.842v2.262c0,.414,0,.735.565.735s.654-.3.588-.723c-.116-.75.251-.924.9-.847a5.413,5.413,0,0,0,.793,0c1.524-.031,2.525-.9,2.506-2.181S139.252,175.769,137.771,175.73Zm.2,3.2c-.263.023-.53,0-.87,0-.773.17-1.114-.089-1.1-1.044,0-.878.217-1.261,1.125-1.118a4.7,4.7,0,0,0,.773,0c.692.05,1.183.387,1.16,1.106s-.456,1-1.091,1.04Z" transform="translate(-89.34 -117.558)"/><path class="a" d="M416.591,176.15c-.22-.534-.669-.387-1.06-.414a.773.773,0,0,0-.859.553c-.6,1.462-1.241,2.912-1.833,4.378-.1.259-.561.626-.062.851a.739.739,0,0,0,1.071-.507c.1-.306.166-.727.592-.743a19.81,19.81,0,0,1,2.491.023c.487.046.464.626.665.971s.568.305.9.294c.178,0,.263-.124.24-.313-.027-.058-.054-.128-.085-.2C417.964,179.414,417.268,177.786,416.591,176.15Zm-.967,3.187c-1,0-1.083-.286-.646-1.063.236-.418.387-.878.688-1.547a16.6,16.6,0,0,0,.665,1.528C416.831,179.109,416.591,179.314,415.625,179.337Z" transform="translate(-259.622 -117.568)"/></svg>