<svg xmlns="http://www.w3.org/2000/svg" width="244.023" height="39.012" viewBox="0 0 244.023 39.012"><defs><style>.a{fill:#fff;}</style></defs><path class="a" d="M177.514-37.221h-.037c-.145,0-.291.037-.472.037-.8,0-1.422-.436-1.422-2.185v-4.952c0-4.988.034-10.887.068-13.946v-.146c0-1.565-.618-3.021-2.912-3.021-.327,0-.838.036-1.2.036a1.081,1.081,0,0,0-1.127,1.095.935.935,0,0,0,1.018.945h.072a4.5,4.5,0,0,1,.584-.037c1.456,0,1.456.62,1.458,3.1,0,2.113-.036,4.7-.036,6.555,0,.473-.036.656-.109.656s-.182-.182-.365-.438a7.321,7.321,0,0,0-5.754-2.621c-4.734,0-8.265,3.535-8.263,8.632,0,5.281,3.534,8.7,8.268,8.7a7.58,7.58,0,0,0,6.08-3.059c.073-.073.109-.111.146-.111.109,0,.145.145.182.364.255,1.931,1.785,2.584,3.314,2.584.473,0,1.456-.107,1.456-1.127A.968.968,0,0,0,177.514-37.221Zm-10.16.4c-3.641,0-6.19-2.548-6.192-6.7,0-4.189,2.512-6.737,6.19-6.739,3.459,0,6.153,2.657,6.155,6.735C173.508-39.477,170.777-36.817,167.354-36.817Z" transform="translate(-92.319 67.618)"/><path class="a" d="M187.675-40.64c-1.456-.509-1.712-1.383-1.712-4.043,0-1.383.072-3.277.181-4.479a9.627,9.627,0,0,0,.037-1.018c0-4.079-2.3-5.571-5.684-5.571-3.13,0-6.189,1.567-6.189,2.95a.987.987,0,0,0,1.02.984,1.017,1.017,0,0,0,.765-.364,5.74,5.74,0,0,1,4.261-1.749c2.95,0,3.786,1.565,3.786,3.568,0,.182-.036.4-.036.582,0,.254-.145.364-.582.438a58.4,58.4,0,0,0-6.735,1.493c-2.7.838-3.9,2.7-3.9,4.516,0,2.514,2.224,5.026,5.9,5.026a6.733,6.733,0,0,0,5.535-2.806.193.193,0,0,1,.145-.109c.073,0,.109.073.146.182a3.1,3.1,0,0,0,2.7,2.328.984.984,0,0,0,.983-1.018A.924.924,0,0,0,187.675-40.64Zm-3.607-5.971c0,5.606-3.457,6.371-5.315,6.373-2.439,0-3.9-1.529-3.9-3.059,0-2.549,3.023-3.277,8.738-4.189h.111c.254,0,.363.109.363.4Z" transform="translate(-83.619 71.181)"/><path class="a" d="M193.323-38.424h-.146a10,10,0,0,1-1.018.073c-2.841,0-2.914-1.93-2.914-4.768,0-2.7.107-6.446.107-7.83,0-.436,0-.509.582-.509h3.205a.947.947,0,0,0,1.02-.984.936.936,0,0,0-1.02-.945H189.9c-.472,0-.545,0-.547-.4,0,0,.073-2.914.073-3.97a1.033,1.033,0,0,0-1.056-1.129,1.032,1.032,0,0,0-1.056,1.058v.909c0,1.274-.038,3.023-.038,3.169,0,.327-.07.363-.4.363h-2.112a.938.938,0,0,0-1.02.948.945.945,0,0,0,1.02.983h2.148c.255,0,.364.036.364.4v.582c0,1.785-.07,6.226-.07,8.556,0,1.6,0,5.572,4.663,5.572,1.456,0,2.33-.185,2.33-1.131A.9.9,0,0,0,193.323-38.424Z" transform="translate(-76.815 69.215)"/><path class="a" d="M207.1-40.645c-1.456-.509-1.711-1.383-1.711-4.041,0-1.384.072-3.277.182-4.479a10.059,10.059,0,0,0,.036-1.02c0-4.077-2.3-5.571-5.684-5.571-3.13,0-6.189,1.567-6.189,2.951a.987.987,0,0,0,1.02.983,1.009,1.009,0,0,0,.765-.364,5.746,5.746,0,0,1,4.261-1.749c2.95,0,3.786,1.567,3.786,3.568,0,.182-.034.4-.034.584,0,.254-.146.364-.582.438a58.149,58.149,0,0,0-6.737,1.493c-2.694.838-3.9,2.694-3.895,4.515,0,2.514,2.224,5.026,5.9,5.026a6.729,6.729,0,0,0,5.535-2.806.2.2,0,0,1,.146-.109c.072,0,.107.073.145.182a3.1,3.1,0,0,0,2.7,2.33.985.985,0,0,0,.983-1.02A.925.925,0,0,0,207.1-40.645ZM203.5-46.616c0,5.608-3.459,6.373-5.317,6.374-2.439,0-3.9-1.529-3.9-3.059,0-2.549,3.023-3.278,8.738-4.191h.111c.254,0,.364.111.364.4Z" transform="translate(-71.44 71.177)"/><path class="a" d="M212.18-47.493c-1.129-.582-2.876-1.31-3.9-1.783a2.8,2.8,0,0,1-1.785-2.4c0-1.2,1.056-2.333,2.95-2.333.218,0,3.459,0,3.459,2.912a.935.935,0,0,0,1.02.947.9.9,0,0,0,.911-.874V-51.1c-.037-.836-.037-1.384-.037-1.894,0-.547,0-1.056.037-1.821v-.036a.851.851,0,0,0-.913-.874.819.819,0,0,0-.836.582c-.036.109,0,.436-.182.436a.273.273,0,0,1-.22-.072,5.856,5.856,0,0,0-3.2-.983c-3.243,0-4.952,2.078-4.952,4.188a4.4,4.4,0,0,0,2.951,4.043c4.224,1.747,5.828,2.619,5.828,4.55,0,1.747-1.786,2.8-3.641,2.8-2.078,0-3.9-1.2-3.9-2.4,0-.255.073-.436.073-.693a.935.935,0,0,0-.983-.983.956.956,0,0,0-1.018.948v.073c.036.872.072,1.419.072,1.965s-.036,1.092-.072,1.894v.073a.877.877,0,0,0,.947.872c.436,0,.874-.109.874-1.018,0-.109.036-.182.109-.182a.463.463,0,0,1,.255.146,5.719,5.719,0,0,0,3.643,1.2c4.15,0,5.751-2.7,5.751-4.7C215.423-44.617,214.437-46.327,212.18-47.493Z" transform="translate(-64.214 71.176)"/><path class="a" d="M229.762-37.2c-.218,0-.4.037-.545.037a1.348,1.348,0,0,1-1.056-.436c-6.592-6.042-7.539-6.918-7.539-7.171,0-.111.073-.22.291-.364,1.783-1.167,4.588-3.06,6.735-4.516a1.737,1.737,0,0,1,.909-.329c.511,0,.22.036.729.036h.036a.959.959,0,0,0,1.02-.947.887.887,0,0,0-1.056-.947c-.947.036-1.82.037-2.621.037-.838,0-1.64,0-2.549-.036h-.073a.926.926,0,0,0-.983.947c0,.874.874.874,1.528.874.184,0,.257.036.257.109,0,.036-.038.109-.146.182-5.753,3.971-5.9,4.007-6.3,4.007a.547.547,0,0,1-.62-.582s.07-7.72.07-12.418c0-.8-.255-2.73-3.242-2.728-1.274,0-1.928.109-1.928,1.056A.992.992,0,0,0,213.7-59.37h.836c.911.037,1.2.438,1.2,1.456,0,1.967.037,4.407.039,6.957,0,4.441-.034,9.356-.106,13.181a.573.573,0,0,1-.618.618c-.584,0-.657-.036-1.093-.036h-.036a1,1,0,0,0-1.056,1.02.942.942,0,0,0,1.093.947c.836-.037,1.711-.073,2.621-.073.947,0,1.894.034,2.841.072h.036a.975.975,0,0,0,1.054-.984.975.975,0,0,0-1.054-.983h-.037a9.362,9.362,0,0,1-1.02.036.556.556,0,0,1-.618-.618c-.037-1.747-.037-2.914-.037-3.787,0-1.894.036-2.219.582-2.219a1.3,1.3,0,0,1,1.092.436c1.129,1.165,4.116,3.931,6.047,5.823a.285.285,0,0,1,.072.146c0,.037,0,.255-.947.255a.853.853,0,0,0-.981.948.926.926,0,0,0,.983.945h.073c.838-.036,1.638-.072,2.439-.072s1.676.034,2.623.07h.036a.973.973,0,0,0,1.02-1.02A.9.9,0,0,0,229.762-37.2Z" transform="translate(-58.674 67.612)"/><path class="a" d="M239.782-43a1.04,1.04,0,0,0-.729.327,6.515,6.515,0,0,1-5.279,2.4c-3.5,0-6.117-2.437-6.119-6.407,0-.509.073-.654.438-.656.8,0,3.895.036,6.626.036,1.347,0,2.585,0,3.423-.037C240-47.4,240.8-48.423,240.8-49.77c0-2.076-2.187-5.971-7.176-5.971-4.3,0-8.12,3.5-8.118,8.815,0,5.135,3.608,8.592,8.232,8.592,4.588,0,7.137-2.771,7.137-3.607A1.114,1.114,0,0,0,239.782-43Zm-6.12-10.923c3.714,0,4.99,2.73,4.99,3.786,0,.582-.327.984-1.2,1.022-1.02.036-3.059.036-4.952.036-4.224,0-4.552,0-4.552-.363C227.945-50.787,230.165-53.921,233.662-53.921Z" transform="translate(-50.633 71.187)"/><path class="a" d="M246.208-38.435h-.146c-.363.036-.691.072-1.018.072-2.841,0-2.914-1.93-2.915-4.77,0-2.694.109-6.444.109-7.829,0-.436,0-.509.582-.509h3.2a.947.947,0,0,0,1.022-.984.938.938,0,0,0-1.022-.947h-3.239c-.473,0-.547,0-.548-.4,0,0,.073-2.912.073-3.97a1.031,1.031,0,0,0-1.058-1.126,1.031,1.031,0,0,0-1.056,1.054v.911c0,1.274-.036,3.021-.036,3.168,0,.327-.072.363-.4.363l-2.112,0a.939.939,0,0,0-1.02.947.946.946,0,0,0,1.02.984l2.148,0c.255,0,.364.036.364.4v.582c0,1.785-.072,6.228-.072,8.558,0,1.6,0,5.572,4.663,5.571,1.458,0,2.331-.182,2.331-1.129A.9.9,0,0,0,246.208-38.435Z" transform="translate(-43.66 69.208)"/><path class="a" d="M259.237-42.945a1.146,1.146,0,0,0-.947.545,5.731,5.731,0,0,1-4.661,2.113c-4.188,0-6.335-3.457-6.337-6.771,0-4.041,2.766-6.883,6.335-6.883a4.784,4.784,0,0,1,3.714,1.492c.436.509.327.947.363,1.712a.965.965,0,0,0,1.022.874.938.938,0,0,0,1.054-.911v-.073c-.036-.836-.036-1.419-.036-1.965,0-.582,0-1.127.036-1.894v-.073a.94.94,0,0,0-1.057-.909c-.4,0-.835.181-.872.62-.036.181-.073.4-.182.4-.073,0-.109-.036-.182-.072a8.388,8.388,0,0,0-4.116-1.092c-4.588,0-8.192,3.826-8.192,8.924a8.278,8.278,0,0,0,8.561,8.592c3.932,0,6.662-2.44,6.662-3.5A1.166,1.166,0,0,0,259.237-42.945Z" transform="translate(-38.3 71.128)"/><path class="a" d="M274.547-37.192h-.037c-.511,0-.473.036-1.02.036-.438,0-.618-.255-.618-.656,0-2.876-.039-7.064-.075-8.593a5.767,5.767,0,0,0-6.083-5.824,6.819,6.819,0,0,0-5.388,2.478c-.073.073-.109.109-.145.109s-.073-.073-.073-.182c0-.509.034-3.787.034-6.735q0-1.093,0-2.076a2.541,2.541,0,0,0-2.475-2.769,8.213,8.213,0,0,0-.911-.072c-1.565,0-1.856.473-1.856,1.093a.993.993,0,0,0,1.018,1.018h.037a7.194,7.194,0,0,1,.8-.036c.947.036,1.238.547,1.238,1.492,0,2.185.037,5.135.039,8.231,0,4.368-.034,8.956-.07,11.907a.548.548,0,0,1-.584.62c-.582,0-.691-.037-1.165-.037h-.036a1,1,0,0,0-1.054,1.022.94.94,0,0,0,1.092.945c.838-.036,1.747-.073,2.658-.075s1.894.037,2.841.073h.036a1,1,0,0,0,1.056-.983.988.988,0,0,0-1.093-.984,8.945,8.945,0,0,1-1.018.037.557.557,0,0,1-.62-.62c0-1.71-.036-3.312-.037-4.659,0-1.311.037-2.4.037-3.1.107-2.876,2.875-4.77,5.423-4.77,2.076,0,4.005,1.272,4.189,4.293.036.693.073,2.4.073,4.3,0,1.347-.036,2.73-.036,3.932a.564.564,0,0,1-.582.618c-.582,0-.62-.034-1.093-.034h-.036a1,1,0,0,0-1.054,1.018.942.942,0,0,0,1.092.948c.839-.039,1.712-.075,2.623-.075.947,0,1.894.036,2.841.073h.036a.978.978,0,0,0,1.056-.984A.976.976,0,0,0,274.547-37.192Z" transform="translate(-31.58 67.591)"/><path class="a" d="M158.594-43.2v-18.4a3.645,3.645,0,0,0-3.641-3.641H121.66a3.644,3.644,0,0,0-3.641,3.641v24.22a3.644,3.644,0,0,0,3.641,3.641h15.723l-5.932,5.969a.906.906,0,0,0,0,1.279.907.907,0,0,0,.638.262.9.9,0,0,0,.641-.267l5.574-5.61,5.572,5.61a.906.906,0,0,0,.641.267.907.907,0,0,0,.638-.262.906.906,0,0,0,0-1.279l-5.928-5.968v0h15.721a3.645,3.645,0,0,0,3.641-3.641v-3.639l10.5,7.124a.891.891,0,0,0,.506.156.906.906,0,0,0,.748-.4.905.905,0,0,0-.241-1.256Zm-1.807-1.227-6.176-4.191a.905.905,0,0,0-1.256.241.9.9,0,0,0,.241,1.254l7.191,4.879v4.864a1.837,1.837,0,0,1-1.834,1.835H121.66a1.837,1.837,0,0,1-1.835-1.835v-24.22a1.838,1.838,0,0,1,1.835-1.835h33.293a1.838,1.838,0,0,1,1.834,1.835Z" transform="translate(-118.019 65.235)"/></svg>